<svg id="레이어_1" data-name="레이어 1" xmlns="http://www.w3.org/2000/svg" viewBox="0 0 18 18"><defs><style>.cls-1{fill:#00c55b;}.cls-2{fill:#312e2e;}.cls-3{fill:#008f4e;}.cls-4{fill:#fff;}.cls-5{fill:#ff94a1;}.cls-6{fill:none;stroke-width:0.4px;}.cls-6,.cls-7{stroke:#221e1f;stroke-linecap:round;stroke-linejoin:round;}.cls-7{fill:#221e1f;stroke-width:0.15808px;}</style></defs><path class="cls-1" d="M11.83729,7.49876,10.492,6.53084l-.373-5.27828H7.881L7.508,6.53084l-1.34525.96792A1.56374,1.56374,0,0,0,5.444,8.74727V16.7338c0,.383.43156.69355.96391.69355h5.18428c.53235,0,.96389-.31051.96389-.69355V8.74727A1.56374,1.56374,0,0,0,11.83729,7.49876Z"/><path class="cls-2" d="M7.16017,17.572c.149.0065.29815.02454.44714.01807.25751-.01087.51608-.01752.77237-.00568.31253.01447.61874-.09018.93436-.05286.21533.02549.44491.032.66458.0391.29284.00952.58453-.03107.8771-.01322.24121.01447.50827.0387.75147.04038a1.63889,1.63889,0,0,0,.45566-.04865.78973.78973,0,0,0,.44085-.279.87451.87451,0,0,0,.187-.55112l-.0108-.47277a4.32962,4.32962,0,0,1,.02347-.89856,3.14133,3.14133,0,0,0,.00961-.4928l.00879-.63968a3.36377,3.36377,0,0,0-.01272-.45181,1.51508,1.51508,0,0,1-.00525-.36951,1.8644,1.8644,0,0,0,.02237-.3602l-.0517-.90613c-.02142-.24487.02661-.48663.02853-.729.001-.12778-.01037-.26291-.00119-.389.01145-.15692-.01141-.31369-.01144-.47058l.01684-.22577c-.00088-.07764-.02423-.15454-.0187-.23236.02136-.30014.0393-.602.04586-.9025a3.78021,3.78021,0,0,0-.06478-.76532,1.68094,1.68094,0,0,0-.58933-.8309c-.03-.03311-.18222-.16131-.25152-.07123-.0441.05677.01638.11481.03384.13858a.96019.96019,0,0,0,.0831.10193,1.45373,1.45373,0,0,1,.40414.74256,2.91935,2.91935,0,0,1,.0495.42184c.0253.29364-.0278.59079-.021.88467.01.43445.01724.86353.00674,1.298l-.00247.25522c.00348.33218-.02945.671-.01526,1.00317.01074.2507.0451.50232.03677.751-.00924.27627.03391.552-.00265.82983a3.11374,3.11374,0,0,0,.00839.53009,6.34438,6.34438,0,0,1-.00482.63828,9.04084,9.04084,0,0,0-.04077.98513c.00769.15006-.01163.3.00656.44935.0361.21142.06384.33367-.05243.46105a.82475.82475,0,0,1-.39652.24463,2.40254,2.40254,0,0,1-.50647-.00259l-.37048.00095a4.1281,4.1281,0,0,1-.56985-.00379c-.21778-.02215-.44141.0253-.66166.00809-.36434-.02847-.729-.00284-1.09259-.0011a6.015,6.015,0,0,0-.93121.02679,4.41673,4.41673,0,0,1-.69217-.01647,5.37662,5.37662,0,0,1-1.03412-.00251c-.23657-.0571-.489-.25073-.45575-.47058a2.41659,2.41659,0,0,0-.017-.36944,3.7547,3.7547,0,0,0,.01313-.50681,6.46181,6.46181,0,0,1-.02976-.91418l.00052-.97126c.0004-.0892.00263-.179-.00485-.26806a1.7722,1.7722,0,0,1-.01987-.2605c.01923-.30066.015-.60166.05536-.90222.0224-.16681-.02386-.3367-.01694-.50482l.00516-.52143a2.66863,2.66863,0,0,1,.01782-.41183,2.25291,2.25291,0,0,0,.01719-.5184l-.01093-.19211A4.8726,4.8726,0,0,1,5.5893,9.33325c.05793-.32171-.08386-.65909.04194-.92245A1.7809,1.7809,0,0,1,5.99565,7.829a3.45012,3.45012,0,0,1,.5401-.48187q.41889-.25311.82293-.52826l.29679-.20569.05047-.64707A2.03533,2.03533,0,0,0,7.70207,5.691a1.83055,1.83055,0,0,1,.04-.26688c.00638-.08093-.00448-.16153.00486-.24252l.02237-.25333c.01172-.16684.02023-.33395.042-.5a3.343,3.343,0,0,0,.037-.52115,2.494,2.494,0,0,1,.0285-.41275l.047-.45742c.04785-.328.04788-.63315.095-.96122.01925-.13424.03082-.269.03778-.40408l.00732-.20282c-.00155-.024-.00625-.01459-.00958-.03024.009-.00458-.00555-.00958.03613-.01456l.20932-.01462c.39514-.026.78968.034,1.18289.01358l.05274-.00384a2.18936,2.18936,0,0,1,.43158-.00327.30143.30143,0,0,0-.00315.06351l.01478.21445c.039.36178.07928.735.11816,1.09549l.056.82629a4.75862,4.75862,0,0,1,.04944.75528,8.509,8.509,0,0,0,.08365,1.37067c.01584.14471.01584.29187.01739.43725.003.14615.032.18564.0564.42594a1.585,1.585,0,0,1,.15976.11761c.26742.24185.59363.40262.86847.63586a1.8909,1.8909,0,0,0,.15875.12616.34149.34149,0,0,0,.12454.0499c.03412.007.09394.02853.13867-.00427.06256-.04587.01059-.12445-.00686-.15091a.86964.86964,0,0,0-.22107-.21048L11.55677,7.15c-.29413-.22851-.60336-.43667-.90445-.65585l-.04251-.029-.03991-.3743-.06678-1.26828-.02722-.7128c-.02878-.72909-.07474-1.4573-.171-2.18173-.01511-.11359-.02292-.22794-.02991-.34229l-.03366-.46441-.31161.01272a7.63419,7.63419,0,0,1-.93405-.03289,7.0098,7.0098,0,0,0-.96729.02679l-.24887.01569L7.757,1.6069,7.7256,1.965c-.02878.31512-.03531.60522-.08811.9179-.04263.25229-.06518.50574-.086.75953L7.47663,4.66254c-.03628.415-.05548.83081-.07064,1.24719-.006.1701-.02573.36575-.04361.51834l-.00315.01981-.15738.121c-.07171.05511-.14416.10946-.22049.15851-.24884.15988-.48587.33691-.72738.50738-.118.08524-.24549.17032-.36911.2789a1.8407,1.8407,0,0,0-.31546.33707,1.87958,1.87958,0,0,0-.18045.4187,1.86342,1.86342,0,0,0-.122.65127,3.40434,3.40434,0,0,0,.03692.39884,2.09183,2.09183,0,0,1-.02383.379,2.55132,2.55132,0,0,0,.00537.7167l.04562.2638a2.69345,2.69345,0,0,1-.01266.54953c-.022.29309.00958.60635-.027.89941-.02844.22809-.00326.45859-.01129.6879-.00763.21759-.03961.44119-.04169.6614-.00207.22278.03266.445.03119.668l-.00287.54666L5.31019,15.791a3.302,3.302,0,0,0-.0188.45834c.05148.2345-.04806.39361.0455.69375a1.038,1.038,0,0,0,.34354.4477,1.258,1.258,0,0,0,.42389.18927A7.10159,7.10159,0,0,0,7.16017,17.572Z"/><rect class="cls-3" x="7.52952" y="0.57265" width="2.93561" height="1.35983" rx="0.21137"/><path class="cls-2" d="M8.93516.71735c.02856.0065.05716.02453.08572.01809A.32679.32679,0,0,1,9.169.72974c.05993.01446.11865-.09021.17916-.05286A.33653.33653,0,0,0,9.47563.716c.05615.00952.11206-.03106.16818-.01321a.649.649,0,0,0,.14377.04089.40514.40514,0,0,1,.077.02695c.02848.00781.05576.01721.08411-.013.06006-.06387.1207-.04981.18109-.06107.04669-.01022.14178-.02951.13858.02533.00046.02878.012.01212.01929.01975A.04777.04777,0,0,1,10.297.7699c.00012.01339-.00324-.00388.015.03427A.06158.06158,0,0,1,10.3173.875c-.01489.023-.03085.046-.02237.06909.02118.05768.02548.11627.0517.17374.02145.047-.02661.09332-.02854.1398-.001.02451.01038.05041.00119.07462-.01144.03009.01142.06015.01145.09024,0,.01443-.0177.0289-.01685.04327.00089.01489.02423.02963.01871.04456a.75.75,0,0,0-.0459.17306c-.00491.06287.03049.04126.01789.06442-.00763.00257.02124.08625-.02454.09348-.00552.00076-.02246-.006-.02628.10593-.00189.0718.02286.08126.0325.08813a.07345.07345,0,0,0,.04392.01572.33989.33989,0,0,0,.26678-.15046.2179.2179,0,0,0,.024-.15762c-.0235-.0748.02832-.11841.02194-.17889a1.01181,1.01181,0,0,1-.00674-.2489.229.229,0,0,0,.00247-.049c-.00348-.06369.02948-.12867.01526-.19236-.01074-.04806-.04514-.09631-.03677-.144.00882-.05725-.033-.09628.00167-.16867A.18119.18119,0,0,0,10.55958.599a.74774.74774,0,0,0-.14886-.14148.3803.3803,0,0,0-.15589-.06973.1693.1693,0,0,0-.09534-.007c-.02877.00769-.05752-.01163-.08618.00653-.03665.03088-.07409.05881-.11087.052-.03531-.00659-.07061.00424-.10589-.001C9.82136.4332,9.78626.37769,9.75111.38873c-.02365.00748-.04736-.00357-.071.001A.15675.15675,0,0,1,9.57081.38589C9.529.36374,9.48615.41122,9.44392.394a.4895.4895,0,0,0-.2095-.0011c-.05927.0015-.119-.023-.17856.02683C9.01209.45621,8.96739.403,8.92311.40323A1.838,1.838,0,0,0,8.7169.4516.15536.15536,0,0,1,8.554.413c-.02463-.02725-.05024.01346-.07538.013C8.44621.42551,8.41355.39053,8.38142.4129a.25465.25465,0,0,1-.17529.02976L8.01988.44214A.1151.1151,0,0,0,7.96849.447c-.01667.00729-.03324.02548-.05.0199a.54952.54952,0,0,1-.173-.05539C7.693.38831,7.63719.44592,7.59065.46194a.40308.40308,0,0,0-.13422.10053c-.03427.03125-.03769.07941-.07849.11423a.15343.15343,0,0,0-.03281.14593.10719.10719,0,0,0,.011.03684c.033.071.07986.1423.028.21295-.04541.06192.04975.12381.00916.18558-.03162.04815.00369.09729-.00635.14581-.00995.04791.06787.09509.04779.143A.6337.6337,0,0,0,7.3838,1.743a.33166.33166,0,0,0,.113.25476.14189.14189,0,0,0,.08615.03095c.03012.00131.04367.04156.07446.04959.02682.007.0545-.00672.07989-.0026a.22792.22792,0,0,0,.05021.00458.30849.30849,0,0,1,.09619.00665.12777.12777,0,0,0,.10019.0001.09586.09586,0,0,1,.07934-.00065c.02936.01081.05878.0033.08814.01468.06338.0246.12176.00315.18515.02695a.35141.35141,0,0,0,.23587-.0386c.07577-.026.15143.034.22683.01358l.01011-.00385c.06475-.03216.12976.01379.19442.00473l.21115-.04065c.05292-.00595.1059.01163.15882.00232.04916-.00864.09619-.02765.14514.00394a.32724.32724,0,0,0,.26331.01318.1728.1728,0,0,1,.08389.01349c.03213.01.06363-.04276.09558-.02408.06872.04013.13751-.01993.20639.00891a.07776.07776,0,0,0,.03885.00971c.00848-.00119.01681-.01325.025-.03226a.19127.19127,0,0,0,.02112-.08447.21534.21534,0,0,0-.018-.11856.061.061,0,0,0-.058-.04175l-.006-.0004a1.316,1.316,0,0,0-.21423-.00412c-.03467-.001-.06928.01578-.10395.01468-.08154-.00259-.162-.0228-.2435-.0228l-.13671-.0231a.8816.8816,0,0,0-.41965.01682c-.056.018-.11231-.01181-.16818.01928-.05973.03324-.11942-.028-.179-.03292a.26072.26072,0,0,0-.18228.02679.24.24,0,0,1-.16983.01984.4469.4469,0,0,1-.17679-.0232.35444.35444,0,0,0-.14642-.03222l-.19617-.00278a1.25766,1.25766,0,0,0-.13535.00238c-.01217-.00253-.01553-.01706-.01245-.028.00425-.01635-.02035-.00421-.00894-.05819a.75477.75477,0,0,0,.01294-.17005L7.69172,1.43a.73013.73013,0,0,0,.00931-.0813c-.00131-.02649-.03705-.05294-.03394-.07934.00467-.03934.03257-.07846.03955-.11777.00455-.02557-.02575-.051-.037-.07648-.01071-.02441.01153-.04837.02386-.07269A.10613.10613,0,0,0,7.68815.865c-.013-.01685-.03476-.03363-.04562-.0506-.024-.04385-.00074-.04855.01815-.06006.0239-.00805.023-.04864.05741-.02444.01974.0231.00946-.00119.07028.00674A1.08719,1.08719,0,0,0,7.9152.77829c.0427.00207.0853-.03265.12808-.03119A.8478.8478,0,0,0,8.14811.75c.07025-.00629.14054-.03406.21076-.04352.02911-.0039.05871.044.08789.01883.04162-.036.08313.01309.12494-.00989.02929-.01611.06024.01325.09045.02182l.0773.01944C8.8058.7753,8.86955.70242,8.93516.71735Z"/><rect class="cls-4" x="5.43859" y="9.22297" width="7.12281" height="6.63866"/><path class="cls-2" d="M9.4336,9.34567a2.506,2.506,0,0,0,.28684.01532,4.25647,4.25647,0,0,1,.49545-.00482c.20047.01227.39691-.07651.59934-.04483a3.87625,3.87625,0,0,0,.42633.03314c.18786.00809.375-.02633.56265-.0112.1542.01245.32712.03241.48093.03467.11895.00134.11578.01675.10772.02286l-.00064.00134c-.00619.01834-.01153-.03479.01233.09338a2.77217,2.77217,0,0,1,.05176.60578,2.105,2.105,0,0,1-.0199.57638,1.528,1.528,0,0,0-.00815.31611l-.00744.41033a1.6323,1.6323,0,0,0,.0108.28983.7387.7387,0,0,1,.00446.237.908.908,0,0,0-.019.231l.04386.58127a3.69063,3.69063,0,0,1-.0242.46765c-.00086.082.00879.16864.001.24957-.0097.10065.00968.2012.00971.30185l-.01428.14481a1.385,1.385,0,0,1,.01583.14907c-.01809.19251-.03332.38614-.0389.57892-.00452.15631.02618.31342.02078.46988-.007.20557.06048.40961.05566.61481-.00064.02737-.00769.14844.08737.1517.06082.00208.06964-.05374.07614-.07306a.36051.36051,0,0,0,.01944-.088l.0412-.60883a2.00014,2.00014,0,0,0-.01638-.29809c-.02146-.18836.02359-.379.01785-.56748-.00852-.27868-.01462-.554-.00571-.83258l.00208-.16375c-.003-.21308.025-.43042.01294-.64347-.0091-.16082-.03827-.32223-.03119-.48178a4.07594,4.07594,0,0,1,.00226-.53228,1.51484,1.51484,0,0,0-.00712-.34,3.08287,3.08287,0,0,1,.00406-.40946,4.3959,4.3959,0,0,0,.03461-.63192c-.00653-.09626.00986-.19245-.00555-.28824a1.468,1.468,0,0,1-.04407-.37094L12.6742,9.1102,12.6,9.1091c-.222-.00439-.32028-.05145-.43676-.042l-.23764.00076a2.002,2.002,0,0,1-.36554-.0032c-.13971-.01877-.28318.02148-.42444.00686a6.38361,6.38361,0,0,0-.70087-.00091,2.92174,2.92174,0,0,0-.59735.02273,2.14917,2.14917,0,0,1-.444-.014c-.2301.00024-.46005.03372-.68985.041a1.76673,1.76673,0,0,1-.54489-.03274.941.941,0,0,0-.25217.01107,1.82336,1.82336,0,0,0-.32513-.01114,3.13781,3.13781,0,0,1-.5864.02524l-.623-.00046a1.48631,1.48631,0,0,0-.17194.00412.86539.86539,0,0,1-.16711.01688l-.70328-.047L5.2996,9.084a1.98884,1.98884,0,0,0,.00559.27717,1.24712,1.24712,0,0,1,.01113.17019l-.00439.33444a1.29754,1.29754,0,0,1-.01511.26419,1.09775,1.09775,0,0,0-.01458.33255l.00927.1232a2.37048,2.37048,0,0,1,.02381.71241c-.03849.20709.04217.41409.00778.62072a4.33076,4.33076,0,0,0-.0054.4878c-.00843.16028.05755.31814.04053.47842q-.03329.313-.044.6264l-.0094.556a.998.998,0,0,0,.01971.17588.89566.89566,0,0,1-.01785.17257c-.00055.05207.01346.10315.01041.1554l-.00379.16312c0,.10726.00284.2146-.00564.32183a1.62232,1.62232,0,0,0-.00009.33515,1.21561,1.21561,0,0,1,.00055.26538l-.00721.3425.15842.00528.37888.01165c.1018.00058.20364.0011.30966.0112a4.34737,4.34737,0,0,0,.78906-.03274c.25348-.0221.50656.02881.75879.0115l.03384-.00326c.21662-.02725.434.01169.65042.004l.7063-.03449.53125.002a2.31142,2.31142,0,0,1,.48554.00332,4.13538,4.13538,0,0,0,.88083.0112,2.16594,2.16594,0,0,1,.28058.01142c.10748.00851.21286-.03626.31976-.02042.22986.034.45993-.01688.69043.00757a.92421.92421,0,0,0,.12994.00821.17751.17751,0,0,0,.08353-.02735.1178.1178,0,0,0,.07062-.07162.08935.08935,0,0,0-.06012-.10053.43327.43327,0,0,0-.194-.0354l-.02-.00033c-.23877-.01163-.47778-.00177-.71668-.00351l-.34774.01245-.81455-.01932-.45734-.01959a11.4477,11.4477,0,0,0-1.40374.01425c-.18741.01529-.37574-.01-.56263.01636a3.71069,3.71069,0,0,1-.59863-.02792,3.23862,3.23862,0,0,0-.60977.02273,3.01893,3.01893,0,0,1-.56815.01682,5.70223,5.70223,0,0,1-.5913-.01969l-.05036-.01669.00733-.045.00332-.144.00235-.65613c.00586-.26718-.00274-.53411-.0148-.80123-.00509-.11252-.00012-.2276.00589-.34128.007-.13263-.013-.2659-.00375-.39936.01321-.18948.00873-.37921.011-.56884l.001-.28635.0079-.27194c-.00112-.08863-.0314-.1771-.02877-.26541l.03354-.39395a1.67158,1.67158,0,0,0-.03135-.25586,1.02167,1.02167,0,0,1,.02024-.24311,1.24223,1.24223,0,0,0-.00458-.45974l-.03867-.16922a1.30946,1.30946,0,0,1,.01072-.35251c.01867-.188-.00812-.38895.02288-.57691a.444.444,0,0,0,.00974-.14331.08972.08972,0,0,1,.0321-.00015c.11466.00647.2761.0336.41181.03534.14288.00177.2854-.02768.42846-.02646l.35068.00244.705-.03689a1.60516,1.60516,0,0,0,.294.016c.13925-.03049.278.0111.41787-.0084a1.48349,1.48349,0,0,1,.30268.01853L8.779,9.379C9.00089,9.39481,9.21415,9.333,9.4336,9.34567Z"/><circle class="cls-5" cx="6.73807" cy="13.20664" r="0.95697"/><circle class="cls-5" cx="11.26193" cy="13.20664" r="0.95697"/><line class="cls-6" x1="9.48356" y1="11.33058" x2="10.43169" y2="10.80074"/><line class="cls-6" x1="8.51644" y1="11.3281" x2="7.56831" y2="10.79826"/><path class="cls-6" d="M8.84849,12.32822a.39942.39942,0,0,1,.2266.01886.25167.25167,0,0,1,.14853.1655.26788.26788,0,0,1-.07175.23585.55657.55657,0,0,1-.21591.13435.48846.48846,0,0,1,.334.092.31437.31437,0,0,1,.11751.31368.37146.37146,0,0,1-.17554.21161.63541.63541,0,0,1-.52406.05958"/><circle class="cls-7" cx="8.01127" cy="11.99587" r="0.33125"/><circle class="cls-7" cx="9.98873" cy="11.99587" r="0.33125"/></svg>