<svg id="레이어_1" data-name="레이어 1" xmlns="http://www.w3.org/2000/svg" viewBox="0 0 18 18"><defs><style>.cls-1{fill:#00c55b;}.cls-2{fill:#312e2e;}.cls-3{fill:#008f4e;}.cls-4,.cls-7{fill:#fff;}.cls-5{fill:#221e1f;stroke-width:0.15808px;}.cls-5,.cls-6,.cls-7{stroke:#221e1f;stroke-linecap:round;stroke-linejoin:round;}.cls-6{fill:none;stroke-width:0.5px;}.cls-7{stroke-width:0.4px;}.cls-8{fill:#ff94a1;}</style></defs><path class="cls-1" d="M11.83729,7.49876,10.492,6.53084l-.373-5.27828H7.881L7.508,6.53084l-1.34525.96792A1.56374,1.56374,0,0,0,5.444,8.74727V16.7338c0,.383.43156.69355.96391.69355h5.18428c.53235,0,.96389-.31051.96389-.69355V8.74727A1.56374,1.56374,0,0,0,11.83729,7.49876Z"/><path class="cls-2" d="M7.16017,17.572c.149.0065.29816.02454.44715.01807.25749-.01087.51608-.01752.77235-.00568.31253.01447.61874-.09018.93436-.05286.21533.02549.44494.032.66459.0391.29285.00952.58454-.03107.87711-.01322.24119.01447.50828.0387.75145.04038a1.63892,1.63892,0,0,0,.45567-.04865.78972.78972,0,0,0,.44086-.279.87455.87455,0,0,0,.187-.55112l-.01078-.47277a4.32962,4.32962,0,0,1,.02346-.89856,3.14133,3.14133,0,0,0,.00962-.4928l.00879-.63968a3.35882,3.35882,0,0,0-.01274-.45181,1.51558,1.51558,0,0,1-.00525-.36951,1.8636,1.8636,0,0,0,.02237-.3602l-.05169-.90613c-.02142-.24487.0266-.48663.02852-.729.001-.12778-.01036-.26291-.00117-.389.01144-.15692-.01142-.31369-.01145-.47058l.01685-.22577c-.00089-.07764-.02423-.15454-.01871-.23236.02135-.30014.03931-.602.04587-.9025a3.77953,3.77953,0,0,0-.06479-.76532,1.68092,1.68092,0,0,0-.58932-.8309c-.03-.03311-.18222-.16131-.25154-.07123-.04409.05677.01638.11481.03384.13858a.96019.96019,0,0,0,.0831.10193,1.454,1.454,0,0,1,.40416.74256,2.92217,2.92217,0,0,1,.0495.42184c.0253.29364-.0278.59079-.021.88467.01.43445.01723.86353.00673,1.298l-.00247.25522c.00349.33218-.02945.671-.01523,1.00317.01071.2507.04509.50232.03676.751-.00926.27627.03392.552-.00266.82983a3.11478,3.11478,0,0,0,.0084.53009,6.34438,6.34438,0,0,1-.00483.63828,9.04084,9.04084,0,0,0-.04077.98513c.00771.15006-.01162.3.00655.44935.0361.21142.06386.33367-.05242.46105a.82464.82464,0,0,1-.39653.24463,2.40255,2.40255,0,0,1-.50647-.00259l-.37046.00095a4.12792,4.12792,0,0,1-.56984-.00379c-.21779-.02215-.44144.0253-.66168.00809-.36434-.02847-.729-.00284-1.0926-.0011a6.01509,6.01509,0,0,0-.93121.02679,4.4165,4.4165,0,0,1-.69215-.01647,5.3766,5.3766,0,0,1-1.03412-.00251c-.23659-.0571-.48906-.25073-.45575-.47058a2.41659,2.41659,0,0,0-.017-.36944,3.75468,3.75468,0,0,0,.01311-.50681,6.45881,6.45881,0,0,1-.02974-.91418l.00052-.97126c.00038-.0892.00262-.179-.00486-.26806a1.77359,1.77359,0,0,1-.01988-.2605c.01924-.30066.015-.60166.05536-.90222.0224-.16681-.02386-.3367-.01694-.50482l.00518-.52143a2.66984,2.66984,0,0,1,.0178-.41183,2.25291,2.25291,0,0,0,.0172-.5184l-.01094-.19211a4.87317,4.87317,0,0,1-.02805-1.11057c.05794-.32171-.08384-.65909.04194-.92245A1.78127,1.78127,0,0,1,5.99565,7.829a3.45,3.45,0,0,1,.54009-.48187q.41892-.25311.82293-.52826l.29679-.20569L7.706,5.96606A2.037,2.037,0,0,0,7.70207,5.691a1.82922,1.82922,0,0,1,.04-.26688c.00636-.08093-.0045-.16153.00484-.24252l.02238-.25333c.01172-.16684.02022-.33395.042-.5a3.34051,3.34051,0,0,0,.037-.52115,2.49621,2.49621,0,0,1,.0285-.41275l.04706-.45742c.04782-.328.04786-.63315.09494-.96122.01925-.13424.03084-.269.03778-.40408l.00732-.20282c-.00154-.024-.00624-.01459-.00957-.03024.009-.00458-.00556-.00958.03614-.01456l.20932-.01462c.39514-.026.78967.034,1.18289.01358l.05272-.00384a2.18942,2.18942,0,0,1,.43159-.00327.30289.30289,0,0,0-.00315.06351l.01477.21445.11816,1.09549.05605.82629a4.75743,4.75743,0,0,1,.04943.75528,8.51016,8.51016,0,0,0,.08364,1.37067c.01585.14471.01585.29187.01739.43725.003.14615.032.18564.0564.42594a1.5827,1.5827,0,0,1,.15976.11761c.26742.24185.59363.40262.86848.63586a1.88943,1.88943,0,0,0,.15876.12616.34142.34142,0,0,0,.12454.0499c.0341.007.09395.02853.13865-.00427.06256-.04587.01059-.12445-.00685-.15091a.86968.86968,0,0,0-.22108-.21048L11.55678,7.15c-.29415-.22851-.60337-.43667-.90447-.65585l-.04251-.029-.0399-.3743-.06679-1.26828-.02722-.7128c-.02875-.72909-.07472-1.4573-.171-2.18173-.01509-.11359-.02289-.22794-.02989-.34229l-.03366-.46441-.3116.01272a7.63447,7.63447,0,0,1-.93408-.03289,7.00984,7.00984,0,0,0-.96729.02679l-.24887.01569L7.757,1.6069,7.72559,1.965c-.02878.31512-.0353.60522-.08811.9179-.04262.25229-.06518.50574-.086.75953L7.47664,4.66254c-.03629.415-.0555.83081-.07065,1.24719-.006.1701-.02573.36575-.04361.51834l-.00316.01981-.15736.121c-.07172.05511-.14417.10946-.22049.15851-.24884.15988-.48587.33691-.72739.50738-.118.08524-.2455.17032-.36911.2789a1.84036,1.84036,0,0,0-.31546.33707,1.88008,1.88008,0,0,0-.18046.4187,1.86388,1.86388,0,0,0-.122.65127,3.40438,3.40438,0,0,0,.03694.39884,2.09366,2.09366,0,0,1-.02385.379,2.55132,2.55132,0,0,0,.00539.7167l.0456.2638a2.69415,2.69415,0,0,1-.01263.54953c-.022.29309.00955.60635-.027.89941-.02846.22809-.00327.45859-.01131.6879-.00763.21759-.03961.44119-.04167.6614-.00208.22278.03265.445.03119.668l-.00289.54666L5.3102,15.791a3.29888,3.29888,0,0,0-.01882.45834c.05148.2345-.048.39361.0455.69375a1.03818,1.03818,0,0,0,.34356.4477,1.258,1.258,0,0,0,.42387.18927A7.10173,7.10173,0,0,0,7.16017,17.572Z"/><rect class="cls-3" x="7.52952" y="0.57265" width="2.93561" height="1.35983" rx="0.21137"/><path class="cls-2" d="M8.93515.71735c.02856.0065.05717.02453.08574.01809A.32683.32683,0,0,1,9.169.72974c.05992.01446.11863-.09021.17917-.05286A.33624.33624,0,0,0,9.47562.716c.05615.00952.11209-.03106.16818-.01321a.64911.64911,0,0,0,.14378.04089.405.405,0,0,1,.077.02695c.02848.00781.05577.01721.08412-.013.06006-.06387.1207-.04981.1811-.06107.04667-.01022.14178-.02951.13859.02533.00043.02878.012.01212.01927.01975A.04764.04764,0,0,1,10.297.7699c.00011.01339-.00322-.00388.01506.03427A.06163.06163,0,0,1,10.31731.875c-.01488.023-.03086.046-.02239.06909.02118.05768.02548.11627.05171.17374.02144.047-.02661.09332-.02853.1398-.001.02451.01038.05041.00117.07462-.01142.03009.01143.06015.01145.09024,0,.01443-.0177.0289-.01683.04327.00088.01489.02423.02963.01871.04456a.74853.74853,0,0,0-.0459.17306c-.00492.06287.03047.04126.01787.06442-.0076.00257.02124.08625-.02453.09348-.00552.00076-.02246-.006-.02627.10593-.00189.0718.02286.08126.03248.08813a.07353.07353,0,0,0,.04393.01572.33993.33993,0,0,0,.26679-.15046.2179.2179,0,0,0,.024-.15762c-.02348-.0748.02832-.11841.022-.17889a1.01034,1.01034,0,0,1-.00673-.2489.23163.23163,0,0,0,.00246-.049c-.0035-.06369.02946-.12867.01524-.19236-.01073-.04806-.04512-.09631-.03677-.144.00883-.05725-.033-.09628.00169-.16867A.18121.18121,0,0,0,10.55957.599a.74687.74687,0,0,0-.14885-.14148.38022.38022,0,0,0-.1559-.06973.16929.16929,0,0,0-.09534-.007c-.02876.00769-.05752-.01163-.08616.00653-.03667.03088-.0741.05881-.11089.052-.03529-.00659-.07058.00424-.10589-.001C9.82135.4332,9.78625.37769,9.75113.38873c-.02368.00748-.04736-.00357-.071.001A.15675.15675,0,0,1,9.5708.38589C9.52905.36374,9.48616.41122,9.44392.394a.48954.48954,0,0,0-.20951-.0011c-.05927.0015-.11893-.023-.17856.02683C9.0121.45621,8.96739.403,8.92311.40323A1.83817,1.83817,0,0,0,8.71689.4516.15535.15535,0,0,1,8.554.413c-.02463-.02725-.05023.01346-.07538.013C8.4462.42551,8.41356.39053,8.38142.4129a.25466.25466,0,0,1-.17529.02976L8.01988.44214A.11513.11513,0,0,0,7.96848.447c-.01667.00729-.03322.02548-.04995.0199a.54973.54973,0,0,1-.173-.05539C7.693.38831,7.63721.44592,7.59067.46194a.40309.40309,0,0,0-.13425.10053c-.03426.03125-.03767.07941-.07848.11423a.15345.15345,0,0,0-.03282.14593.10741.10741,0,0,0,.011.03684c.033.071.07988.1423.028.21295-.04539.06192.04976.12381.00919.18558-.03163.04815.00368.09729-.00638.14581-.00992.04791.06789.09509.04779.143A.6337.6337,0,0,0,7.3838,1.743a.33168.33168,0,0,0,.113.25476.14194.14194,0,0,0,.08616.03095c.03011.00131.04366.04156.07445.04959.02682.007.0545-.00672.07991-.0026a.22774.22774,0,0,0,.05019.00458.30857.30857,0,0,1,.0962.00665.12777.12777,0,0,0,.10019.0001.09583.09583,0,0,1,.07933-.00065c.02936.01081.05879.0033.08814.01468.06338.0246.12176.00315.18515.02695a.35141.35141,0,0,0,.23588-.0386c.07578-.026.15143.034.22682.01358l.01012-.00385c.06476-.03216.12975.01379.19444.00473l.21114-.04065c.05293-.00595.1059.01163.15881.00232.04915-.00864.09619-.02765.14515.00394a.32726.32726,0,0,0,.26332.01318.17269.17269,0,0,1,.08386.01349c.03213.01.06363-.04276.09559-.02408.06871.04013.1375-.01993.2064.00891a.07767.07767,0,0,0,.03884.00971c.00847-.00119.01683-.01325.025-.03226a.19162.19162,0,0,0,.02111-.08447.2154.2154,0,0,0-.018-.11856.061.061,0,0,0-.058-.04175l-.006-.0004a1.31612,1.31612,0,0,0-.21424-.00412c-.03467-.001-.06927.01578-.104.01468-.08152-.00259-.162-.0228-.2435-.0228l-.1367-.0231a.8816.8816,0,0,0-.41965.01682c-.056.018-.11232-.01181-.16818.01928-.05974.03324-.11941-.028-.179-.03292a.26074.26074,0,0,0-.18229.02679.24.24,0,0,1-.16984.01984.44673.44673,0,0,1-.17676-.0232.35461.35461,0,0,0-.14645-.03222l-.19614-.00278a1.25818,1.25818,0,0,0-.13537.00238c-.01217-.00253-.01552-.01706-.01244-.028.00424-.01635-.02037-.00421-.009-.05819a.756.756,0,0,0,.013-.17005L7.69173,1.43a.73249.73249,0,0,0,.0093-.0813c-.00132-.02649-.037-.05294-.03393-.07934.00465-.03934.03255-.07846.03953-.11777.00455-.02557-.02575-.051-.03694-.07648-.01071-.02441.01152-.04837.02385-.07269A.10615.10615,0,0,0,7.68816.865c-.013-.01685-.03476-.03363-.04563-.0506C7.61853.77051,7.6418.76581,7.66071.7543c.02388-.00805.023-.04864.05738-.02444.01975.0231.00948-.00119.07027.00674a1.08719,1.08719,0,0,0,.12683.04169c.04273.00207.08531-.03265.12808-.03119A.8478.8478,0,0,0,8.1481.75c.07027-.00629.14055-.03406.21077-.04352.0291-.0039.05872.044.08789.01883.04163-.036.08312.01309.12493-.00989.02929-.01611.06025.01325.09047.02182l.0773.01944C8.8058.7753,8.86955.70242,8.93515.71735Z"/><rect class="cls-4" x="5.43859" y="9.22297" width="7.12281" height="6.63866"/><path class="cls-2" d="M9.43361,9.36768a2.12936,2.12936,0,0,0,.28682.01806,3.59987,3.59987,0,0,1,.49545-.00567c.20047.01446.39691-.09024.59935-.05289a3.29768,3.29768,0,0,0,.42633.03909c.18785.00955.375-.03106.56264-.01318.15424.01465.32712.03818.48094.04086.12567.00156.06278.01975.07762.02695l-.00085.00159c-.00733.03588-.01363-.05259.01451.063a2.36365,2.36365,0,0,1,.06106.60578,1.79009,1.79009,0,0,1-.02346.57638,1.295,1.295,0,0,0-.00962.31611l-.0088.41033a1.38672,1.38672,0,0,0,.01276.28983.62723.62723,0,0,1,.00523.237.77537.77537,0,0,0-.02237.231l.0517.58127a3.127,3.127,0,0,1-.02854.46765c-.001.082.01038.16864.00119.24957a2.65574,2.65574,0,0,0,.01145.30185c0,.04837-.01772.09668-.01685.14481a1.17775,1.17775,0,0,1,.01871.14907c-.02135.19251-.03932.38614-.0459.57892-.00532.15631.03087.31342.02452.46988-.00833.20557.07132.40961.06564.61481-.00076.02737-.00907.14844.103.1517a.08578.08578,0,0,0,.08978-.07306.31519.31519,0,0,0,.02295-.088l.04856-.60883a1.69613,1.69613,0,0,0-.01931-.29809c-.02529-.18836.02782-.379.02105-.56748-.01-.27868-.01725-.554-.00673-.83258l.00245-.16375c-.00349-.21308.02947-.43042.01525-.64347a4.11927,4.11927,0,0,1-.03678-.48178,3.46274,3.46274,0,0,1,.00267-.53228,1.28644,1.28644,0,0,0-.0084-.34,2.61231,2.61231,0,0,1,.00482-.40946,3.73776,3.73776,0,0,0,.04079-.63192,2.64893,2.64893,0,0,0-.00655-.28824,1.257,1.257,0,0,1-.052-.37094L12.69441,9.09l-.074-.00129a2.37811,2.37811,0,0,1-.28093-.03088.56749.56749,0,0,0-.17626-.01874c-.07919.00748-.15844-.00357-.23765.001A1.70093,1.70093,0,0,1,11.56,9.03622c-.13971-.02215-.28317.02533-.42445.00809a5.42048,5.42048,0,0,0-.70087-.0011,2.48418,2.48418,0,0,0-.59733.0268,1.82344,1.82344,0,0,1-.444-.01645c-.23012.00027-.46007.03976-.68985.04837a1.50553,1.50553,0,0,1-.5449-.03861c-.08239-.02725-.168.01346-.25219.013a1.5504,1.5504,0,0,0-.3251-.01312,2.666,2.666,0,0,1-.58641.02976l-.623-.00052a1.25819,1.25819,0,0,0-.172.00485.73951.73951,0,0,1-.1671.0199L5.305,9.06183l-.03035-.00275c-.01532.17157.02632.40936.01971.47226-.00718.11173.00518.22366-.00517.33444a1.10429,1.10429,0,0,1-.01782.26419.9337.9337,0,0,0-.0172.33255,1.066,1.066,0,0,0,.01094.1232,2.01645,2.01645,0,0,1,.02806.71241c-.04539.20709.04976.41409.00917.62072a3.67962,3.67962,0,0,0-.00636.4878c-.00993.16028.06789.31814.04779.47842q-.03923.313-.05185.6264l-.01111.556a.85213.85213,0,0,0,.02327.17588c.01256.05874-.02034.1141-.02107.17257-.00066.05207.01588.10315.01227.1554l-.00446.16312c.00006.10726.00336.2146-.00665.32183a1.37705,1.37705,0,0,0-.00011.33515,1.03474,1.03474,0,0,1,.00066.266l-.0085.36655.15747.00619.4045.01376a2.90472,2.90472,0,0,1,.30967.01322,3.69116,3.69116,0,0,0,.78908-.03864c.25346-.026.50655.034.75878.01358l.03382-.00384A6.11426,6.11426,0,0,1,8.38,16.033l.70632-.04065c.177-.006.35425.01163.53125.00232a1.9622,1.9622,0,0,1,.48553.00394,3.51,3.51,0,0,0,.88083.01321,1.84011,1.84011,0,0,1,.28057.01346c.10748.01007.21286-.04276.31977-.02408.22986.04016.45995-.0199.69043.00891a.78587.78587,0,0,0,.13.00971.15985.15985,0,0,0,.08354-.03226.12955.12955,0,0,0,.07059-.08447.10686.10686,0,0,0-.06011-.11853.37562.37562,0,0,0-.194-.04175l-.02-.00043c-.23877-.0137-.47777-.002-.71666-.00412l-.34773.01471-.81456-.0228-.45732-.0231a9.71463,9.71463,0,0,0-1.40378.01679c-.18738.018-.37574-.01178-.56261.01928a3.149,3.149,0,0,1-.59865-.03293,2.75334,2.75334,0,0,0-.60977.02683,2.56276,2.56276,0,0,1-.56813.01984,4.32186,4.32186,0,0,1-.57256-.0232l-.04664-.01971a.5641.5641,0,0,0,.01254-.16663l.00276-.65613c.00695-.26718-.00322-.53411-.01745-.80123a2.97331,2.97331,0,0,1,.007-.34128c.00827-.13263-.0154-.2659-.00442-.39936.01556-.18948.01028-.37921.013-.56884l.00114-.28635.00931-.27194c-.00131-.08863-.037-.1771-.03392-.26541l.03954-.39395a1.42869,1.42869,0,0,0-.037-.25586.87108.87108,0,0,1,.02387-.24311,1.0574,1.0574,0,0,0-.00539-.45974l-.04562-.16922a1.11343,1.11343,0,0,1,.01263-.35251c.022-.188-.00955-.38895.027-.57691.01823-.13144.01443-.07535.01147-.11838a.07589.07589,0,0,1,.03208-.00015c.06483.00763.26228.03961.38687.04169.1429.00207.28541-.03265.42846-.03122l.35068.0029.70505-.04352c.09735-.00391.19641.044.294.01883.13926-.036.278.01309.41789-.00992a1.26409,1.26409,0,0,1,.30266.02185L8.779,9.407C9.0009,9.42563,9.21416,9.35275,9.43361,9.36768Z"/><circle class="cls-5" cx="8.01127" cy="11.99587" r="0.33125"/><circle class="cls-5" cx="9.98873" cy="11.99587" r="0.33125"/><line class="cls-6" x1="8.31385" y1="13.41998" x2="9.68615" y2="13.41998"/><path class="cls-7" d="M9.69793,11.025a3.06938,3.06938,0,0,1,.45723.00935.38183.38183,0,0,1,.23789.08292"/><path class="cls-7" d="M7.607,10.9638a3.06938,3.06938,0,0,1,.45723.00935.38171.38171,0,0,1,.23789.08292"/><circle class="cls-8" cx="6.73807" cy="13.20664" r="0.95697"/><circle class="cls-8" cx="11.26193" cy="13.20664" r="0.95697"/></svg>