<svg id="레이어_1" data-name="레이어 1" xmlns="http://www.w3.org/2000/svg" viewBox="0 0 18 18"><defs><style>.cls-1{fill:#00c55b;}.cls-2{fill:#312e2e;}.cls-3{fill:#ff2a00;}.cls-4{fill:#ff94a1;}.cls-5{fill:#fff;stroke-width:0.4px;}.cls-5,.cls-7{stroke:#221e1f;stroke-linecap:round;stroke-linejoin:round;}.cls-6{fill:#ff2e34;}.cls-7{fill:none;stroke-width:0.36235px;}</style></defs><path class="cls-1" d="M11.83729,7.49876,10.492,6.53084l-.373-5.27828H7.881L7.508,6.53084l-1.34525.96792A1.56374,1.56374,0,0,0,5.444,8.74727V16.7338c0,.383.43156.69355.96391.69355h5.18428c.53235,0,.96389-.31051.96389-.69355V8.74727A1.56374,1.56374,0,0,0,11.83729,7.49876Z"/><path class="cls-2" d="M7.16018,17.572c.149.0065.29815.02451.44714.01807.25751-.0109.51608-.01755.77237-.00568.3125.01444.61874-.09021.93433-.05286.21533.02549.44494.032.66461.0391.29284.00952.58453-.03107.8771-.01322.24118.01444.50827.03867.75144.04038a1.64023,1.64023,0,0,0,.45569-.04865.78989.78989,0,0,0,.44085-.279.8746.8746,0,0,0,.187-.55112l-.01077-.4728a4.32732,4.32732,0,0,1,.02347-.89853,3.14133,3.14133,0,0,0,.00961-.4928l.00879-.63971a3.35654,3.35654,0,0,0-.01275-.45178,1.51658,1.51658,0,0,1-.00525-.36951,1.86442,1.86442,0,0,0,.0224-.3602l-.0517-.90613c-.02142-.2449.02658-.48666.0285-.72906.001-.12775-.01034-.26288-.00116-.389.01145-.15689-.01141-.31366-.01144-.47055l.01684-.22577c-.00088-.07767-.02423-.15457-.0187-.23239.02133-.30011.0393-.602.04587-.90247a3.78143,3.78143,0,0,0-.06479-.76535,1.68121,1.68121,0,0,0-.58933-.8309c-.03-.03311-.18222-.16128-.25155-.07123-.04407.05677.01638.11484.03384.13861a.95673.95673,0,0,0,.08313.10193,1.45408,1.45408,0,0,1,.40414.74256,2.91935,2.91935,0,0,1,.0495.42184c.0253.29364-.0278.59079-.021.88464.01.43445.01721.86356.00671,1.298l-.00244.25525c.00348.33218-.02945.671-.01526,1.00314.01074.25073.0451.50235.03677.751-.00924.27624.03391.55194-.00265.82983a3.11339,3.11339,0,0,0,.00839.53006,6.34491,6.34491,0,0,1-.00482.63831,9.04084,9.04084,0,0,0-.04077.98513c.00769.15006-.01163.3.00653.44935.0361.21142.06387.33367-.0524.46105a.82443.82443,0,0,1-.39655.2446,2.40215,2.40215,0,0,1-.50644-.00256l-.37048.00092a4.12337,4.12337,0,0,1-.56985-.00379c-.21778-.02212-.44144.02533-.66169.00812-.36431-.0285-.72894-.00284-1.09259-.0011a6.01516,6.01516,0,0,0-.93121.02679,4.41643,4.41643,0,0,1-.69214-.01647,5.379,5.379,0,0,1-1.03412-.00251c-.2366-.0571-.48907-.25076-.45575-.47058a2.41773,2.41773,0,0,0-.017-.36944,3.75642,3.75642,0,0,0,.01309-.50681,6.45732,6.45732,0,0,1-.02973-.91418l.00052-.97129c.00037-.08917.00263-.179-.00485-.268a1.77636,1.77636,0,0,1-.0199-.2605c.01926-.30066.015-.60166.05539-.90225.02237-.16678-.02389-.33667-.017-.50482l.00519-.5214a2.66972,2.66972,0,0,1,.01782-.41183,2.25492,2.25492,0,0,0,.01719-.51844l-.011-.19207a4.87432,4.87432,0,0,1-.02805-1.11057c.058-.32174-.08383-.65909.042-.92248A1.78094,1.78094,0,0,1,5.99566,7.829a3.44877,3.44877,0,0,1,.5401-.48187q.41889-.25311.8229-.52826l.29679-.20572.0505-.647a2.04076,2.04076,0,0,0-.00387-.27514,1.82476,1.82476,0,0,1,.04-.26685c.00637-.081-.00452-.16153.00482-.24252l.0224-.25333c.01172-.16684.0202-.33395.042-.5a3.33967,3.33967,0,0,0,.03693-.52118,2.49671,2.49671,0,0,1,.0285-.41272l.04706-.45745c.04782-.328.04788-.63315.09494-.96119.01925-.13424.03085-.269.03778-.40411l.00732-.20282c-.00152-.024-.00622-.01456-.00955-.03024.009-.00455-.00555-.00955.03613-.01456l.20932-.01459c.39514-.026.78968.034,1.18289.01358l.05271-.00384a2.18963,2.18963,0,0,1,.43161-.00327.3008.3008,0,0,0-.00314.06351l.01474.21445.11816,1.09546.05606.82629a4.759,4.759,0,0,1,.04944.75531,8.51266,8.51266,0,0,0,.08362,1.37067c.01587.14468.01587.29184.01739.43725.003.14612.032.18564.0564.42594a1.58153,1.58153,0,0,1,.15976.11761c.26742.24185.59366.40259.8685.63586a1.8983,1.8983,0,0,0,.15875.12616.34233.34233,0,0,0,.12454.0499c.03409.007.09394.0285.13864-.00427.06256-.04587.01059-.12448-.00683-.15091a.86939.86939,0,0,0-.2211-.21051L11.55678,7.15c-.29416-.22851-.60336-.43667-.90448-.65585l-.04251-.029-.03988-.37433L10.5031,4.82255l-.02719-.71277c-.02878-.72912-.07474-1.4573-.17105-2.18176-.01508-.11359-.02289-.22791-.02988-.34226l-.03366-.46441-.31161.01272a7.63447,7.63447,0,0,1-.93408-.03289,7.00992,7.00992,0,0,0-.96729.02679l-.24887.01569L7.757,1.60691,7.72558,1.965c-.02878.31509-.03528.60522-.08811.91787-.0426.25232-.06518.50577-.086.75956L7.47664,4.66252c-.03628.415-.05551.83081-.07064,1.24722-.006.17007-.02573.36575-.04361.51834l-.00318.01978-.15735.121c-.07171.05511-.14416.10943-.22049.15848-.24884.15988-.48587.33691-.72738.50741-.118.08524-.24552.17032-.36911.2789a1.83967,1.83967,0,0,0-.31546.33707,1.88006,1.88006,0,0,0-.18048.41867,1.86423,1.86423,0,0,0-.122.65127,3.41138,3.41138,0,0,0,.037.39887,2.09475,2.09475,0,0,1-.02386.379,2.55246,2.55246,0,0,0,.0054.7167l.04559.2638a2.69129,2.69129,0,0,1-.01263.54953c-.022.29306.00955.60635-.027.89938-.02847.22812-.00326.45862-.01129.68793-.00766.21759-.03964.44119-.04169.6614-.00207.22278.03266.445.03119.668l-.0029.54666L5.3102,15.791a3.29793,3.29793,0,0,0-.01883.45835c.05152.23453-.048.39361.0455.69375a1.03854,1.03854,0,0,0,.34357.44773,1.258,1.258,0,0,0,.42389.18927A7.10565,7.10565,0,0,0,7.16018,17.572Z"/><rect class="cls-3" x="7.52952" y="0.57265" width="2.93561" height="1.35983" rx="0.21137"/><path class="cls-2" d="M8.93514.69535a.23617.23617,0,0,0,.08575.01532A.38362.38362,0,0,1,9.169.70585c.05993.01227.11865-.07651.17916-.04483a.38111.38111,0,0,0,.12745.03314c.05615.00809.11209-.02633.16821-.0112a.73928.73928,0,0,0,.14377.03467.45342.45342,0,0,1,.07693.02286.081.081,0,0,0,.08414-.011c.06006-.05417.1207-.04223.18109-.05176.04834-.00836.13773-.02581.14365.02231.005.02548.01922.01352.02914.023A.07385.07385,0,0,1,10.321.7621c.00153.01556-.00106.00534.01435.04208A.07068.07068,0,0,1,10.3398.875a.09263.09263,0,0,0-.019.06906c.018.05771.02161.1163.04382.17377.01819.047-.02255.09332-.02417.1398a.26908.26908,0,0,1,.001.07458c-.0097.0301.00967.06016.00971.09025,0,.01446-.015.0289-.01429.0433.00077.01489.02057.02963.01587.04456a.86108.86108,0,0,0-.03891.17306c-.0039.06036.02564.04944.01142.07535-.01081.0105.00558.08752-.04236.09564-.00589.00107-.02573-.00427-.02912.09058-.00171.06091.02182.06878.03086.07455a.07191.07191,0,0,0,.0412.01267.32037.32037,0,0,0,.24743-.144.21089.21089,0,0,0,.02393-.1466c-.01975-.072.02405-.11765.01871-.17749a1.189,1.189,0,0,1-.00571-.2489.271.271,0,0,0,.00207-.04895,1.3663,1.3663,0,0,0,.01294-.19236.46331.46331,0,0,1-.03119-.144c.00745-.05661-.02786-.09775.00135-.16724a.17736.17736,0,0,0-.05481-.15213.63227.63227,0,0,0-.1398-.13229.355.355,0,0,0-.146-.06232A.19776.19776,0,0,0,10.15951.41c-.02878.00653-.05756-.00985-.08619.00556a.16417.16417,0,0,1-.11087.04406C9.92714.454,9.89184.46318,9.85653.45878,9.82134.45439,9.78628.40733,9.75112.41673a.67364.67364,0,0,1-.071.00076.18284.18284,0,0,1-.10925-.0032C9.529.39549,9.48617.43577,9.44393.42115a.57477.57477,0,0,0-.2095-.00091c-.0593.00125-.119-.01947-.17859.0227C9.01211.47392,8.9674.42881,8.92312.429c-.06879.00024-.13755.03372-.20621.041A.17569.17569,0,0,1,8.554.43727c-.02463-.02311-.05024.01141-.07538.011C8.44622.44789,8.41356.41822,8.38143.4372a.29467.29467,0,0,1-.17529.02524L8.01989.462a.13419.13419,0,0,0-.05142.00412C7.9518.4723,7.93526.48771,7.91854.483a.62376.62376,0,0,1-.173-.047c-.04937-.01974-.10168.0301-.14557.04581a.37219.37219,0,0,0-.12558.09461C7.44289.606,7.438.65055,7.40233.68388a.15531.15531,0,0,0-.02917.13876.12259.12259,0,0,0,.00928.03684c.028.07095.06774.14227.0238.21295-.03848.06192.04217.12378.00778.18555-.02682.04818.00311.09732-.0054.14581-.00842.04791.05756.09512.04053.143a.72755.72755,0,0,0-.04309.1948.313.313,0,0,0,.10662.2381.13934.13934,0,0,0,.07963.03073c.02792.00235.04177.03735.07046.04477.02506.00647.05084-.00492.07477-.00138a.25933.25933,0,0,0,.05.00391.36436.36436,0,0,1,.09622.00565.149.149,0,0,0,.10019.00009.11151.11151,0,0,1,.07931-.00055c.02936.00915.05881.00277.08817.01245.06335.02084.12173.00265.18512.02286a.40682.40682,0,0,0,.2359-.03275c.07577-.02206.15143.02884.22684.01151l.0101-.00327c.06475-.02725.12973.01172.19442.004l.21115-.03449c.05292-.005.1059.00986.15882.002a.21251.21251,0,0,1,.14514.00332.38094.38094,0,0,0,.26331.0112.20041.20041,0,0,1,.08386.01142c.03213.00854.06363-.03626.09561-.02042.06869.03406.13748-.01687.20639.00757a.08848.08848,0,0,0,.03885.00821c.00845-.001.01681-.0112.025-.02734A.14376.14376,0,0,0,10.253,1.9676a.15925.15925,0,0,0-.018-.10052.062.062,0,0,0-.058-.0354l-.006-.00034a1.54923,1.54923,0,0,0-.21423-.00351c-.03467-.00082-.06928.0134-.104.01245L9.60933,1.821l-.13668-.01959a1.03519,1.03519,0,0,0-.41965.01425c-.056.01529-.11234-.01-.16818.01636-.05976.02817-.11942-.02377-.179-.02792a.30193.30193,0,0,0-.18228.02273.27916.27916,0,0,1-.16986.01682A.52244.52244,0,0,1,8.177,1.824a.40838.40838,0,0,0-.14645-.02734l-.19614-.00235c-.10138-.00662-.11706.00787-.14947-.00534a.03619.03619,0,0,1-.01972-.03613c.00116-.01947-.02-.01535-.0101-.0672a.88747.88747,0,0,0,.011-.17l.001-.0856c.00144-.02643.009-.05429.00791-.0813-.00113-.02649-.03141-.05291-.02878-.07931.004-.03934.02762-.07846.03354-.11777.00384-.0256-.02185-.051-.03134-.07651-.00907-.02438.00976-.04834.02023-.07266A.12088.12088,0,0,0,7.664.865L7.62536.81437C7.60488.77168,7.62472.76261,7.64278.74766,7.66591.73277,7.67193.69123,7.709.70848c.02291.01681.02111-.00364.07931.0032A1.23625,1.23625,0,0,0,7.91518.747c.04273.00177.08533-.02768.12808-.02646A.99968.99968,0,0,0,8.14809.723c.07028-.00531.14057-.02887.21079-.03689.02908-.00333.05871.03735.08789.016.04162-.03049.0831.01111.12491-.0084C8.601.68,8.632.70491,8.66216.7122l.0773.01648C8.80581.74449,8.86956.68269,8.93514.69535Z"/><rect class="cls-4" x="5.43859" y="9.22297" width="7.12281" height="6.63866"/><path class="cls-2" d="M9.43361,9.36769a2.13943,2.13943,0,0,0,.28684.01806,3.59944,3.59944,0,0,1,.49542-.00567c.2005.01443.39691-.09024.59937-.05289a3.30283,3.30283,0,0,0,.42633.03909c.18783.00952.37494-.03106.56262-.01321.15423.01468.32712.03821.481.04089.12567.00156.06277.01972.0776.02695l-.00085.00155c-.00733.03592-.01361-.05258.01452.06308a2.36489,2.36489,0,0,1,.06107.60575,1.79,1.79,0,0,1-.02347.57638,1.29673,1.29673,0,0,0-.00961.31614l-.00879.41033a1.384,1.384,0,0,0,.01273.28983.62723.62723,0,0,1,.00524.237.7747.7747,0,0,0-.02236.231l.05169.58124a3.13109,3.13109,0,0,1-.02853.46768c-.001.08194.01037.16864.00119.24954a2.65342,2.65342,0,0,0,.01144.30185c0,.0484-.0177.09668-.01684.14484a1.1816,1.1816,0,0,1,.0187.149c-.02136.19254-.03933.38617-.04589.57892-.00535.15634.03085.31342.0245.46991-.00833.20557.07132.40961.06564.61478-.00076.0274-.00906.14847.103.15173a.08578.08578,0,0,0,.08978-.07306.31348.31348,0,0,0,.02295-.088l.04856-.60883a1.69611,1.69611,0,0,0-.01929-.29809c-.0253-.18839.0278-.379.021-.56748-.01-.27868-.01725-.554-.00672-.83261l.00244-.16372c-.00348-.21308.02948-.43042.01526-.6435a4.11706,4.11706,0,0,1-.03677-.48175,3.46073,3.46073,0,0,1,.00265-.53232,1.28513,1.28513,0,0,0-.00839-.34,2.61318,2.61318,0,0,1,.00482-.40943,3.739,3.739,0,0,0,.04078-.63195,2.6491,2.6491,0,0,0-.00654-.28824,1.25714,1.25714,0,0,1-.052-.37091L12.69442,9.09l-.074-.00129a2.37168,2.37168,0,0,1-.28094-.03091.56824.56824,0,0,0-.17624-.01871c-.0792.00745-.15845-.00357-.23767.00092A1.69947,1.69947,0,0,1,11.56,9.0362c-.13971-.02215-.28317.02533-.42447.00812a5.42,5.42,0,0,0-.70084-.0011,2.4843,2.4843,0,0,0-.59735.0268,1.82352,1.82352,0,0,1-.444-.01648c-.2301.0003-.46.03976-.68985.04837a1.50547,1.50547,0,0,1-.54489-.03858c-.0824-.02725-.168.01343-.2522.013a1.54971,1.54971,0,0,0-.3251-.01313,2.66772,2.66772,0,0,1-.5864.02976l-.623-.00052a1.2537,1.2537,0,0,0-.172.00485.741.741,0,0,1-.16708.0199L5.305,9.06184l-.03033-.00278c-.01535.1716.02631.40939.01968.47226-.00717.11173.00519.22369-.00515.33447a1.10492,1.10492,0,0,1-.01783.26419.93373.93373,0,0,0-.01721.33252,1.06823,1.06823,0,0,0,.011.12323,2.01615,2.01615,0,0,1,.028.71241c-.04538.20706.04978.41406.00919.62069a3.683,3.683,0,0,0-.00638.4878c-.00992.16027.0679.31817.04779.47845q-.03922.31293-.05185.6264l-.01111.556a.85485.85485,0,0,0,.02329.17588c.01254.05871-.02036.11407-.02109.17254-.00064.0521.0159.10315.01227.1554l-.00446.16312c.00006.10729.00336.21459-.00665.32183a1.37756,1.37756,0,0,0-.00009.33515,1.0352,1.0352,0,0,1,.00064.266l-.00848.36658.15747.00619.40448.01376a2.91285,2.91285,0,0,1,.30969.01319A3.6929,3.6929,0,0,0,6.937,16.0185c.25348-.026.50656.034.75879.01358l.03381-.00384A6.10632,6.10632,0,0,1,8.38,16.033l.70633-.04065c.177-.006.35425.01163.53125.00232a1.96084,1.96084,0,0,1,.48554.00394,3.51,3.51,0,0,0,.88083.01318,1.83661,1.83661,0,0,1,.28058.01349c.10745.01.21283-.04276.31976-.02408.22986.04013.45993-.01993.69043.00891a.78885.78885,0,0,0,.12994.00971.16.16,0,0,0,.08353-.03226.12974.12974,0,0,0,.07062-.08447.107.107,0,0,0-.06012-.11857.37635.37635,0,0,0-.194-.04174l-.02-.0004c-.23877-.0137-.47775-.00208-.71665-.00412l-.34774.01468-.81455-.0228-.45734-.0231a9.71453,9.71453,0,0,0-1.40377.01682c-.18738.018-.37574-.01181-.56259.01928a3.15165,3.15165,0,0,1-.59867-.03293,2.75156,2.75156,0,0,0-.60977.02683,2.56074,2.56074,0,0,1-.56811.01981,4.31692,4.31692,0,0,1-.57258-.0232l-.04663-.01968a.56428.56428,0,0,0,.01255-.16663l.00274-.65613c.007-.26718-.0032-.53411-.01745-.80127a2.98175,2.98175,0,0,1,.007-.34124c.00827-.13266-.01542-.2659-.00443-.39939.01556-.18945.01028-.37921.01294-.56881l.00116-.28638.00931-.27194c-.00132-.08859-.037-.17707-.03394-.26538l.03955-.394a1.42856,1.42856,0,0,0-.037-.25585.87011.87011,0,0,1,.02386-.24308,1.05693,1.05693,0,0,0-.0054-.45974l-.04563-.16922a1.11312,1.11312,0,0,1,.01267-.35251c.022-.188-.00958-.389.027-.57694.01825-.13141.01443-.07532.01147-.11834a.07616.07616,0,0,1,.03208-.00019c.06485.00766.26229.03964.38687.04169.14291.0021.28543-.03265.42849-.03119l.35065.0029.70505-.04352c.09735-.00394.19641.044.294.0188.13928-.036.278.01312.4179-.00989a1.26239,1.26239,0,0,1,.30265.02182L8.779,9.407C9.00091,9.42561,9.21416,9.35276,9.43361,9.36769Z"/><path class="cls-5" d="M9.69793,10.5707a3.06938,3.06938,0,0,1,.45723.00935.38171.38171,0,0,1,.23789.08292"/><path class="cls-5" d="M7.607,10.50951a3.06938,3.06938,0,0,1,.45723.00935.38183.38183,0,0,1,.23789.08292"/><circle class="cls-6" cx="6.73807" cy="13.20664" r="0.95697"/><circle class="cls-6" cx="11.26193" cy="13.20664" r="0.95697"/><path class="cls-7" d="M7.91947,11.51058a2.954,2.954,0,0,1,.52214.87651"/><path class="cls-7" d="M8.62464,11.53905a.88207.88207,0,0,0-.165.11163,3.94376,3.94376,0,0,0-.64912.599"/><path class="cls-7" d="M9.59979,11.51058a2.954,2.954,0,0,1,.52214.87651"/><path class="cls-7" d="M10.305,11.53905a.88207.88207,0,0,0-.165.11163,3.94376,3.94376,0,0,0-.64912.599"/><path class="cls-7" d="M8.73835,12.89187a.98244.98244,0,0,0-.079.4659.47292.47292,0,0,0,.04332.24605.29751.29751,0,0,0,.26162.13169.43631.43631,0,0,0,.33384-.1787.56528.56528,0,0,0,.10342-.37.51893.51893,0,0,0-.10762-.29647A.32466.32466,0,0,0,8.73835,12.89187Z"/></svg>