<svg id="레이어_1" data-name="레이어 1" xmlns="http://www.w3.org/2000/svg" viewBox="0 0 18 18"><defs><style>.cls-1{fill:#00c55b;}.cls-2{fill:#312e2e;}.cls-3{fill:#008f4e;}.cls-4{fill:#fff;}.cls-5,.cls-6,.cls-7{fill:none;}.cls-5{stroke:#00c9f8;stroke-width:0.34248px;}.cls-5,.cls-6,.cls-7,.cls-8{stroke-linecap:round;stroke-linejoin:round;}.cls-6,.cls-7,.cls-8{stroke:#221e1f;}.cls-6{stroke-width:0.5px;}.cls-7{stroke-width:0.4px;}.cls-8{fill:#221e1f;stroke-width:0.15808px;}.cls-9{fill:#ff94a1;}</style></defs><path class="cls-1" d="M11.83729,7.49876,10.492,6.53084l-.373-5.27828H7.881L7.508,6.53084l-1.34525.96792A1.56374,1.56374,0,0,0,5.444,8.74727V16.7338c0,.383.43156.69355.96391.69355h5.18428c.53235,0,.96389-.31051.96389-.69355V8.74727A1.56374,1.56374,0,0,0,11.83729,7.49876Z"/><path class="cls-2" d="M7.16017,17.572c.149.0065.29815.02451.44714.01807.25751-.0109.51608-.01755.77237-.00568.31253.01444.61874-.09021.93436-.05286.21533.02549.44491.032.66458.0391.29284.00952.58453-.03107.8771-.01322.24121.01444.50827.03867.75147.04038a1.64,1.64,0,0,0,.45566-.04865.78989.78989,0,0,0,.44085-.279.87463.87463,0,0,0,.187-.55112l-.0108-.4728a4.32939,4.32939,0,0,1,.02347-.89853,3.14133,3.14133,0,0,0,.00961-.4928l.00879-.63971a3.36148,3.36148,0,0,0-.01272-.45178,1.51508,1.51508,0,0,1-.00525-.36951,1.8644,1.8644,0,0,0,.02237-.3602l-.0517-.90613c-.02142-.2449.02661-.48666.02853-.72906.001-.12775-.01037-.26288-.00119-.389.01145-.15689-.01141-.31366-.01144-.47055l.01684-.22577c-.00088-.07767-.02423-.15457-.0187-.23239.02136-.30011.0393-.602.04587-.90247a3.78143,3.78143,0,0,0-.06479-.76535,1.68121,1.68121,0,0,0-.58933-.8309c-.03-.03311-.18222-.16128-.25152-.07123-.0441.05677.01638.11484.03384.13861a.96019.96019,0,0,0,.0831.10193,1.45361,1.45361,0,0,1,.40414.74256,2.91935,2.91935,0,0,1,.0495.42184c.0253.29364-.0278.59079-.021.88464.01.43445.01724.86356.00674,1.298l-.00247.25525c.00348.33218-.02945.671-.01526,1.00314.01074.25073.0451.50235.03677.751-.00924.27624.03391.55194-.00265.82983a3.11339,3.11339,0,0,0,.00839.53006,6.34491,6.34491,0,0,1-.00482.63831,9.04084,9.04084,0,0,0-.04077.98513c.00769.15006-.01163.3.00656.44935.0361.21142.06384.33367-.05243.46105a.82448.82448,0,0,1-.39652.2446,2.40243,2.40243,0,0,1-.50647-.00256l-.37048.00092a4.1234,4.1234,0,0,1-.56985-.00379c-.21778-.02212-.44141.02533-.66165.00812-.36435-.0285-.729-.00284-1.0926-.0011a6.015,6.015,0,0,0-.93121.02679,4.41673,4.41673,0,0,1-.69217-.01647,5.379,5.379,0,0,1-1.03412-.00251c-.23657-.0571-.489-.25076-.45575-.47058a2.41773,2.41773,0,0,0-.017-.36944,3.75646,3.75646,0,0,0,.01312-.50681,6.46181,6.46181,0,0,1-.02976-.91418l.00052-.97129c.0004-.08917.00263-.179-.00485-.268a1.7722,1.7722,0,0,1-.01987-.2605c.01923-.30066.015-.60166.05536-.90225.0224-.16678-.02386-.33667-.01694-.50482l.00516-.5214a2.66972,2.66972,0,0,1,.01782-.41183,2.25324,2.25324,0,0,0,.01719-.51844l-.01093-.19207A4.8726,4.8726,0,0,1,5.5893,9.33326c.05793-.32174-.08386-.65909.04194-.92248A1.78094,1.78094,0,0,1,5.99565,7.829a3.45057,3.45057,0,0,1,.5401-.48187q.41889-.25311.82293-.52826l.29679-.20572.05047-.647a2.03584,2.03584,0,0,0-.00387-.27514,1.82882,1.82882,0,0,1,.04-.26685c.00637-.081-.00449-.16153.00485-.24252l.02237-.25333c.01172-.16684.02023-.33395.042-.5a3.34333,3.34333,0,0,0,.037-.52118,2.49346,2.49346,0,0,1,.0285-.41272l.047-.45745c.04785-.328.04788-.63315.095-.96119.01925-.13424.03082-.269.03778-.40411l.00732-.20282c-.00155-.024-.00625-.01456-.00958-.03024.009-.00455-.00555-.00955.03613-.01456l.20932-.01459c.39514-.026.78968.034,1.18289.01358l.05274-.00384a2.18936,2.18936,0,0,1,.43158-.00327.3008.3008,0,0,0-.00314.06351l.01477.21445c.039.36178.07928.735.11816,1.09546l.056.82629a4.759,4.759,0,0,1,.04944.75531,8.50922,8.50922,0,0,0,.08365,1.37067c.01584.14468.01584.29184.01739.43725.003.14612.032.18564.0564.42594a1.585,1.585,0,0,1,.15976.11761c.26742.24185.59363.40259.86847.63586a1.90321,1.90321,0,0,0,.15875.12616.34255.34255,0,0,0,.12454.0499c.03412.007.09394.0285.13867-.00427.06257-.04587.01059-.12448-.00686-.15091a.86977.86977,0,0,0-.22107-.21051L11.55677,7.15c-.29413-.22851-.60336-.43667-.90445-.65585l-.04251-.029-.03991-.37433-.06678-1.26828-.02722-.71277c-.02878-.72912-.07474-1.4573-.171-2.18176-.01511-.11359-.02292-.22791-.02991-.34226l-.03366-.46441-.31161.01272a7.63419,7.63419,0,0,1-.93405-.03289,7.0098,7.0098,0,0,0-.96729.02679l-.24887.01569L7.757,1.60691,7.7256,1.965c-.02878.31509-.03531.60522-.08811.91787-.04263.25232-.06518.50577-.086.75956L7.47663,4.66252c-.03628.415-.05548.83081-.07064,1.24722-.006.17007-.02573.36575-.04361.51834l-.00315.01978-.15738.121c-.07171.05511-.14416.10943-.22049.15848-.24884.15988-.48587.33691-.72738.50741-.118.08524-.24549.17032-.36911.2789a1.8407,1.8407,0,0,0-.31546.33707,1.88,1.88,0,0,0-.18045.41867,1.86354,1.86354,0,0,0-.122.65127,3.40484,3.40484,0,0,0,.03692.39887,2.092,2.092,0,0,1-.02383.379,2.55133,2.55133,0,0,0,.00537.7167l.04562.2638a2.69345,2.69345,0,0,1-.01266.54953c-.022.29306.00958.60635-.027.89938-.02844.22812-.00326.45862-.01129.68793-.00763.21759-.03961.44119-.04169.6614-.00207.22278.03266.445.03119.668l-.00287.54666L5.31019,15.791a3.30255,3.30255,0,0,0-.0188.45835c.05149.23453-.04806.39361.0455.69375a1.03825,1.03825,0,0,0,.34354.44773,1.258,1.258,0,0,0,.42389.18927A7.10565,7.10565,0,0,0,7.16017,17.572Z"/><rect class="cls-3" x="7.52952" y="0.57265" width="2.93561" height="1.35983" rx="0.21137"/><path class="cls-2" d="M8.93516.71736c.02856.0065.05716.02453.08572.01806A.32636.32636,0,0,1,9.169.72975c.05993.01446.11865-.09024.17916-.05289A.3366.3366,0,0,0,9.47563.716c.05615.00952.11206-.03106.16818-.01321a.64892.64892,0,0,0,.14377.04086.40723.40723,0,0,1,.077.027c.02848.00784.05576.01721.08411-.01294.06006-.0639.1207-.04981.18109-.06107.04669-.01025.14178-.02951.13858.02533.00046.02878.012.01212.01929.01975a.04777.04777,0,0,1,.0094.02826c.00012.01339-.00324-.00388.015.03427A.06158.06158,0,0,1,10.3173.875c-.01489.023-.03085.046-.02237.06906.02118.05771.02548.1163.0517.17377.02145.047-.02661.09332-.02854.1398-.001.02451.01038.05042.00119.07458-.01144.0301.01142.06016.01145.09025,0,.01446-.0177.0289-.01685.0433.00089.01489.02423.02963.01871.04456a.75.75,0,0,0-.0459.17306c-.00491.06287.03049.04126.01789.06439-.00763.0026.02124.08625-.02454.09348-.00552.00079-.02246-.006-.02628.106-.00189.0718.02286.08123.0325.0881a.0733.0733,0,0,0,.04392.01575.34.34,0,0,0,.26678-.15046.21793.21793,0,0,0,.024-.15762c-.0235-.0748.02832-.11841.02194-.17889a1.01181,1.01181,0,0,1-.00674-.2489.229.229,0,0,0,.00247-.04895c-.00348-.06369.02948-.12867.01526-.19236-.01074-.04809-.04514-.09634-.03677-.144.00882-.05725-.033-.09631.00168-.1687A.18124.18124,0,0,0,10.55958.599a.74944.74944,0,0,0-.14886-.14148.38065.38065,0,0,0-.15589-.0697.16967.16967,0,0,0-.09534-.007c-.02877.00769-.05752-.01163-.08618.00656-.03665.03085-.07409.05881-.11087.05194C9.92713.43272,9.89183.44355,9.85655.43836,9.82136.43318,9.78626.37767,9.75111.38874c-.02365.00745-.04736-.00357-.071.00092A.15664.15664,0,0,1,9.57081.38587C9.529.36372,9.48616.4112,9.44392.394a.489.489,0,0,0-.2095-.0011c-.05927.0015-.119-.023-.17856.0268C9.0121.45619,8.96739.403,8.92311.40321A1.85127,1.85127,0,0,0,8.7169.45158.15535.15535,0,0,1,8.554.413c-.02463-.02725-.05024.01343-.07538.013-.03241-.00052-.06507-.0355-.0972-.01313a.25465.25465,0,0,1-.17529.02976L8.01988.44215A.11467.11467,0,0,0,7.96849.447c-.01667.00729-.03324.02545-.05.0199a.55029.55029,0,0,1-.173-.05539C7.693.38832,7.63719.4459,7.59065.462a.40228.40228,0,0,0-.13422.10053c-.03427.03125-.03769.07938-.07849.1142a.15349.15349,0,0,0-.03281.146.10738.10738,0,0,0,.011.03684c.033.07095.07986.14227.028.21295-.04541.06192.04975.12378.00916.18555-.03162.04818.00369.09732-.00635.14581-.00995.04791.06787.09512.04779.143A.6337.6337,0,0,0,7.3838,1.743a.3317.3317,0,0,0,.113.25476.142.142,0,0,0,.08615.03092c.03012.00134.04367.04156.07446.04959.02682.007.0545-.00672.07989-.0026a.22434.22434,0,0,0,.05021.00458.3103.3103,0,0,1,.09619.00665A.12776.12776,0,0,0,7.9839,2.087a.096.096,0,0,1,.07934-.00068c.02936.01084.05878.00333.08814.01471.06338.0246.12176.00312.18515.02695a.3514.3514,0,0,0,.23587-.0386c.07577-.026.15143.034.22683.01358l.01011-.00385c.06475-.03216.12976.01379.19442.00473l.21115-.04068c.05292-.00595.1059.01163.15882.00235.04916-.00864.09619-.02765.14514.00394a.32724.32724,0,0,0,.26331.01318.17245.17245,0,0,1,.08389.01349c.03213.01.06363-.04276.09558-.02408.06873.04013.13751-.01993.20639.00891a.0774.0774,0,0,0,.03885.00968c.00848-.00119.01681-.01322.025-.03223a.19146.19146,0,0,0,.02112-.0845.21528.21528,0,0,0-.018-.11853.061.061,0,0,0-.058-.04175l-.006-.00043a1.31938,1.31938,0,0,0-.21423-.00412c-.03467-.001-.06928.01581-.10395.01471-.08154-.00259-.162-.0228-.2435-.0228l-.13671-.0231a.88159.88159,0,0,0-.41965.01679c-.056.018-.11231-.01178-.16818.01928-.05973.03324-.11942-.028-.179-.03292a.26074.26074,0,0,0-.18228.02682.24017.24017,0,0,1-.16983.01984.4469.4469,0,0,1-.17679-.0232.35448.35448,0,0,0-.14642-.03225l-.19617-.00275a1.24779,1.24779,0,0,0-.13534.00238c-.01218-.00253-.01554-.01706-.01246-.028.00425-.01636-.02035-.00422-.00894-.05823a.75464.75464,0,0,0,.01294-.17l.00116-.0856a.72851.72851,0,0,0,.00931-.0813c-.00131-.02649-.03705-.05291-.03394-.07931.00467-.03934.03257-.07846.03955-.11777.00455-.0256-.02575-.051-.037-.07651-.01071-.02438.01153-.04834.02386-.07266A.10613.10613,0,0,0,7.68815.865c-.013-.01688-.03476-.03363-.04562-.0506-.024-.04385-.00074-.04855.01816-.06006.02389-.00805.023-.04864.0574-.02444.01974.0231.00946-.00119.07028.00674A1.08719,1.08719,0,0,0,7.9152.7783c.0427.00208.0853-.03265.12808-.03119A.8478.8478,0,0,0,8.14811.75c.07025-.00629.14054-.03406.21076-.04352.02911-.0039.05871.044.08789.01883.04162-.036.08313.01309.12494-.00989.02929-.01611.06024.01325.09045.02182l.0773.01944C8.8058.77531,8.86955.70243,8.93516.71736Z"/><rect class="cls-4" x="5.43859" y="9.22297" width="7.12281" height="6.63866"/><path class="cls-2" d="M9.4336,9.36769a2.13943,2.13943,0,0,0,.28684.01806,3.59987,3.59987,0,0,1,.49545-.00567c.20047.01443.39691-.09024.59934-.05289a3.30331,3.30331,0,0,0,.42633.03909c.18786.00952.375-.03106.56262-.01321.15423.01468.32712.03821.481.04089.12567.00156.06277.01972.07763.02695l-.00088.00155c-.00733.03592-.01361-.05258.01452.06308a2.36223,2.36223,0,0,1,.06107.60575,1.79,1.79,0,0,1-.02347.57638,1.29673,1.29673,0,0,0-.00961.31614l-.00879.41033a1.38468,1.38468,0,0,0,.01276.28983.62784.62784,0,0,1,.00521.237.776.776,0,0,0-.02237.231l.0517.58124a3.12312,3.12312,0,0,1-.02853.46768c-.001.08194.01037.16864.00119.24954a2.65342,2.65342,0,0,0,.01144.30185c0,.0484-.0177.09668-.01684.14484a1.1816,1.1816,0,0,1,.0187.149c-.02136.19254-.0393.38617-.04589.57892-.00531.15634.03088.31342.02453.46991-.00833.20557.07132.40961.06564.61478-.00076.0274-.00909.14847.103.15173a.0858.0858,0,0,0,.08978-.07306.31553.31553,0,0,0,.02295-.088l.04856-.60883a1.69615,1.69615,0,0,0-.01932-.29809c-.0253-.18839.02783-.379.02106-.56748-.01-.27868-.01725-.554-.00675-.83261l.00247-.16372c-.00351-.21308.02945-.43042.01523-.6435a4.12357,4.12357,0,0,1-.03677-.48175,3.46453,3.46453,0,0,1,.00268-.53232,1.28642,1.28642,0,0,0-.00842-.34,2.61318,2.61318,0,0,1,.00482-.40943,3.73585,3.73585,0,0,0,.04081-.63195,2.64911,2.64911,0,0,0-.00657-.28824,1.25612,1.25612,0,0,1-.05194-.37091L12.69441,9.09l-.074-.00129a2.37307,2.37307,0,0,1-.28094-.03091.56824.56824,0,0,0-.17624-.01871c-.0792.00745-.15845-.00357-.23764.00092A1.69973,1.69973,0,0,1,11.56,9.0362c-.13971-.02215-.28317.02533-.42444.00812a5.42048,5.42048,0,0,0-.70087-.0011,2.4843,2.4843,0,0,0-.59735.0268,1.82363,1.82363,0,0,1-.444-.01648c-.2301.0003-.46005.03976-.68985.04837a1.50552,1.50552,0,0,1-.54489-.03858c-.08237-.02725-.168.01343-.25217.013a1.55,1.55,0,0,0-.32513-.01313,2.66763,2.66763,0,0,1-.5864.02976l-.623-.00052a1.25327,1.25327,0,0,0-.17194.00485.74151.74151,0,0,1-.16711.0199L5.305,9.06184,5.2747,9.05906c-.01535.1716.0263.40939.01971.47226-.0072.11173.00516.22369-.00518.33447A1.10492,1.10492,0,0,1,5.2714,10.13a.93372.93372,0,0,0-.01718.33252,1.06817,1.06817,0,0,0,.01093.12323,2.01616,2.01616,0,0,1,.02807.71241c-.04541.20706.04975.41406.00916.62069a3.67793,3.67793,0,0,0-.00635.4878c-.00995.16027.06787.31817.04779.47845q-.03927.31293-.05185.6264l-.01111.556a.85274.85274,0,0,0,.02326.17588c.01257.05871-.02033.11407-.02106.17254-.00067.0521.01587.10315.01227.1554l-.00449.16312c.00009.10729.00339.21459-.00662.32183a1.37605,1.37605,0,0,0-.00012.33515,1.03385,1.03385,0,0,1,.00064.266l-.00848.36658.15747.00619.40451.01376a2.91262,2.91262,0,0,1,.30966.01319A3.6929,3.6929,0,0,0,6.937,16.0185c.25348-.026.50656.034.75879.01358l.03384-.00384A6.10637,6.10637,0,0,1,8.38,16.033l.7063-.04065c.17707-.006.35425.01163.53125.00232a1.96083,1.96083,0,0,1,.48554.00394,3.51,3.51,0,0,0,.88083.01318,1.83643,1.83643,0,0,1,.28058.01349c.10748.01.21286-.04276.31976-.02408.22986.04013.45993-.01993.69043.00891a.78909.78909,0,0,0,.12994.00971.16.16,0,0,0,.08353-.03226.12966.12966,0,0,0,.07062-.08447.107.107,0,0,0-.06012-.11857.37635.37635,0,0,0-.194-.04174l-.02-.0004c-.23877-.0137-.47778-.00208-.71668-.00412l-.34774.01468-.81455-.0228L9.9484,15.707a9.71407,9.71407,0,0,0-1.40374.01682c-.18741.018-.37574-.01181-.56262.01928a3.15134,3.15134,0,0,1-.59864-.03293,2.75148,2.75148,0,0,0-.60977.02683,2.56114,2.56114,0,0,1-.56815.01981,4.31713,4.31713,0,0,1-.57257-.0232l-.04663-.01968a.56346.56346,0,0,0,.01255-.16663l.00277-.65613c.00693-.26718-.00323-.53411-.01745-.80127a2.97261,2.97261,0,0,1,.007-.34124c.00827-.13266-.01539-.2659-.00443-.39939.01556-.18945.01028-.37921.013-.56881l.00113-.28638.00931-.27194c-.00132-.08859-.037-.17707-.03391-.26538l.03952-.394a1.42856,1.42856,0,0,0-.037-.25585.87123.87123,0,0,1,.02386-.24308,1.05739,1.05739,0,0,0-.00537-.45974l-.04562-.16922a1.11282,1.11282,0,0,1,.01263-.35251c.022-.188-.00955-.389.027-.57694.01822-.13141.01443-.07532.01147-.11834a.07616.07616,0,0,1,.03208-.00019c.06482.00766.26226.03964.38687.04169.14288.0021.2854-.03265.42846-.03119l.35068.0029.705-.04352c.09738-.00394.19644.044.294.0188.13925-.036.278.01312.41787-.00989a1.26264,1.26264,0,0,1,.30268.02182L8.779,9.407C9.0009,9.42561,9.21415,9.35276,9.4336,9.36769Z"/><line class="cls-5" x1="7.99874" y1="12.25458" x2="7.99874" y2="15.31063"/><line class="cls-5" x1="10.00126" y1="12.25458" x2="10.00126" y2="15.31063"/><line class="cls-6" x1="8.8421" y1="13.47759" x2="9.1579" y2="13.47759"/><path class="cls-7" d="M7.4654,11.25616s.67767.12422.94615-.31746"/><path class="cls-7" d="M10.5346,11.25616s-.67767.12422-.94615-.31746"/><circle class="cls-8" cx="8.01127" cy="11.99587" r="0.33125"/><circle class="cls-8" cx="9.98873" cy="11.99587" r="0.33125"/><circle class="cls-9" cx="6.73807" cy="13.20664" r="0.95697"/><circle class="cls-9" cx="11.26193" cy="13.20664" r="0.95697"/></svg>