<svg id="레이어_1" data-name="레이어 1" xmlns="http://www.w3.org/2000/svg" viewBox="0 0 18 18"><defs><style>.cls-1{fill:#00c55b;}.cls-2{fill:#312e2e;}.cls-3{fill:#008f4e;}.cls-4,.cls-6,.cls-7{fill:#fff;}.cls-5{fill:#ff94a1;}.cls-6,.cls-7,.cls-9{stroke:#221e1f;}.cls-6,.cls-7,.cls-8,.cls-9{stroke-linecap:round;stroke-linejoin:round;}.cls-6{stroke-width:0.25px;}.cls-7{stroke-width:0.4px;}.cls-8,.cls-9{fill:none;}.cls-8{stroke:#00c9f8;stroke-width:0.34248px;}.cls-9{stroke-width:0.36235px;}</style></defs><path class="cls-1" d="M11.83729,7.49876,10.492,6.53084l-.373-5.27828H7.881L7.508,6.53084l-1.34525.96792A1.56374,1.56374,0,0,0,5.444,8.74727V16.7338c0,.383.43156.69355.96391.69355h5.18428c.53235,0,.96389-.31051.96389-.69355V8.74727A1.56374,1.56374,0,0,0,11.83729,7.49876Z"/><path class="cls-2" d="M7.16019,17.572c.149.0065.29812.02451.44711.01807.25751-.0109.51608-.01755.77237-.00568.31253.01444.61874-.09021.93436-.05286.21533.02549.44494.032.66458.0391.29287.00952.58456-.03107.87713-.01322.24118.01444.50827.03867.75144.04038a1.64023,1.64023,0,0,0,.45569-.04865.79009.79009,0,0,0,.44085-.279.8746.8746,0,0,0,.187-.55112l-.01077-.4728a4.32732,4.32732,0,0,1,.02347-.89853,3.14133,3.14133,0,0,0,.00958-.4928l.00879-.63971a3.35159,3.35159,0,0,0-.01272-.45178,1.51658,1.51658,0,0,1-.00525-.36951,1.862,1.862,0,0,0,.02237-.3602c-.01755-.30786-.03357-.58884-.0517-.90613-.02142-.2449.02661-.48666.02853-.72906.001-.12775-.01037-.26288-.00116-.389.01142-.15689-.01141-.31366-.01144-.47055l.01681-.22577c-.00088-.07767-.02423-.15457-.01867-.23239.02133-.30011.03927-.602.04587-.90247a3.78143,3.78143,0,0,0-.06479-.76535,1.68107,1.68107,0,0,0-.58936-.8309c-.03-.03311-.18219-.16128-.25152-.07123-.04407.05677.01638.11484.03384.13861a.96019.96019,0,0,0,.0831.10193,1.45361,1.45361,0,0,1,.40414.74256,2.91514,2.91514,0,0,1,.0495.42184c.02533.29364-.02777.59079-.021.88464.01.43445.01724.86356.00674,1.298l-.00247.25525c.00351.33218-.02945.671-.01523,1.00314.01071.25073.0451.50235.03677.751-.00927.27624.03391.55194-.00268.82983a3.11652,3.11652,0,0,0,.00842.53006,6.36271,6.36271,0,0,1-.00482.63831,9.0333,9.0333,0,0,0-.04077.98513c.00769.15006-.01163.3.00653.44935.0361.21142.06387.33367-.05243.46105a.82434.82434,0,0,1-.39652.2446,2.40244,2.40244,0,0,1-.50647-.00256l-.37048.00092a4.123,4.123,0,0,1-.56982-.00379c-.21778-.02212-.44144.02533-.66169.00812-.36431-.0285-.729-.00284-1.09259-.0011a6.01516,6.01516,0,0,0-.93121.02679,4.41643,4.41643,0,0,1-.69214-.01647,5.379,5.379,0,0,1-1.03412-.00251c-.2366-.0571-.48907-.25076-.45575-.47058a2.41318,2.41318,0,0,0-.01706-.36944,3.74991,3.74991,0,0,0,.01313-.50681,6.46181,6.46181,0,0,1-.02976-.91418l.00055-.97129c.00037-.08917.0026-.179-.00488-.268a1.77632,1.77632,0,0,1-.01987-.2605c.01923-.30066.015-.60166.05536-.90225.0224-.16678-.02386-.33667-.01694-.50482l.00519-.5214a2.66467,2.66467,0,0,1,.01779-.41183,2.25325,2.25325,0,0,0,.01722-.51844l-.011-.19207a4.8726,4.8726,0,0,1-.02805-1.11057c.058-.32174-.08383-.65909.04194-.92248A1.78036,1.78036,0,0,1,5.99567,7.829a3.44851,3.44851,0,0,1,.54007-.48187q.41894-.25311.82293-.52826l.29679-.20572.0505-.647a2.04076,2.04076,0,0,0-.00387-.27514A1.83008,1.83008,0,0,1,7.742,5.42408c.00638-.081-.00448-.16153.00486-.24252l.02237-.25333c.01172-.16684.02023-.33395.042-.5a3.347,3.347,0,0,0,.03693-.52118,2.49671,2.49671,0,0,1,.0285-.41272l.04706-.45745c.04782-.328.04788-.63315.09494-.96119.01925-.13424.03082-.269.03778-.40411l.00732-.20282c-.00155-.024-.00625-.01456-.00955-.03024.009-.00455-.00558-.00955.0361-.01456l.20932-.01459c.39514-.026.78968.034,1.18289.01358l.05274-.00384a2.18936,2.18936,0,0,1,.43158-.00327.30568.30568,0,0,0-.00315.06351l.01478.21445.11816,1.09546.05606.82629a4.759,4.759,0,0,1,.04941.75531,8.51266,8.51266,0,0,0,.08365,1.37067c.01587.14468.01584.29184.01739.43725.003.14612.032.18564.0564.42594a1.58153,1.58153,0,0,1,.15976.11761c.26742.24185.59363.40259.86847.63586a1.90321,1.90321,0,0,0,.15875.12616.34276.34276,0,0,0,.12454.0499c.03412.007.094.0285.13867-.00427.06256-.04587.01059-.12448-.00683-.15091a.86988.86988,0,0,0-.2211-.21051L11.55679,7.15c-.29416-.22851-.60336-.43667-.90448-.65585l-.04251-.029-.03991-.37433-.06678-1.26828-.02722-.71277c-.02875-.72912-.07471-1.4573-.171-2.18176-.01511-.11359-.02289-.22791-.02988-.34226l-.03369-.46441-.31158.01272a7.63447,7.63447,0,0,1-.93408-.03289,7.0098,7.0098,0,0,0-.96729.02679l-.24887.01569L7.757,1.60691,7.72559,1.965c-.02878.31509-.03531.60522-.08811.91787-.04263.25232-.06518.50577-.086.75956L7.47662,4.66252c-.03625.415-.05548.83081-.07064,1.24722-.006.17007-.02573.36575-.04361.51834l-.00315.01978-.15738.121c-.07168.05511-.14413.10943-.22049.15848-.24884.15988-.48584.33691-.72735.50741-.118.08524-.24552.17032-.36914.2789a1.8407,1.8407,0,0,0-.31546.33707,1.88,1.88,0,0,0-.18045.41867,1.86423,1.86423,0,0,0-.122.65127,3.41131,3.41131,0,0,0,.03692.39887,2.092,2.092,0,0,1-.02383.379,2.55133,2.55133,0,0,0,.00537.7167l.04562.2638a2.69344,2.69344,0,0,1-.01263.54953c-.022.29306.00955.60635-.027.89938-.02844.22812-.00323.45862-.01129.68793-.00763.21759-.03961.44119-.04166.6614-.0021.22278.03263.445.03119.668l-.0029.54666L5.31021,15.791a3.29793,3.29793,0,0,0-.01883.45835c.05148.23453-.04806.39361.0455.69375a1.03871,1.03871,0,0,0,.34354.44773,1.25822,1.25822,0,0,0,.42389.18927A7.10606,7.10606,0,0,0,7.16019,17.572Z"/><rect class="cls-3" x="7.52952" y="0.57265" width="2.93561" height="1.35983" rx="0.21137"/><path class="cls-2" d="M8.93515.71736c.02856.0065.05716.02453.08575.01806A.32635.32635,0,0,1,9.169.72975c.05993.01446.11865-.09024.17916-.05289A.33646.33646,0,0,0,9.47562.716c.05615.00952.11209-.03106.16818-.01321a.64938.64938,0,0,0,.14377.04086.40723.40723,0,0,1,.077.027c.02848.00784.05579.01721.08414-.01294.06006-.0639.1207-.04981.18106-.06107.04669-.01025.14182-.02951.13861.02533.00043.02878.012.01212.01926.01975A.04782.04782,0,0,1,10.297.76991c.00009.01339-.00324-.00388.015.03427A.06163.06163,0,0,1,10.31732.875c-.01489.023-.03088.046-.0224.06906.02118.05771.02548.1163.05173.17377.02142.047-.02661.09332-.02854.1398-.001.02451.01038.05042.00116.07458-.01144.0301.01142.06016.01145.09025,0,.01446-.0177.0289-.01685.0433.00089.01489.02426.02963.01871.04456a.74994.74994,0,0,0-.04587.17306c-.00494.06287.03046.04126.01786.06439-.0076.0026.02124.08625-.02451.09348-.00555.00079-.02246-.006-.02628.106-.00192.0718.02286.08123.03247.0881a.07339.07339,0,0,0,.04395.01575.34.34,0,0,0,.26678-.15046.21792.21792,0,0,0,.024-.15762c-.0235-.0748.02832-.11841.02194-.17889a1.0118,1.0118,0,0,1-.00671-.2489.233.233,0,0,0,.00247-.04895c-.00351-.06369.02945-.12867.01523-.19236-.01071-.04809-.04511-.09634-.03677-.144.00882-.05725-.033-.09631.00171-.1687A.18134.18134,0,0,0,10.55957.599a.74782.74782,0,0,0-.14886-.14148.38047.38047,0,0,0-.15589-.0697.16967.16967,0,0,0-.09534-.007c-.02877.00769-.05752-.01163-.08615.00656-.03668.03085-.07409.05881-.1109.05194C9.92715.43272,9.89185.44355,9.85654.43836,9.82135.43318,9.78625.37767,9.75113.38874c-.02368.00745-.04736-.00357-.071.00092A.15664.15664,0,0,1,9.5708.38587C9.52905.36372,9.48614.4112,9.44394.394a.48917.48917,0,0,0-.20953-.0011c-.05927.0015-.11893-.023-.17856.0268C9.01212.45619,8.96741.403,8.92313.40321a1.85177,1.85177,0,0,0-.20624.04837A.15529.15529,0,0,1,8.554.413c-.02463-.02725-.05024.01343-.07541.013C8.4462.42552,8.41354.39054,8.38144.41291a.25475.25475,0,0,1-.17532.02976L8.01987.44215A.11466.11466,0,0,0,7.96848.447c-.01667.00729-.03324.02545-.05.0199a.55053.55053,0,0,1-.173-.05539C7.693.38832,7.63721.4459,7.59067.462a.40209.40209,0,0,0-.13425.10053c-.03424.03125-.03766.07938-.07849.1142a.15357.15357,0,0,0-.03281.146.10738.10738,0,0,0,.011.03684c.033.07095.07986.14227.028.21295-.04538.06192.04978.12378.00919.18555-.03162.04818.00366.09732-.00638.14581-.00992.04791.0679.09512.04779.143a.63285.63285,0,0,0-.0509.19614.33158.33158,0,0,0,.113.25476.14207.14207,0,0,0,.08618.03092c.03009.00134.04364.04156.07443.04959.02682.007.0545-.00672.07989-.0026a.22449.22449,0,0,0,.05021.00458.31056.31056,0,0,1,.09622.00665.12776.12776,0,0,0,.10019.00013.0959.0959,0,0,1,.07931-.00068c.02936.01084.05878.00333.08814.01471.06338.0246.12176.00312.18515.02695a.35138.35138,0,0,0,.23587-.0386c.07577-.026.15143.034.22683.01358l.01014-.00385c.06472-.03216.12973.01379.19442.00473l.21112-.04068c.05295-.00595.10593.01163.15882.00235.04916-.00864.09619-.02765.14517.00394a.32724.32724,0,0,0,.26331.01318.17234.17234,0,0,1,.08386.01349c.03213.01.06363-.04276.09558-.02408.06872.04013.13751-.01993.20642.00891a.07729.07729,0,0,0,.03882.00968c.00848-.00119.01684-.01322.025-.03223a.19117.19117,0,0,0,.02109-.0845.21541.21541,0,0,0-.01794-.11853.061.061,0,0,0-.058-.04175l-.006-.00043a1.31968,1.31968,0,0,0-.21426-.00412c-.03464-.001-.06928.01581-.10395.01471-.08151-.00259-.162-.0228-.2435-.0228l-.13671-.0231a.88147.88147,0,0,0-.41962.01679c-.056.018-.11234-.01178-.16821.01928-.05973.03324-.11939-.028-.179-.03292a.26076.26076,0,0,0-.18228.02682.24015.24015,0,0,1-.16983.01984.44669.44669,0,0,1-.17676-.0232.35472.35472,0,0,0-.14645-.03225l-.19614-.00275a1.249,1.249,0,0,0-.13538.00238c-.01217-.00253-.01553-.01706-.01245-.028.00425-.01636-.02035-.00422-.00894-.05823a.75641.75641,0,0,0,.013-.17l.00113-.0856a.7215.7215,0,0,0,.00931-.0813c-.00131-.02649-.037-.05291-.03391-.07931.00464-.03934.03254-.07846.03952-.11777.00455-.0256-.02575-.051-.037-.07651-.01071-.02438.01153-.04834.02386-.07266A.10616.10616,0,0,0,7.68817.865C7.67511.84809,7.65341.83134,7.64252.81437c-.024-.04385-.00074-.04855.01819-.06006.02389-.00805.023-.04864.05737-.02444.01974.0231.00949-.00119.07028.00674A1.08719,1.08719,0,0,0,7.91519.7783c.04273.00208.08533-.03265.12808-.03119A.8478.8478,0,0,0,8.1481.75c.07028-.00629.14054-.03406.21076-.04352.02911-.0039.05871.044.08789.01883.04165-.036.08313.01309.12494-.00989C8.601.69929,8.632.72865,8.66217.73722l.0773.01944C8.80579.77531,8.86954.70243,8.93515.71736Z"/><rect class="cls-4" x="5.43859" y="9.22297" width="7.12281" height="6.63866"/><path class="cls-2" d="M9.43362,9.36769a2.139,2.139,0,0,0,.28681.01806,3.59987,3.59987,0,0,1,.49545-.00567c.20047.01443.39691-.09024.59937-.05289a3.30236,3.30236,0,0,0,.4263.03909c.18786.00952.375-.03106.56265-.01321.15423.01468.32712.03821.481.04089.12567.00156.06274.01972.0776.02695l-.00085.00155c-.00733.03592-.01361-.05258.01452.06308a2.36353,2.36353,0,0,1,.061.60575,1.78918,1.78918,0,0,1-.02347.57638,1.29673,1.29673,0,0,0-.00961.31614l-.00879.41033a1.386,1.386,0,0,0,.01276.28983.62784.62784,0,0,1,.00524.237.77507.77507,0,0,0-.0224.231l.05173.58124a3.13109,3.13109,0,0,1-.02853.46768c-.001.08194.01037.16864.00116.24954a2.65342,2.65342,0,0,0,.01144.30185c0,.0484-.0177.09668-.01684.14484a1.17069,1.17069,0,0,1,.0187.149c-.02133.19254-.0393.38617-.04586.57892-.00535.15634.03085.31342.0245.46991-.00833.20557.07132.40961.06564.61478-.00076.0274-.00909.14847.103.15173a.0858.0858,0,0,0,.08978-.07306.31451.31451,0,0,0,.02295-.088l.04856-.60883a1.699,1.699,0,0,0-.01929-.29809c-.02533-.18839.0278-.379.021-.56748-.01-.27868-.01725-.554-.00675-.83261l.00247-.16372c-.00347-.21308.02945-.43042.01526-.6435a4.11057,4.11057,0,0,1-.03677-.48175,3.46073,3.46073,0,0,1,.00265-.53232,1.28513,1.28513,0,0,0-.00839-.34,2.61318,2.61318,0,0,1,.00479-.40943,3.73585,3.73585,0,0,0,.04081-.63195,2.64155,2.64155,0,0,0-.00657-.28824,1.25809,1.25809,0,0,1-.05194-.37091L12.69443,9.09l-.07407-.00129a2.37186,2.37186,0,0,1-.28091-.03091.56843.56843,0,0,0-.17627-.01871c-.0792.00745-.15842-.00357-.23764.00092A1.69977,1.69977,0,0,1,11.56,9.0362c-.13968-.02215-.28314.02533-.42444.00812a5.42048,5.42048,0,0,0-.70087-.0011,2.48436,2.48436,0,0,0-.59735.0268,1.82333,1.82333,0,0,1-.444-.01648c-.2301.0003-.46008.03976-.68985.04837a1.50542,1.50542,0,0,1-.54489-.03858c-.0824-.02725-.168.01343-.2522.013a1.54979,1.54979,0,0,0-.3251-.01313A2.6679,2.6679,0,0,1,6.9949,9.093l-.623-.00052a1.2537,1.2537,0,0,0-.172.00485.74132.74132,0,0,1-.16708.0199L5.305,9.06184l-.03036-.00278c-.01532.1716.0263.40939.01971.47226-.00717.11173.00519.22369-.00519.33447a1.10281,1.10281,0,0,1-.01779.26419.933.933,0,0,0-.01721.33252,1.06161,1.06161,0,0,0,.011.12323,2.01686,2.01686,0,0,1,.028.71241c-.04541.20706.04975.41406.00919.62069a3.67283,3.67283,0,0,0-.00638.4878c-.00992.16027.06787.31817.04779.47845q-.03923.31293-.05185.6264l-.01111.556a.85274.85274,0,0,0,.02326.17588c.01257.05871-.02033.11407-.02106.17254-.00064.0521.01587.10315.01227.1554l-.00446.16312c.00006.10729.00336.21459-.00665.32183a1.37755,1.37755,0,0,0-.00012.33515,1.03519,1.03519,0,0,1,.00067.266l-.00848.36658.15744.00619.40451.01376a2.91229,2.91229,0,0,1,.30966.01319A3.69318,3.69318,0,0,0,6.937,16.0185c.25345-.026.50653.034.75879.01358l.03381-.00384A6.10632,6.10632,0,0,1,8.38,16.033l.7063-.04065c.17707-.006.35428.01163.53125.00232a1.96107,1.96107,0,0,1,.48557.00394,3.50975,3.50975,0,0,0,.8808.01318,1.83643,1.83643,0,0,1,.28058.01349c.10748.01.21286-.04276.31979-.02408.22986.04013.45993-.01993.69043.00891a.78873.78873,0,0,0,.12991.00971.16.16,0,0,0,.08356-.03226.12963.12963,0,0,0,.07059-.08447.107.107,0,0,0-.06009-.11857.3764.3764,0,0,0-.194-.04174l-.02-.0004c-.23877-.0137-.47775-.00208-.71668-.00412l-.34771.01468-.81458-.0228-.4573-.0231a9.7146,9.7146,0,0,0-1.40378.01682c-.18738.018-.37574-.01181-.56263.01928a3.15142,3.15142,0,0,1-.59863-.03293,2.75156,2.75156,0,0,0-.60977.02683,2.56114,2.56114,0,0,1-.56815.01981,4.31645,4.31645,0,0,1-.57254-.0232l-.04666-.01968a.56346.56346,0,0,0,.01255-.16663l.00277-.65613c.00693-.26718-.0032-.53411-.01745-.80127a2.97265,2.97265,0,0,1,.007-.34124c.00823-.13266-.01542-.2659-.00446-.39939.01559-.18945.01031-.37921.013-.56881l.00116-.28638.00931-.27194c-.00135-.08859-.037-.17707-.03394-.26538l.03952-.394a1.42849,1.42849,0,0,0-.03692-.25585.87008.87008,0,0,1,.02383-.24308,1.05693,1.05693,0,0,0-.00537-.45974l-.04563-.16922a1.11311,1.11311,0,0,1,.01264-.35251c.022-.188-.00955-.389.027-.57694.01822-.13141.01443-.07532.01147-.11834a.07616.07616,0,0,1,.03208-.00019c.06482.00766.26229.03964.38687.04169.14291.0021.2854-.03265.42846-.03119l.35068.0029.70505-.04352c.09735-.00394.19641.044.294.0188.13925-.036.278.01312.4179-.00989a1.26239,1.26239,0,0,1,.30265.02182L8.779,9.407C9.00092,9.42561,9.21414,9.35276,9.43362,9.36769Z"/><circle class="cls-5" cx="6.73807" cy="13.20664" r="0.95697"/><circle class="cls-5" cx="11.26193" cy="13.20664" r="0.95697"/><path class="cls-6" d="M10.73954,11.65489a.53135.53135,0,0,0-.12228-.388.44818.44818,0,0,0-.137-.07684,1.0787,1.0787,0,0,0-.6232-.06879.67572.67572,0,0,0-.48137.37829.95824.95824,0,0,0-.02967.5109.88142.88142,0,0,0,.13333.38983,1.02191,1.02191,0,0,0,.42225.29172.99416.99416,0,0,0,.75293.12754.56461.56461,0,0,0,.324-.3662.77259.77259,0,0,0-.03062-.49618.50448.50448,0,0,0-.11953-.19,1.01828,1.01828,0,0,0-.58061-.23677c-.40356-.0302-.42552.08086-.43884.11252a.59116.59116,0,0,0,.03021.513c.12615.19908.44242.17811.66692.10112a.34263.34263,0,0,0-.247-.33278"/><path class="cls-6" d="M7.96774,11.32816a.53141.53141,0,0,0-.37521-.15728.44822.44822,0,0,0-.14712.05493,1.07879,1.07879,0,0,0-.455.43132.67574.67574,0,0,0-.02213.61184.95825.95825,0,0,0,.37087.35263.88149.88149,0,0,0,.38372.15,1.022,1.022,0,0,0,.49544-.13393.99417.99417,0,0,0,.58369-.49243.56462.56462,0,0,0-.07028-.48388.77251.77251,0,0,0-.39857-.29711.50435.50435,0,0,0-.22229-.0315,1.01823,1.01823,0,0,0-.55577.29031c-.28372.28858-.21311.37708-.19755.40771a.59122.59122,0,0,0,.41112.30826c.23347.03228.42174-.22271.508-.44382a.34264.34264,0,0,0-.41362-.02636"/><path class="cls-7" d="M9.6959,10.52923a3.06786,3.06786,0,0,1,.457-.01785.38172.38172,0,0,1,.24239.06863"/><path class="cls-7" d="M7.605,10.59246a3.06907,3.06907,0,0,1,.457-.01784.38171.38171,0,0,1,.24239.06862"/><line class="cls-8" x1="9.65748" y1="13.88637" x2="9.65748" y2="16.46709"/><path class="cls-9" d="M8.21814,13.119l1.0829-.00852a.71532.71532,0,0,1,.18127.014.35787.35787,0,0,1,.09716.04056.19234.19234,0,0,1,.06207.05539.22441.22441,0,0,1,.02971.08313.84489.84489,0,0,1-.10951.67034,2.71153,2.71153,0,0,1-.275.35634c-.115.0967-.34291.03409-.4836-.01872-.23482-.08815-.2951-.257-.42494-.47156a1.13932,1.13932,0,0,1-.1546-.72227"/></svg>