<svg id="레이어_1" data-name="레이어 1" xmlns="http://www.w3.org/2000/svg" viewBox="0 0 18 18"><defs><style>.cls-1{fill:#00c55b;}.cls-2{fill:#312e2e;}.cls-3{fill:#008f4e;}.cls-4{fill:#fff;}</style></defs><path class="cls-1" d="M11.83729,7.49876,10.492,6.53084l-.373-5.27828H7.881L7.508,6.53084l-1.34525.96792A1.56374,1.56374,0,0,0,5.444,8.74727V16.7338c0,.383.43156.69355.96391.69355h5.18428c.53235,0,.96389-.31051.96389-.69355V8.74727A1.56374,1.56374,0,0,0,11.83729,7.49876Z"/><path class="cls-2" d="M7.16017,17.572c.149.0065.29816.02454.44715.01807.25749-.01087.51608-.01752.77235-.00568.31253.01447.61875-.09018.93436-.05286.21533.02549.44493.032.6646.0391.29284.00952.58453-.03107.8771-.01322.2412.01447.50827.0387.75145.04038a1.63892,1.63892,0,0,0,.45567-.04865.78979.78979,0,0,0,.44086-.279.8745.8745,0,0,0,.187-.55112l-.01079-.47277a4.32893,4.32893,0,0,1,.02347-.89856,3.14254,3.14254,0,0,0,.00961-.4928l.00879-.63968a3.36212,3.36212,0,0,0-.01274-.45181,1.51658,1.51658,0,0,1-.00525-.36951,1.86281,1.86281,0,0,0,.02237-.3602l-.05168-.90613c-.02143-.24487.02659-.48663.02852-.729.001-.12778-.01038-.26291-.00118-.389.01143-.15692-.01141-.31369-.01144-.47058l.01684-.22577c-.0009-.07764-.02424-.15454-.0187-.23236.02134-.30014.0393-.602.04586-.9025a3.78025,3.78025,0,0,0-.06479-.76532,1.68077,1.68077,0,0,0-.58934-.8309c-.03-.03311-.1822-.16131-.25152-.07123-.04408.05677.01639.11481.03384.13858a.96143.96143,0,0,0,.0831.10193,1.45387,1.45387,0,0,1,.40416.74256,2.91935,2.91935,0,0,1,.0495.42184c.0253.29364-.0278.59079-.021.88467.01.43445.01723.86353.00672,1.298l-.00246.25522c.0035.33218-.02945.671-.01524,1.00317.01073.2507.0451.50232.03677.751-.00926.27627.03391.552-.00267.82983a3.11583,3.11583,0,0,0,.00841.53009,6.34438,6.34438,0,0,1-.00482.63828,9.03581,9.03581,0,0,0-.04077.98513c.00769.15006-.01163.3.00654.44935.0361.21142.06386.33367-.05241.46105a.82473.82473,0,0,1-.39653.24463,2.40254,2.40254,0,0,1-.50647-.00259l-.37049.00095a4.12781,4.12781,0,0,1-.56983-.00379c-.21778-.02215-.44143.0253-.66167.00809-.36434-.02847-.729-.00284-1.09259-.0011a6.01522,6.01522,0,0,0-.93122.02679,4.41653,4.41653,0,0,1-.69215-.01647,5.37659,5.37659,0,0,1-1.03412-.00251c-.23659-.0571-.48906-.25073-.45575-.47058a2.41545,2.41545,0,0,0-.017-.36944,3.75305,3.75305,0,0,0,.01312-.50681,6.45881,6.45881,0,0,1-.02974-.91418l.00052-.97126c.00038-.0892.00262-.179-.00485-.26806a1.76948,1.76948,0,0,1-.01988-.2605c.01922-.30066.015-.60166.05535-.90222.0224-.16681-.02386-.3367-.01693-.50482l.00517-.52143a2.66611,2.66611,0,0,1,.01781-.41183,2.25291,2.25291,0,0,0,.01719-.5184l-.01094-.19211a4.872,4.872,0,0,1-.028-1.11057c.05794-.32171-.08385-.65909.04193-.92245A1.7811,1.7811,0,0,1,5.99565,7.829a3.45,3.45,0,0,1,.54009-.48187q.41892-.25311.82294-.52826l.29678-.20569L7.706,5.96606A2.03861,2.03861,0,0,0,7.70208,5.691a1.8292,1.8292,0,0,1,.04-.26688c.00637-.08093-.0045-.16153.00484-.24252l.02237-.25333c.01173-.16684.02023-.33395.042-.5a3.34294,3.34294,0,0,0,.03694-.52115,2.49729,2.49729,0,0,1,.0285-.41275l.047-.45742c.04783-.328.04788-.63315.09494-.96122.01925-.13424.03085-.269.03779-.40408l.00733-.20282c-.00156-.024-.00625-.01459-.00957-.03024.009-.00458-.00557-.00958.03612-.01456l.20933-.01462c.39513-.026.78966.034,1.18288.01358l.05273-.00384a2.18931,2.18931,0,0,1,.43158-.00327.3039.3039,0,0,0-.00314.06351l.01477.21445.11816,1.09549.05605.82629a4.75625,4.75625,0,0,1,.04942.75528,8.5113,8.5113,0,0,0,.08365,1.37067c.01585.14471.01585.29187.0174.43725.003.14615.032.18564.05639.42594a1.58235,1.58235,0,0,1,.15975.11761c.26744.24185.59364.40262.86848.63586a1.88957,1.88957,0,0,0,.15877.12616.34135.34135,0,0,0,.12454.0499c.0341.007.09393.02853.13866-.00427.06256-.04587.01059-.12445-.00685-.15091a.86972.86972,0,0,0-.22109-.21048L11.55678,7.15c-.29414-.22851-.60336-.43667-.90446-.65585l-.04251-.029-.03991-.3743-.06678-1.26828-.02723-.7128c-.02876-.72909-.07472-1.4573-.171-2.18173-.01509-.11359-.0229-.22794-.02989-.34229l-.03367-.46441-.3116.01272a7.63437,7.63437,0,0,1-.93407-.03289,7.0098,7.0098,0,0,0-.96729.02679l-.24887.01569L7.757,1.6069,7.72559,1.965c-.02878.31512-.03531.60522-.08812.9179-.0426.25229-.06519.50574-.086.75953L7.47664,4.66254c-.03628.415-.05549.83081-.07065,1.24719-.006.1701-.02572.36575-.04362.51834l-.00314.01981-.15738.121c-.0717.05511-.14415.10946-.22048.15851-.24885.15988-.48587.33691-.72738.50738-.118.08524-.2455.17032-.36913.2789a1.84139,1.84139,0,0,0-.31546.33707,1.88051,1.88051,0,0,0-.18045.4187,1.8641,1.8641,0,0,0-.122.65127,3.40438,3.40438,0,0,0,.03694.39884,2.09276,2.09276,0,0,1-.02385.379,2.55207,2.55207,0,0,0,.00537.7167l.04561.2638a2.69272,2.69272,0,0,1-.01263.54953c-.022.29309.00956.60635-.027.89941-.02844.22809-.00325.45859-.01129.6879-.00763.21759-.03961.44119-.04167.6614-.00207.22278.03266.445.03119.668l-.00288.54666L5.3102,15.791a3.29887,3.29887,0,0,0-.01881.45834c.05148.2345-.04807.39361.0455.69375a1.03809,1.03809,0,0,0,.34355.4477,1.25787,1.25787,0,0,0,.42387.18927A7.10171,7.10171,0,0,0,7.16017,17.572Z"/><rect class="cls-3" x="7.52952" y="0.57265" width="2.93561" height="1.35983" rx="0.21137"/><path class="cls-2" d="M8.93515.71735c.02857.0065.05718.02453.08574.01809A.32675.32675,0,0,1,9.169.72974c.05994.01446.11866-.09021.17917-.05286A.33635.33635,0,0,0,9.4756.716c.05617.00952.1121-.03106.1682-.01321a.64919.64919,0,0,0,.14379.04089.40578.40578,0,0,1,.077.02695c.02847.00781.05577.01721.08412-.013.06006-.06387.12069-.04981.18107-.06107.0467-.01022.1418-.02951.1386.02533.00044.02878.012.01212.01927.01975A.0478.0478,0,0,1,10.297.7699c.0001.01339-.00324-.00388.015.03427A.06161.06161,0,0,1,10.31731.875c-.01489.023-.03087.046-.02238.06909.02117.05768.02548.11627.05171.17374.02144.047-.02661.09332-.02854.1398-.001.02451.01038.05041.00118.07462-.01145.03009.01141.06015.01144.09024,0,.01443-.0177.0289-.01684.04327.0009.01489.02424.02963.0187.04456a.75048.75048,0,0,0-.04588.17306c-.00493.06287.03047.04126.01787.06442-.00762.00257.02124.08625-.02452.09348-.00553.00076-.02246-.006-.02628.10593-.00191.0718.02286.08126.03249.08813a.07346.07346,0,0,0,.04393.01572.33993.33993,0,0,0,.26678-.15046.218.218,0,0,0,.024-.15762c-.02349-.0748.02832-.11841.02194-.17889a1.0118,1.0118,0,0,1-.00673-.2489.23031.23031,0,0,0,.00247-.049c-.00349-.06369.02945-.12867.01524-.19236-.01072-.04806-.04512-.09631-.03677-.144.00882-.05725-.033-.09628.00169-.16867A.18119.18119,0,0,0,10.55956.599a.74655.74655,0,0,0-.14884-.14148.38014.38014,0,0,0-.15591-.06973.16923.16923,0,0,0-.09532-.007c-.02878.00769-.05753-.01163-.08617.00653-.03667.03088-.07409.05881-.11088.052-.0353-.00659-.07061.00424-.1059-.001C9.82134.4332,9.78626.37769,9.75112.38873c-.02367.00748-.04737-.00357-.071.001A.15678.15678,0,0,1,9.5708.38589C9.529.36374,9.48616.41122,9.44393.394a.48959.48959,0,0,0-.20952-.0011c-.05927.0015-.11894-.023-.17856.02683C9.0121.45621,8.9674.403,8.92311.40323A1.8392,1.8392,0,0,0,8.71689.4516.15534.15534,0,0,1,8.554.413c-.02462-.02725-.05023.01346-.07539.013C8.4462.42551,8.41356.39053,8.38143.4129a.25468.25468,0,0,1-.1753.02976L8.01989.44214A.11516.11516,0,0,0,7.96848.447c-.01666.00729-.03323.02548-.05.0199a.54954.54954,0,0,1-.173-.05539C7.693.38831,7.6372.44592,7.59066.46194a.40275.40275,0,0,0-.13424.10053c-.03425.03125-.03767.07941-.07849.11423a.15342.15342,0,0,0-.0328.14593.10736.10736,0,0,0,.01094.03684c.033.071.07989.1423.02806.21295-.0454.06192.04976.12381.00917.18558-.03162.04815.00369.09729-.00636.14581-.00994.04791.06788.09509.04779.143a.63314.63314,0,0,0-.05092.19614.33164.33164,0,0,0,.113.25476.142.142,0,0,0,.08617.03095c.0301.00131.04365.04156.07444.04959.02683.007.05451-.00672.0799-.0026a.228.228,0,0,0,.0502.00458.30864.30864,0,0,1,.09621.00665.12776.12776,0,0,0,.10019.0001.09583.09583,0,0,1,.07933-.00065c.02935.01081.05879.0033.08813.01468.06339.0246.12177.00315.18515.02695a.35145.35145,0,0,0,.23589-.0386c.07576-.026.15142.034.22682.01358l.01011-.00385c.06475-.03216.12975.01379.19443.00473l.21115-.04065c.05292-.00595.1059.01163.15882.00232.04915-.00864.09617-.02765.14514.00394a.32722.32722,0,0,0,.2633.01318.17275.17275,0,0,1,.08388.01349c.03214.01.06363-.04276.0956-.02408.06871.04013.13748-.01993.20639.00891a.07771.07771,0,0,0,.03885.00971c.00847-.00119.01681-.01325.025-.03226a.19123.19123,0,0,0,.0211-.08447.21528.21528,0,0,0-.018-.11856.061.061,0,0,0-.058-.04175l-.006-.0004a1.316,1.316,0,0,0-.21423-.00412c-.03467-.001-.06928.01578-.104.01468-.08153-.00259-.162-.0228-.2435-.0228l-.13672-.0231a.88152.88152,0,0,0-.41963.01682c-.056.018-.11232-.01181-.16819.01928-.05973.03324-.11941-.028-.179-.03292a.26077.26077,0,0,0-.1823.02679.24.24,0,0,1-.16983.01984.44676.44676,0,0,1-.17677-.0232.35453.35453,0,0,0-.14644-.03222l-.19615-.00278a1.258,1.258,0,0,0-.13536.00238c-.01218-.00253-.01553-.01706-.01244-.028.00424-.01635-.02037-.00421-.00895-.05819a.75652.75652,0,0,0,.013-.17005L7.69171,1.43a.72543.72543,0,0,0,.00931-.0813c-.00131-.02649-.037-.05294-.03392-.07934.00466-.03934.03255-.07846.03954-.11777.00454-.02557-.02576-.051-.037-.07648-.0107-.02441.01154-.04837.02387-.07269A.10617.10617,0,0,0,7.68816.865c-.013-.01685-.03476-.03363-.04562-.0506-.024-.04385-.00075-.04855.01815-.06006.0239-.00805.023-.04864.05739-.02444.01975.0231.00948-.00119.07028.00674a1.08719,1.08719,0,0,0,.12683.04169c.04271.00207.08532-.03265.12809-.03119A.84769.84769,0,0,0,8.14811.75c.07026-.00629.14054-.03406.21076-.04352.0291-.0039.05872.044.0879.01883.04162-.036.08311.01309.12492-.00989.0293-.01611.06026.01325.09047.02182l.0773.01944C8.80579.7753,8.86954.70242,8.93515.71735Z"/><rect class="cls-4" x="5.43859" y="9.22297" width="7.12281" height="6.63866"/><path class="cls-2" d="M9.43361,9.36768a2.12936,2.12936,0,0,0,.28682.01806,3.59987,3.59987,0,0,1,.49545-.00567c.20047.01446.3969-.09024.59935-.05289a3.29769,3.29769,0,0,0,.42632.03909c.18787.00955.375-.03106.56264-.01318.15423.01465.32712.03818.481.04086.12568.00156.06276.01975.07763.02695l-.00087.00159c-.00733.03588-.01361-.05259.01452.063a2.36455,2.36455,0,0,1,.06107.60578,1.78954,1.78954,0,0,1-.02349.57638,1.29694,1.29694,0,0,0-.00961.31611l-.00879.41033a1.38536,1.38536,0,0,0,.01276.28983.62764.62764,0,0,1,.00523.237.7757.7757,0,0,0-.02237.231l.0517.58127a3.1296,3.1296,0,0,1-.02853.46765c-.001.082.01037.16864.00117.24957a2.65574,2.65574,0,0,0,.01145.30185c0,.04837-.0177.09668-.01684.14481a1.17957,1.17957,0,0,1,.01871.14907c-.02136.19251-.03932.38614-.0459.57892-.00532.15631.03087.31342.02452.46988-.00833.20557.07132.40961.06565.61481-.00077.02737-.00908.14844.103.1517a.08579.08579,0,0,0,.08978-.07306.31553.31553,0,0,0,.02295-.088l.04855-.60883a1.698,1.698,0,0,0-.0193-.29809c-.02532-.18836.02782-.379.021-.56748-.01-.27868-.01724-.554-.00673-.83258l.00246-.16375c-.0035-.21308.02946-.43042.01524-.64347a4.11491,4.11491,0,0,1-.03677-.48178,3.464,3.464,0,0,1,.00265-.53228,1.28516,1.28516,0,0,0-.00839-.34,2.61352,2.61352,0,0,1,.00482-.40946,3.73673,3.73673,0,0,0,.04079-.63192,2.64389,2.64389,0,0,0-.00656-.28824,1.257,1.257,0,0,1-.05194-.37094L12.69442,9.09l-.074-.00129a2.37851,2.37851,0,0,1-.28094-.03088.5674.5674,0,0,0-.17624-.01874c-.0792.00748-.15845-.00357-.23766.001A1.701,1.701,0,0,1,11.56,9.03622c-.13969-.02215-.28316.02533-.42444.00809a5.42033,5.42033,0,0,0-.70086-.0011,2.48424,2.48424,0,0,0-.59734.0268,1.82354,1.82354,0,0,1-.444-.01645c-.2301.00027-.46.03976-.68985.04837a1.50552,1.50552,0,0,1-.54489-.03861c-.08238-.02725-.168.01346-.2522.013a1.55032,1.55032,0,0,0-.3251-.01312,2.66592,2.66592,0,0,1-.58641.02976l-.623-.00052a1.25834,1.25834,0,0,0-.172.00485.73964.73964,0,0,1-.1671.0199L5.305,9.06183l-.03035-.00275c-.01533.17157.02631.40936.01972.47226-.00719.11173.00517.22366-.00519.33444a1.10376,1.10376,0,0,1-.01781.26419.9337.9337,0,0,0-.0172.33255,1.06386,1.06386,0,0,0,.011.1232,2.01668,2.01668,0,0,1,.02806.71241c-.0454.20709.04974.41409.00917.62072a3.67792,3.67792,0,0,0-.00637.4878c-.00993.16028.06789.31814.04779.47842q-.03924.313-.05184.6264l-.01111.556a.8521.8521,0,0,0,.02325.17588c.01257.05874-.02032.1141-.02106.17257-.00065.05207.01587.10315.01227.1554l-.00447.16312c.00008.10726.00337.2146-.00665.32183a1.37806,1.37806,0,0,0-.00011.33515,1.03385,1.03385,0,0,1,.00066.266l-.00849.36655.15747.00619.4045.01376a2.90523,2.90523,0,0,1,.30968.01322,3.691,3.691,0,0,0,.78906-.03864c.25348-.026.50655.034.75879.01358l.03383-.00384A6.11432,6.11432,0,0,1,8.38,16.033l.7063-.04065c.17706-.006.35426.01163.53126.00232a1.96229,1.96229,0,0,1,.48554.00394,3.51,3.51,0,0,0,.88083.01321,1.8401,1.8401,0,0,1,.28056.01346c.10748.01007.21286-.04276.31978-.02408.22986.04016.45993-.0199.69043.00891a.78567.78567,0,0,0,.12994.00971.15976.15976,0,0,0,.08353-.03226.12956.12956,0,0,0,.0706-.08447.10687.10687,0,0,0-.0601-.11853.37569.37569,0,0,0-.194-.04175l-.02-.00043c-.23877-.0137-.47777-.002-.71666-.00412l-.34775.01471-.81456-.0228-.45732-.0231a9.71435,9.71435,0,0,0-1.40376.01679c-.18739.018-.37573-.01178-.56261.01928a3.14883,3.14883,0,0,1-.59864-.03293,2.7534,2.7534,0,0,0-.60978.02683,2.56279,2.56279,0,0,1-.56813.01984,4.32209,4.32209,0,0,1-.57257-.0232l-.04663-.01971a.56433.56433,0,0,0,.01253-.16663l.00278-.65613c.00694-.26718-.00322-.53411-.01746-.80123a2.97559,2.97559,0,0,1,.007-.34128c.00827-.13263-.01539-.2659-.00442-.39936.01556-.18948.01028-.37921.013-.56884l.00115-.28635.00931-.27194c-.00133-.08863-.037-.1771-.03392-.26541l.03953-.39395a1.42779,1.42779,0,0,0-.037-.25586.8707.8707,0,0,1,.02387-.24311,1.05725,1.05725,0,0,0-.00539-.45974l-.04562-.16922a1.11285,1.11285,0,0,1,.01263-.35251c.022-.188-.00956-.38895.027-.57691.01822-.13144.01444-.07535.01148-.11838a.07575.07575,0,0,1,.032-.00015c.06485.00763.2623.03961.38688.04169.14291.00207.28541-.03265.42848-.03122l.35068.0029.705-.04352c.09736-.00391.19642.044.294.01883.13925-.036.278.01309.41789-.00992a1.26406,1.26406,0,0,1,.30266.02185L8.779,9.407C9.0009,9.42563,9.21416,9.35275,9.43361,9.36768Z"/></svg>