<svg id="레이어_1" data-name="레이어 1" xmlns="http://www.w3.org/2000/svg" viewBox="0 0 18 18"><defs><style>.cls-1{fill:#00c55b;}.cls-2{fill:#312e2e;}.cls-3{fill:#008f4e;}.cls-4,.cls-8{fill:#fff;}.cls-5{fill:#221e1f;stroke-width:0.15808px;}.cls-5,.cls-6,.cls-8{stroke:#221e1f;}.cls-5,.cls-6,.cls-7,.cls-8{stroke-linecap:round;stroke-linejoin:round;}.cls-6,.cls-7{fill:none;}.cls-6{stroke-width:0.5px;}.cls-7{stroke:#ee4022;stroke-width:0.19606px;}.cls-8{stroke-width:0.4px;}</style></defs><path class="cls-1" d="M11.83729,7.49876,10.492,6.53084l-.373-5.27828H7.881L7.508,6.53084l-1.34525.96792A1.56374,1.56374,0,0,0,5.444,8.74727V16.7338c0,.383.43156.69355.96391.69355h5.18428c.53235,0,.96389-.31051.96389-.69355V8.74727A1.56374,1.56374,0,0,0,11.83729,7.49876Z"/><path class="cls-2" d="M7.16017,17.572c.149.0065.29815.02454.44714.01807.25751-.01087.51608-.01752.77237-.00568.31253.01447.61874-.09018.93436-.05286.21533.02549.44491.032.66458.0391.29284.00952.58453-.03107.8771-.01322.24121.01447.50827.0387.75147.04038a1.63889,1.63889,0,0,0,.45566-.04865.78973.78973,0,0,0,.44085-.279.87451.87451,0,0,0,.187-.55112l-.0108-.47277a4.32962,4.32962,0,0,1,.02347-.89856,3.14133,3.14133,0,0,0,.00961-.4928l.00879-.63968a3.36212,3.36212,0,0,0-.01272-.45181,1.51508,1.51508,0,0,1-.00525-.36951,1.8644,1.8644,0,0,0,.02237-.3602l-.0517-.90613c-.02142-.24487.02661-.48663.02853-.729.001-.12778-.01037-.26291-.00119-.389.01145-.15692-.01141-.31369-.01144-.47058l.01684-.22577c-.00088-.07764-.02423-.15454-.0187-.23236.02136-.30014.0393-.602.04587-.9025a3.781,3.781,0,0,0-.06479-.76532,1.68094,1.68094,0,0,0-.58933-.8309c-.03-.03311-.18222-.16131-.25152-.07123-.0441.05677.01638.11481.03384.13858a.96019.96019,0,0,0,.0831.10193,1.45373,1.45373,0,0,1,.40414.74256,2.91935,2.91935,0,0,1,.0495.42184c.0253.29364-.0278.59079-.021.88467.01.43445.01724.86353.00674,1.298l-.00247.25522c.00348.33218-.02945.671-.01526,1.00317.01074.2507.0451.50232.03677.751-.00924.27627.03391.552-.00265.82983a3.11374,3.11374,0,0,0,.00839.53009,6.34438,6.34438,0,0,1-.00482.63828,9.04084,9.04084,0,0,0-.04077.98513c.00769.15006-.01163.3.00656.44935.0361.21142.06384.33367-.05243.46105a.82475.82475,0,0,1-.39652.24463,2.40254,2.40254,0,0,1-.50647-.00259l-.37048.00095a4.1281,4.1281,0,0,1-.56985-.00379c-.21778-.02215-.44141.0253-.66165.00809-.36435-.02847-.729-.00284-1.0926-.0011a6.015,6.015,0,0,0-.93121.02679,4.41673,4.41673,0,0,1-.69217-.01647,5.37662,5.37662,0,0,1-1.03412-.00251c-.23657-.0571-.489-.25073-.45575-.47058a2.41773,2.41773,0,0,0-.017-.36944,3.75633,3.75633,0,0,0,.01312-.50681,6.46181,6.46181,0,0,1-.02976-.91418l.00052-.97126c.0004-.0892.00263-.179-.00485-.26806a1.7722,1.7722,0,0,1-.01987-.2605c.01923-.30066.015-.60166.05536-.90222.0224-.16681-.02386-.3367-.01694-.50482l.00516-.52143a2.66988,2.66988,0,0,1,.01782-.41183,2.25291,2.25291,0,0,0,.01719-.5184l-.01093-.19211A4.8726,4.8726,0,0,1,5.5893,9.33325c.05793-.32171-.08386-.65909.04194-.92245A1.78107,1.78107,0,0,1,5.99565,7.829a3.45057,3.45057,0,0,1,.5401-.48187q.41889-.25311.82293-.52826l.29679-.20569.05047-.64707A2.03533,2.03533,0,0,0,7.70207,5.691a1.82922,1.82922,0,0,1,.04-.26688c.00637-.08093-.00449-.16153.00485-.24252l.02237-.25333c.01172-.16684.02023-.33395.042-.5a3.343,3.343,0,0,0,.037-.52115,2.494,2.494,0,0,1,.0285-.41275l.047-.45742c.04785-.328.04788-.63315.095-.96122.01925-.13424.03082-.269.03778-.40408l.00732-.20282c-.00155-.024-.00625-.01459-.00958-.03024.009-.00458-.00555-.00958.03613-.01456l.20932-.01462c.39514-.026.78968.034,1.18289.01358l.05274-.00384a2.18936,2.18936,0,0,1,.43158-.00327.301.301,0,0,0-.00314.06351l.01477.21445c.039.36178.07928.735.11816,1.09549l.056.82629a4.75862,4.75862,0,0,1,.04944.75528,8.509,8.509,0,0,0,.08365,1.37067c.01584.14471.01584.29187.01739.43725.003.14615.032.18564.0564.42594a1.585,1.585,0,0,1,.15976.11761c.26742.24185.59363.40262.86847.63586a1.8909,1.8909,0,0,0,.15875.12616.34149.34149,0,0,0,.12454.0499c.03412.007.09394.02853.13867-.00427.06257-.04587.01059-.12445-.00686-.15091a.86964.86964,0,0,0-.22107-.21048L11.55677,7.15c-.29413-.22851-.60336-.43667-.90445-.65585l-.04251-.029-.03991-.3743-.06678-1.26828-.02722-.7128c-.02878-.72909-.07474-1.4573-.171-2.18173-.01511-.11359-.02292-.22794-.02991-.34229l-.03366-.46441-.31161.01272a7.63419,7.63419,0,0,1-.93405-.03289,7.0098,7.0098,0,0,0-.96729.02679l-.24887.01569L7.757,1.6069,7.7256,1.965c-.02878.31512-.03531.60522-.08811.9179-.04263.25229-.06518.50574-.086.75953L7.47663,4.66254c-.03628.415-.05548.83081-.07064,1.24719-.006.1701-.02573.36575-.04361.51834l-.00315.01981-.15738.121c-.07171.05511-.14416.10946-.22049.15851-.24884.15988-.48587.33691-.72738.50738-.118.08524-.24549.17032-.36911.2789a1.8407,1.8407,0,0,0-.31546.33707,1.87958,1.87958,0,0,0-.18045.4187,1.86342,1.86342,0,0,0-.122.65127,3.40434,3.40434,0,0,0,.03692.39884,2.09183,2.09183,0,0,1-.02383.379,2.55132,2.55132,0,0,0,.00537.7167l.04562.2638a2.69345,2.69345,0,0,1-.01266.54953c-.022.29309.00958.60635-.027.89941-.02844.22809-.00326.45859-.01129.6879-.00763.21759-.03961.44119-.04169.6614-.00207.22278.03266.445.03119.668l-.00287.54666L5.31019,15.791a3.302,3.302,0,0,0-.0188.45834c.05149.2345-.04806.39361.0455.69375a1.038,1.038,0,0,0,.34354.4477,1.258,1.258,0,0,0,.42389.18927A7.10159,7.10159,0,0,0,7.16017,17.572Z"/><rect class="cls-3" x="7.52952" y="0.57265" width="2.93561" height="1.35983" rx="0.21137"/><path class="cls-2" d="M8.93516.71735c.02856.0065.05716.02453.08572.01809A.32679.32679,0,0,1,9.169.72974c.05993.01446.11865-.09021.17916-.05286A.33653.33653,0,0,0,9.47563.716c.05615.00952.11206-.03106.16818-.01321a.649.649,0,0,0,.14377.04089.40514.40514,0,0,1,.077.02695c.02848.00781.05576.01721.08411-.013.06006-.06387.1207-.04981.18109-.06107.04669-.01022.14178-.02951.13858.02533.00046.02878.012.01212.01929.01975A.04777.04777,0,0,1,10.297.7699c.00012.01339-.00324-.00388.015.03427A.06158.06158,0,0,1,10.3173.875c-.01489.023-.03085.046-.02237.06909.02118.05768.02548.11627.0517.17374.02145.047-.02661.09332-.02854.1398-.001.02451.01038.05041.00119.07462-.01144.03009.01142.06015.01145.09024,0,.01443-.0177.0289-.01685.04327.00089.01489.02423.02963.01871.04456a.75.75,0,0,0-.0459.17306c-.00491.06287.03049.04126.01789.06442-.00763.00257.02124.08625-.02454.09348-.00552.00076-.02246-.006-.02628.10593-.00189.0718.02286.08126.0325.08813a.07345.07345,0,0,0,.04392.01572.33989.33989,0,0,0,.26678-.15046.2179.2179,0,0,0,.024-.15762c-.0235-.0748.02832-.11841.02194-.17889a1.01181,1.01181,0,0,1-.00674-.2489.229.229,0,0,0,.00247-.049c-.00348-.06369.02948-.12867.01526-.19236-.01074-.04806-.04514-.09631-.03677-.144.00882-.05725-.033-.09628.00168-.16867A.18122.18122,0,0,0,10.55958.599a.74774.74774,0,0,0-.14886-.14148.3803.3803,0,0,0-.15589-.06973.1693.1693,0,0,0-.09534-.007c-.02877.00769-.05752-.01163-.08618.00653-.03665.03088-.07409.05881-.11087.052-.03531-.00659-.07061.00424-.10589-.001C9.82136.4332,9.78626.37769,9.75111.38873c-.02365.00748-.04736-.00357-.071.001A.15675.15675,0,0,1,9.57081.38589C9.529.36374,9.48616.41122,9.44392.394a.4895.4895,0,0,0-.2095-.0011c-.05927.0015-.119-.023-.17856.02683C9.0121.45621,8.96739.403,8.92311.40323A1.838,1.838,0,0,0,8.7169.4516.15536.15536,0,0,1,8.554.413c-.02463-.02725-.05024.01346-.07538.013C8.44621.42551,8.41355.39053,8.38142.4129a.25465.25465,0,0,1-.17529.02976L8.01988.44214A.1151.1151,0,0,0,7.96849.447c-.01667.00729-.03324.02548-.05.0199a.54952.54952,0,0,1-.173-.05539C7.693.38831,7.63719.44592,7.59065.46194a.40308.40308,0,0,0-.13422.10053c-.03427.03125-.03769.07941-.07849.11423a.15343.15343,0,0,0-.03281.14593.10719.10719,0,0,0,.011.03684c.033.071.07986.1423.028.21295-.04541.06192.04975.12381.00916.18558-.03162.04815.00369.09729-.00635.14581-.00995.04791.06787.09509.04779.143A.6337.6337,0,0,0,7.3838,1.743a.33166.33166,0,0,0,.113.25476.14189.14189,0,0,0,.08615.03095c.03012.00131.04367.04156.07446.04959.02682.007.0545-.00672.07989-.0026a.22792.22792,0,0,0,.05021.00458.30849.30849,0,0,1,.09619.00665.12777.12777,0,0,0,.10019.0001.09586.09586,0,0,1,.07934-.00065c.02936.01081.05878.0033.08814.01468.06338.0246.12176.00315.18515.02695a.3514.3514,0,0,0,.23587-.0386c.07577-.026.15143.034.22683.01358l.01011-.00385c.06475-.03216.12976.01379.19442.00473l.21115-.04065c.05292-.00595.1059.01163.15882.00232.04916-.00864.09619-.02765.14514.00394a.32724.32724,0,0,0,.26331.01318.1728.1728,0,0,1,.08389.01349c.03213.01.06363-.04276.09558-.02408.06873.04013.13751-.01993.20639.00891a.07776.07776,0,0,0,.03885.00971c.00848-.00119.01681-.01325.025-.03226a.19127.19127,0,0,0,.02112-.08447.21534.21534,0,0,0-.018-.11856.061.061,0,0,0-.058-.04175l-.006-.0004a1.316,1.316,0,0,0-.21423-.00412c-.03467-.001-.06928.01578-.10395.01468-.08154-.00259-.162-.0228-.2435-.0228l-.13671-.0231a.8816.8816,0,0,0-.41965.01682c-.056.018-.11231-.01181-.16818.01928-.05973.03324-.11942-.028-.179-.03292a.26072.26072,0,0,0-.18228.02679.24.24,0,0,1-.16983.01984.4469.4469,0,0,1-.17679-.0232.35444.35444,0,0,0-.14642-.03222l-.19617-.00278a1.25726,1.25726,0,0,0-.13534.00238c-.01218-.00253-.01554-.01706-.01246-.028.00425-.01635-.02035-.00421-.00894-.05819a.75477.75477,0,0,0,.01294-.17005L7.69172,1.43a.73013.73013,0,0,0,.00931-.0813c-.00131-.02649-.03705-.05294-.03394-.07934.00467-.03934.03257-.07846.03955-.11777.00455-.02557-.02575-.051-.037-.07648-.01071-.02441.01153-.04837.02386-.07269A.10613.10613,0,0,0,7.68815.865c-.013-.01685-.03476-.03363-.04562-.0506-.024-.04385-.00074-.04855.01816-.06006.02389-.00805.023-.04864.0574-.02444.01974.0231.00946-.00119.07028.00674A1.08719,1.08719,0,0,0,7.9152.77829c.0427.00207.0853-.03265.12808-.03119A.8478.8478,0,0,0,8.14811.75c.07025-.00629.14054-.03406.21076-.04352.02911-.0039.05871.044.08789.01883.04162-.036.08313.01309.12494-.00989.02929-.01611.06024.01325.09045.02182l.0773.01944C8.8058.7753,8.86955.70242,8.93516.71735Z"/><rect class="cls-4" x="5.43859" y="9.22297" width="7.12281" height="6.63866"/><path class="cls-2" d="M9.4336,9.36768a2.12955,2.12955,0,0,0,.28684.01806,3.59987,3.59987,0,0,1,.49545-.00567c.20047.01446.39691-.09024.59934-.05289a3.298,3.298,0,0,0,.42633.03909c.18786.00955.375-.03106.56262-.01318.15423.01465.32712.03818.481.04086.12567.00156.06277.01975.07763.02695l-.00088.00159c-.00733.03588-.01361-.05259.01452.063a2.36233,2.36233,0,0,1,.06107.60578,1.7901,1.7901,0,0,1-.02347.57638,1.29644,1.29644,0,0,0-.00961.31611l-.00879.41033a1.38468,1.38468,0,0,0,.01276.28983.62784.62784,0,0,1,.00521.237.776.776,0,0,0-.02237.231l.0517.58127a3.123,3.123,0,0,1-.02853.46765c-.001.082.01037.16864.00119.24957a2.65342,2.65342,0,0,0,.01144.30185c0,.04837-.0177.09668-.01684.14481a1.18138,1.18138,0,0,1,.0187.14907c-.02136.19251-.0393.38614-.04589.57892-.00531.15631.03088.31342.02453.46988-.00833.20557.07132.40961.06564.61481-.00076.02737-.00909.14844.103.1517a.08578.08578,0,0,0,.08978-.07306.31553.31553,0,0,0,.02295-.088l.04856-.60883a1.69615,1.69615,0,0,0-.01932-.29809c-.0253-.18836.02783-.379.02106-.56748-.01-.27868-.01725-.554-.00675-.83258l.00247-.16375c-.00351-.21308.02945-.43042.01523-.64347a4.12358,4.12358,0,0,1-.03677-.48178,3.464,3.464,0,0,1,.00268-.53228,1.28645,1.28645,0,0,0-.00842-.34,2.61352,2.61352,0,0,1,.00482-.40946,3.7357,3.7357,0,0,0,.04081-.63192,2.64893,2.64893,0,0,0-.00657-.28824,1.25631,1.25631,0,0,1-.05194-.37094L12.69441,9.09l-.074-.00129a2.37945,2.37945,0,0,1-.28094-.03088.56736.56736,0,0,0-.17624-.01874c-.0792.00748-.15845-.00357-.23764.001A1.701,1.701,0,0,1,11.56,9.03622c-.13971-.02215-.28317.02533-.42444.00809a5.42048,5.42048,0,0,0-.70087-.0011,2.4843,2.4843,0,0,0-.59735.0268,1.82361,1.82361,0,0,1-.444-.01645c-.2301.00027-.46005.03976-.68985.04837a1.50554,1.50554,0,0,1-.54489-.03861c-.08237-.02725-.168.01346-.25217.013a1.55066,1.55066,0,0,0-.32513-.01312,2.66579,2.66579,0,0,1-.5864.02976l-.623-.00052a1.258,1.258,0,0,0-.17194.00485.7398.7398,0,0,1-.16711.0199L5.305,9.06183,5.2747,9.05908c-.01535.17157.0263.40936.01971.47226-.0072.11173.00516.22366-.00518.33444A1.10482,1.10482,0,0,1,5.2714,10.13a.93392.93392,0,0,0-.01718.33255,1.06825,1.06825,0,0,0,.01093.1232,2.01622,2.01622,0,0,1,.02807.71241c-.04541.20709.04975.41409.00916.62072a3.67793,3.67793,0,0,0-.00635.4878c-.00995.16028.06787.31814.04779.47842q-.03927.313-.05185.6264l-.01111.556a.85211.85211,0,0,0,.02326.17588c.01257.05874-.02033.1141-.02106.17257-.00067.05207.01587.10315.01227.1554l-.00449.16312c.00009.10726.00339.2146-.00662.32183a1.37605,1.37605,0,0,0-.00012.33515,1.03385,1.03385,0,0,1,.00064.266l-.00848.36655.15747.00619.40451.01376a2.90486,2.90486,0,0,1,.30966.01322,3.691,3.691,0,0,0,.78906-.03864c.25348-.026.50656.034.75879.01358l.03384-.00384A6.1143,6.1143,0,0,1,8.38,16.033l.7063-.04065c.17707-.006.35425.01163.53125.00232a1.96228,1.96228,0,0,1,.48554.00394,3.51,3.51,0,0,0,.88083.01321,1.84024,1.84024,0,0,1,.28058.01346c.10748.01007.21286-.04276.31976-.02408.22986.04016.45993-.0199.69043.00891a.78583.78583,0,0,0,.12994.00971.15976.15976,0,0,0,.08353-.03226.12958.12958,0,0,0,.07062-.08447.1069.1069,0,0,0-.06012-.11853.37566.37566,0,0,0-.194-.04175l-.02-.00043c-.23877-.0137-.47778-.002-.71668-.00412l-.34774.01471-.81455-.0228L9.9484,15.707a9.71406,9.71406,0,0,0-1.40374.01679c-.18741.018-.37574-.01178-.56262.01928a3.14888,3.14888,0,0,1-.59864-.03293,2.75329,2.75329,0,0,0-.60977.02683,2.563,2.563,0,0,1-.56815.01984,4.32223,4.32223,0,0,1-.57257-.0232l-.04663-.01971a.56346.56346,0,0,0,.01255-.16663l.00277-.65613c.00693-.26718-.00323-.53411-.01745-.80123a2.9733,2.9733,0,0,1,.007-.34128c.00827-.13263-.01539-.2659-.00443-.39936.01556-.18948.01028-.37921.013-.56884l.00113-.28635.00931-.27194c-.00132-.08863-.037-.1771-.03391-.26541l.03952-.39395a1.42776,1.42776,0,0,0-.037-.25586.87144.87144,0,0,1,.02386-.24311,1.0574,1.0574,0,0,0-.00537-.45974l-.04562-.16922a1.11285,1.11285,0,0,1,.01263-.35251c.022-.188-.00955-.38895.027-.57691.01822-.13144.01443-.07535.01147-.11838a.07589.07589,0,0,1,.03208-.00015c.06482.00763.26226.03961.38687.04169.14288.00207.2854-.03265.42846-.03122l.35068.0029.705-.04352c.09738-.00391.19644.044.294.01883.13925-.036.278.01309.41787-.00992a1.26422,1.26422,0,0,1,.30268.02185L8.779,9.407C9.0009,9.42563,9.21415,9.35275,9.4336,9.36768Z"/><circle class="cls-5" cx="8.01127" cy="11.99587" r="0.33125"/><circle class="cls-5" cx="9.98873" cy="11.99587" r="0.33125"/><line class="cls-6" x1="8.31385" y1="14.50108" x2="9.68615" y2="14.50108"/><line class="cls-7" x1="6.31364" y1="13.59278" x2="6.6911" y2="13.01957"/><line class="cls-7" x1="7.14618" y1="13.59278" x2="7.52365" y2="13.01957"/><line class="cls-7" x1="7.97873" y1="13.59278" x2="8.35619" y2="13.01957"/><line class="cls-7" x1="8.81127" y1="13.59278" x2="9.18873" y2="13.01957"/><line class="cls-7" x1="9.64381" y1="13.59278" x2="10.02127" y2="13.01957"/><line class="cls-7" x1="10.47635" y1="13.59278" x2="10.85382" y2="13.01957"/><line class="cls-7" x1="11.3089" y1="13.59278" x2="11.68636" y2="13.01957"/><path class="cls-8" d="M9.7326,11.025a3.06954,3.06954,0,0,1,.45724.00935.38183.38183,0,0,1,.23789.08292"/><path class="cls-8" d="M7.64162,10.9638a3.06951,3.06951,0,0,1,.45724.00935.38171.38171,0,0,1,.23789.08292"/></svg>