<svg id="레이어_1" data-name="레이어 1" xmlns="http://www.w3.org/2000/svg" viewBox="0 0 18 18"><defs><style>.cls-1{fill:#00c55b;}.cls-2{fill:#312e2e;}.cls-3{fill:#008f4e;}.cls-4,.cls-7{fill:#fff;}.cls-5{fill:#221e1f;stroke-width:0.15808px;}.cls-5,.cls-7,.cls-8{stroke:#221e1f;stroke-linecap:round;stroke-linejoin:round;}.cls-6{fill:#ff94a1;}.cls-7,.cls-8{stroke-width:0.4px;}.cls-8{fill:none;}</style></defs><path class="cls-1" d="M11.83729,7.49876,10.492,6.53084l-.373-5.27828H7.881L7.508,6.53084l-1.34525.96792A1.56374,1.56374,0,0,0,5.444,8.74727V16.7338c0,.383.43156.69355.96391.69355h5.18428c.53235,0,.96389-.31051.96389-.69355V8.74727A1.56374,1.56374,0,0,0,11.83729,7.49876Z"/><path class="cls-2" d="M7.16018,17.572c.149.0065.29815.02454.44714.01807.25751-.01087.51608-.01752.77237-.00568.3125.01447.61874-.09018.93433-.05286.21533.02549.44494.032.66461.0391.29284.00952.58453-.03107.8771-.01322.24118.01447.50827.0387.75144.04038a1.6391,1.6391,0,0,0,.45569-.04865.78973.78973,0,0,0,.44085-.279.87448.87448,0,0,0,.187-.55112l-.01077-.47277a4.32755,4.32755,0,0,1,.02347-.89856,3.14133,3.14133,0,0,0,.00961-.4928l.00879-.63968a3.35717,3.35717,0,0,0-.01275-.45181,1.51658,1.51658,0,0,1-.00525-.36951,1.86442,1.86442,0,0,0,.0224-.3602l-.0517-.90613c-.02142-.24487.02658-.48663.0285-.729.001-.12778-.01034-.26291-.00116-.389.01145-.15692-.01141-.31369-.01144-.47058l.01684-.22577c-.00088-.07764-.02423-.15454-.0187-.23236.02133-.30014.0393-.602.04587-.9025a3.781,3.781,0,0,0-.06479-.76532,1.68094,1.68094,0,0,0-.58933-.8309c-.03-.03311-.18222-.16131-.25155-.07123-.04407.05677.01638.11481.03384.13858a.95673.95673,0,0,0,.08313.10193,1.45419,1.45419,0,0,1,.40414.74256,2.91935,2.91935,0,0,1,.0495.42184c.0253.29364-.0278.59079-.021.88467.01.43445.01721.86353.00671,1.298l-.00244.25522c.00348.33218-.02945.671-.01526,1.00317.01074.2507.0451.50232.03677.751-.00924.27627.03391.552-.00265.82983a3.11374,3.11374,0,0,0,.00839.53009,6.34438,6.34438,0,0,1-.00482.63828,9.04084,9.04084,0,0,0-.04077.98513c.00769.15006-.01163.3.00653.44935.0361.21142.06387.33367-.0524.46105a.8247.8247,0,0,1-.39655.24463,2.40226,2.40226,0,0,1-.50644-.00259l-.37048.00095a4.12807,4.12807,0,0,1-.56985-.00379c-.21778-.02215-.44144.0253-.66169.00809-.36431-.02847-.72894-.00284-1.09259-.0011a6.01516,6.01516,0,0,0-.93121.02679,4.41643,4.41643,0,0,1-.69214-.01647,5.37659,5.37659,0,0,1-1.03412-.00251c-.2366-.0571-.48907-.25073-.45575-.47058a2.41773,2.41773,0,0,0-.017-.36944,3.7563,3.7563,0,0,0,.01309-.50681,6.45732,6.45732,0,0,1-.02973-.91418l.00052-.97126c.00037-.0892.00263-.179-.00485-.26806a1.77636,1.77636,0,0,1-.0199-.2605c.01926-.30066.015-.60166.05539-.90222.02237-.16681-.02389-.3367-.017-.50482l.00519-.52143a2.66988,2.66988,0,0,1,.01782-.41183,2.25459,2.25459,0,0,0,.01719-.5184l-.011-.19211a4.87432,4.87432,0,0,1-.02805-1.11057c.058-.32171-.08383-.65909.042-.92245A1.78107,1.78107,0,0,1,5.99566,7.829a3.44877,3.44877,0,0,1,.5401-.48187q.41889-.25311.8229-.52826l.29679-.20569.0505-.64707A2.04025,2.04025,0,0,0,7.70208,5.691a1.82516,1.82516,0,0,1,.04-.26688c.00637-.08093-.00452-.16153.00482-.24252l.0224-.25333c.01172-.16684.0202-.33395.042-.5a3.33929,3.33929,0,0,0,.03693-.52115,2.49729,2.49729,0,0,1,.0285-.41275l.04706-.45742c.04782-.328.04788-.63315.09494-.96122.01925-.13424.03085-.269.03778-.40408l.00732-.20282c-.00152-.024-.00622-.01459-.00955-.03024.009-.00458-.00555-.00958.03613-.01456l.20932-.01462c.39514-.026.78968.034,1.18289.01358L9.5353,1.4191a2.18963,2.18963,0,0,1,.43161-.00327.301.301,0,0,0-.00314.06351l.01474.21445.11816,1.09549.05606.82629a4.75862,4.75862,0,0,1,.04944.75528,8.51245,8.51245,0,0,0,.08362,1.37067c.01587.14471.01587.29187.01739.43725.003.14615.032.18564.0564.42594a1.58153,1.58153,0,0,1,.15976.11761c.26742.24185.59366.40262.8685.63586a1.88606,1.88606,0,0,0,.15875.12616.34128.34128,0,0,0,.12454.0499c.03409.007.09394.02853.13864-.00427.06256-.04587.01059-.12445-.00683-.15091a.86927.86927,0,0,0-.2211-.21048L11.55678,7.15c-.29416-.22851-.60336-.43667-.90448-.65585l-.04251-.029-.03988-.3743L10.5031,4.82257l-.02719-.7128c-.02878-.72909-.07474-1.4573-.17105-2.18173-.01508-.11359-.02289-.22794-.02988-.34229l-.03366-.46441-.31161.01272a7.63447,7.63447,0,0,1-.93408-.03289,7.00992,7.00992,0,0,0-.96729.02679l-.24887.01569L7.757,1.6069,7.72558,1.965c-.02878.31512-.03528.60522-.08811.9179-.0426.25229-.06518.50574-.086.75953L7.47664,4.66254c-.03628.415-.05551.83081-.07064,1.24719-.006.1701-.02573.36575-.04361.51834l-.00318.01981-.15735.121c-.07171.05511-.14416.10946-.22049.15851-.24884.15988-.48587.33691-.72738.50738-.118.08524-.24552.17032-.36911.2789a1.83967,1.83967,0,0,0-.31546.33707,1.87968,1.87968,0,0,0-.18048.4187,1.8641,1.8641,0,0,0-.122.65127,3.41087,3.41087,0,0,0,.037.39884,2.09457,2.09457,0,0,1-.02386.379,2.55245,2.55245,0,0,0,.0054.7167l.04559.2638a2.69129,2.69129,0,0,1-.01263.54953c-.022.29309.00955.60635-.027.89941-.02847.22809-.00326.45859-.01129.6879-.00766.21759-.03964.44119-.04169.6614-.00207.22278.03266.445.03119.668l-.0029.54666L5.3102,15.791a3.29734,3.29734,0,0,0-.01883.45834c.05152.2345-.048.39361.0455.69375a1.03828,1.03828,0,0,0,.34357.4477,1.258,1.258,0,0,0,.42389.18927A7.10159,7.10159,0,0,0,7.16018,17.572Z"/><rect class="cls-3" x="7.52952" y="0.57265" width="2.93561" height="1.35983" rx="0.21137"/><path class="cls-2" d="M8.93514.71735c.02856.0065.05719.02453.08575.01809A.32679.32679,0,0,1,9.169.72974c.05993.01446.11865-.09021.17916-.05286A.33634.33634,0,0,0,9.47561.716c.05615.00952.11209-.03106.16821-.01321a.64857.64857,0,0,0,.14377.04089A.40487.40487,0,0,1,9.86452.7706c.02848.00781.05579.01721.08414-.013.06006-.06387.1207-.04981.18109-.06107.04666-.01022.14179-.02951.13858.02533.00046.02878.012.01212.01929.01975A.04777.04777,0,0,1,10.297.7699c.00009.01339-.00324-.00388.015.03427A.06158.06158,0,0,1,10.31731.875c-.01489.023-.03085.046-.02237.06909.02115.05768.02548.11627.0517.17374.02142.047-.02661.09332-.02854.1398-.001.02451.01038.05041.0012.07462-.01145.03009.01141.06015.01144.09024,0,.01443-.01773.0289-.01685.04327.00089.01489.02423.02963.01871.04456a.74853.74853,0,0,0-.0459.17306c-.00491.06287.03049.04126.01786.06442-.0076.00257.02124.08625-.02451.09348-.00552.00076-.02246-.006-.02628.10593-.00189.0718.02286.08126.03247.08813a.07354.07354,0,0,0,.044.01572.33995.33995,0,0,0,.26678-.15046.21789.21789,0,0,0,.024-.15762c-.02347-.0748.02832-.11841.022-.17889a1.01034,1.01034,0,0,1-.00674-.2489.229.229,0,0,0,.00247-.049c-.00351-.06369.02945-.12867.01523-.19236-.01071-.04806-.04511-.09631-.03677-.144.00885-.05725-.033-.09628.00171-.16867A.18125.18125,0,0,0,10.55956.599a.74676.74676,0,0,0-.14883-.14148.38024.38024,0,0,0-.15592-.06973.16917.16917,0,0,0-.0953-.007c-.02878.00769-.05756-.01163-.08619.00653-.03665.03088-.07409.05881-.11087.052-.03531-.00659-.07061.00424-.10592-.001C9.82134.4332,9.78628.37769,9.75112.38873c-.02368.00748-.04736-.00357-.071.001A.15666.15666,0,0,1,9.57082.38589C9.529.36374,9.48617.41122,9.44393.394a.4895.4895,0,0,0-.2095-.0011c-.0593.0015-.119-.023-.17859.02683C9.01211.45621,8.9674.403,8.92312.40323A1.83647,1.83647,0,0,0,8.71691.4516.15535.15535,0,0,1,8.554.413c-.02463-.02725-.05024.01346-.07538.013C8.44622.42551,8.41356.39053,8.38143.4129a.2547.2547,0,0,1-.17529.02976L8.01989.44214A.11517.11517,0,0,0,7.96847.447c-.01667.00729-.03321.02548-.04993.0199A.54968.54968,0,0,1,7.7455.4115C7.693.38831,7.6372.44592,7.59066.46194a.40268.40268,0,0,0-.13422.10053C7.42217.59372,7.41875.64188,7.378.6767a.15347.15347,0,0,0-.03284.14593.10785.10785,0,0,0,.011.03684c.033.071.07989.1423.028.21295-.04538.06192.04978.12381.00919.18558-.03162.04815.00369.09729-.00638.14581-.00992.04791.0679.09509.04779.143a.63452.63452,0,0,0-.0509.19614.33156.33156,0,0,0,.113.25476.14182.14182,0,0,0,.08615.03095c.03009.00131.04367.04156.07443.04959.02682.007.0545-.00672.07992-.0026a.22781.22781,0,0,0,.05018.00458.30868.30868,0,0,1,.09622.00665.12776.12776,0,0,0,.10019.0001.09579.09579,0,0,1,.07931-.00065c.02936.01081.05881.0033.08817.01468.06335.0246.12173.00315.18512.02695a.35146.35146,0,0,0,.2359-.0386c.07577-.026.15143.034.22684.01358l.0101-.00385c.06475-.03216.12973.01379.19442.00473l.21115-.04065c.05292-.00595.1059.01163.15882.00232.04913-.00864.09619-.02765.14514.00394a.32724.32724,0,0,0,.26331.01318.17269.17269,0,0,1,.08386.01349c.03213.01.06363-.04276.09561-.02408.06869.04013.13748-.01993.20639.00891a.07768.07768,0,0,0,.03885.00971c.00845-.00119.01681-.01325.025-.03226a.19127.19127,0,0,0,.02112-.08447.21565.21565,0,0,0-.018-.11856.061.061,0,0,0-.058-.04175l-.006-.0004a1.316,1.316,0,0,0-.21423-.00412c-.03467-.001-.06928.01578-.104.01468-.08151-.00259-.162-.0228-.2435-.0228l-.13668-.0231a.88159.88159,0,0,0-.41965.01682c-.056.018-.11234-.01181-.16818.01928-.05976.03324-.11942-.028-.179-.03292a.2607.2607,0,0,0-.18228.02679.24008.24008,0,0,1-.16986.01984.44676.44676,0,0,1-.17676-.0232.35457.35457,0,0,0-.14645-.03222l-.19614-.00278a1.25883,1.25883,0,0,0-.13538.00238c-.01214-.00253-.0155-.01706-.01242-.028.00425-.01635-.02038-.00421-.009-.05819a.75654.75654,0,0,0,.013-.17005L7.69173,1.43a.7373.7373,0,0,0,.00931-.0813c-.00134-.02649-.037-.05294-.03394-.07934.00464-.03934.03254-.07846.03952-.11777.00455-.02557-.02572-.051-.03692-.07648-.01071-.02441.0115-.04837.02383-.07269A.10616.10616,0,0,0,7.68816.865C7.6751.84811,7.6534.83133,7.64254.81436,7.61852.77051,7.6418.76581,7.6607.7543c.02389-.00805.023-.04864.0574-.02444.01974.0231.00946-.00119.07025.00674a1.09091,1.09091,0,0,0,.12683.04169c.04273.00207.08533-.03265.12808-.03119A.8478.8478,0,0,0,8.14809.75c.07028-.00629.14057-.03406.21079-.04352.02908-.0039.05871.044.08789.01883.04162-.036.0831.01309.12491-.00989C8.601.69928,8.632.72864,8.66216.73721l.0773.01944C8.80581.7753,8.86956.70242,8.93514.71735Z"/><rect class="cls-4" x="5.43859" y="9.22297" width="7.12281" height="6.63866"/><path class="cls-2" d="M9.43361,9.36768a2.12955,2.12955,0,0,0,.28684.01806,3.59944,3.59944,0,0,1,.49542-.00567c.2005.01446.39691-.09024.59937-.05289a3.29752,3.29752,0,0,0,.42633.03909c.18783.00955.37494-.03106.56262-.01318.15423.01465.32712.03818.481.04086.12567.00156.06277.01975.0776.02695l-.00085.00159c-.00733.03588-.01361-.05259.01452.063a2.365,2.365,0,0,1,.06107.60578,1.7901,1.7901,0,0,1-.02347.57638,1.29644,1.29644,0,0,0-.00961.31611l-.00879.41033a1.384,1.384,0,0,0,.01273.28983.62723.62723,0,0,1,.00524.237.7747.7747,0,0,0-.02236.231l.05169.58127a3.13093,3.13093,0,0,1-.02853.46765c-.001.082.01037.16864.00119.24957a2.65342,2.65342,0,0,0,.01144.30185c0,.04837-.0177.09668-.01684.14481a1.18138,1.18138,0,0,1,.0187.14907c-.02136.19251-.03933.38614-.04589.57892-.00535.15631.03085.31342.0245.46988-.00833.20557.07132.40961.06564.61481-.00076.02737-.00906.14844.103.1517a.08575.08575,0,0,0,.08978-.07306.31348.31348,0,0,0,.02295-.088l.04856-.60883a1.69611,1.69611,0,0,0-.01929-.29809c-.0253-.18836.0278-.379.021-.56748-.01-.27868-.01725-.554-.00672-.83258l.00244-.16375c-.00348-.21308.02948-.43042.01526-.64347a4.11708,4.11708,0,0,1-.03677-.48178,3.4602,3.4602,0,0,1,.00265-.53228,1.28516,1.28516,0,0,0-.00839-.34,2.61352,2.61352,0,0,1,.00482-.40946,3.7388,3.7388,0,0,0,.04078-.63192,2.64893,2.64893,0,0,0-.00654-.28824,1.25734,1.25734,0,0,1-.052-.37094L12.69442,9.09l-.074-.00129a2.378,2.378,0,0,1-.28094-.03088.56736.56736,0,0,0-.17624-.01874c-.0792.00748-.15845-.00357-.23767.001A1.70076,1.70076,0,0,1,11.56,9.03622c-.13971-.02215-.28317.02533-.42447.00809a5.42,5.42,0,0,0-.70084-.0011,2.4843,2.4843,0,0,0-.59735.0268,1.8235,1.8235,0,0,1-.444-.01645c-.2301.00027-.46.03976-.68985.04837a1.50549,1.50549,0,0,1-.54489-.03861c-.0824-.02725-.168.01346-.2522.013a1.55038,1.55038,0,0,0-.3251-.01312,2.66589,2.66589,0,0,1-.5864.02976l-.623-.00052a1.25848,1.25848,0,0,0-.172.00485.73933.73933,0,0,1-.16708.0199L5.305,9.06183l-.03033-.00275c-.01535.17157.02631.40936.01968.47226-.00717.11173.00519.22366-.00515.33444a1.10482,1.10482,0,0,1-.01783.26419.93393.93393,0,0,0-.01721.33255,1.06831,1.06831,0,0,0,.011.1232,2.01621,2.01621,0,0,1,.028.71241c-.04538.20709.04978.41409.00919.62072a3.683,3.683,0,0,0-.00638.4878c-.00992.16028.0679.31814.04779.47842q-.03922.313-.05185.6264l-.01111.556a.85421.85421,0,0,0,.02329.17588c.01254.05874-.02036.1141-.02109.17257-.00064.05207.0159.10315.01227.1554l-.00446.16312c.00006.10726.00336.2146-.00665.32183a1.37756,1.37756,0,0,0-.00009.33515,1.03519,1.03519,0,0,1,.00064.266l-.00848.36655.15747.00619.40448.01376a2.90509,2.90509,0,0,1,.30969.01322,3.691,3.691,0,0,0,.78906-.03864c.25348-.026.50656.034.75879.01358l.03381-.00384A6.11424,6.11424,0,0,1,8.38,16.033l.70633-.04065c.177-.006.35425.01163.53125.00232a1.96229,1.96229,0,0,1,.48554.00394,3.51,3.51,0,0,0,.88083.01321,1.84042,1.84042,0,0,1,.28058.01346c.10745.01007.21283-.04276.31976-.02408.22986.04016.45993-.0199.69043.00891a.78559.78559,0,0,0,.12994.00971.15976.15976,0,0,0,.08353-.03226.12966.12966,0,0,0,.07062-.08447.1069.1069,0,0,0-.06012-.11853.37566.37566,0,0,0-.194-.04175l-.02-.00043c-.23877-.0137-.47775-.002-.71665-.00412l-.34774.01471-.81455-.0228-.45734-.0231a9.71453,9.71453,0,0,0-1.40377.01679c-.18738.018-.37574-.01178-.56259.01928a3.14919,3.14919,0,0,1-.59867-.03293,2.75337,2.75337,0,0,0-.60977.02683,2.56256,2.56256,0,0,1-.56811.01984,4.322,4.322,0,0,1-.57258-.0232l-.04663-.01971a.56428.56428,0,0,0,.01255-.16663l.00274-.65613c.007-.26718-.0032-.53411-.01745-.80123a2.98245,2.98245,0,0,1,.007-.34128c.00827-.13263-.01542-.2659-.00443-.39936.01556-.18948.01028-.37921.01294-.56884l.00116-.28635.00931-.27194c-.00132-.08863-.037-.1771-.03394-.26541l.03955-.39395a1.42776,1.42776,0,0,0-.037-.25586.87032.87032,0,0,1,.02386-.24311,1.05694,1.05694,0,0,0-.0054-.45974l-.04563-.16922a1.11315,1.11315,0,0,1,.01267-.35251c.022-.188-.00958-.38895.027-.57691.01825-.13144.01443-.07535.01147-.11838a.07589.07589,0,0,1,.03208-.00015c.06485.00763.26229.03961.38687.04169.14291.00207.28543-.03265.42849-.03122l.35065.0029.70505-.04352c.09735-.00391.19641.044.294.01883.13928-.036.278.01309.4179-.00992a1.264,1.264,0,0,1,.30265.02185L8.779,9.407C9.00091,9.42563,9.21416,9.35275,9.43361,9.36768Z"/><circle class="cls-5" cx="8.01127" cy="11.99587" r="0.33125"/><circle class="cls-5" cx="9.98873" cy="11.99587" r="0.33125"/><circle class="cls-6" cx="6.73807" cy="13.20664" r="0.95697"/><circle class="cls-6" cx="11.26193" cy="13.20664" r="0.95697"/><path class="cls-7" d="M9.69793,11.025a3.06938,3.06938,0,0,1,.45723.00935.38183.38183,0,0,1,.23789.08292"/><path class="cls-7" d="M7.607,10.9638a3.06938,3.06938,0,0,1,.45723.00935.38171.38171,0,0,1,.23789.08292"/><path class="cls-8" d="M8.21814,12.83778l1.0829-.00851a.71532.71532,0,0,1,.18127.014.35758.35758,0,0,1,.09716.04057.19231.19231,0,0,1,.06207.05538.22454.22454,0,0,1,.02971.08313.84488.84488,0,0,1-.10951.67034,2.71087,2.71087,0,0,1-.275.35634c-.115.09671-.34291.0341-.4836-.01871-.23482-.08815-.2951-.257-.42494-.47157a1.13931,1.13931,0,0,1-.1546-.72226"/></svg>