<?xml version="1.0" encoding="utf-8"?>
<!-- Generator: Adobe Illustrator 25.4.1, SVG Export Plug-In . SVG Version: 6.00 Build 0)  -->
<svg version="1.1" id="레이어_1" xmlns="http://www.w3.org/2000/svg" xmlns:xlink="http://www.w3.org/1999/xlink" x="0px"
	 y="0px" viewBox="0 0 18 18" style="enable-background:new 0 0 18 18;" xml:space="preserve">
<style type="text/css">
	.st0{fill:#00C55B;}
	.st1{fill:#312E2E;}
	.st2{fill:#FF5F56;}
	.st3{fill:#FF2A00;}
	.st4{fill:#FF94A1;}
	.st5{fill:#FFFFFF;}
	.st6{fill:#008F4E;}
	.st7{fill:#221E1F;stroke:#221E1F;stroke-width:0.0935;stroke-linecap:round;stroke-linejoin:round;stroke-miterlimit:10;}
	.st8{fill:none;stroke:#221E1F;stroke-width:0.3166;stroke-linecap:round;stroke-linejoin:round;stroke-miterlimit:10;}
	.st9{fill:none;stroke:#EE4022;stroke-width:0.1187;stroke-linecap:round;stroke-linejoin:round;stroke-miterlimit:10;}
	.st10{fill:#FF543A;stroke:#221E1F;stroke-width:0.2;stroke-linecap:round;stroke-linejoin:round;stroke-miterlimit:10;}
	.st11{fill:#FF0005;}
	.st12{fill:#FF8B00;}
	.st13{fill:#FFFF00;}
	.st14{fill:#00FF00;}
	.st15{fill:#00BDFF;}
	.st16{fill:#BB00FF;}
	.st17{fill:none;stroke:#221E1F;stroke-width:0.1896;stroke-linecap:round;stroke-linejoin:round;stroke-miterlimit:10;}
	.st18{fill:none;stroke:#221E1F;stroke-width:0.2;stroke-linecap:round;stroke-linejoin:round;stroke-miterlimit:10;}
	.st19{fill:none;stroke:#00C9F8;stroke-width:0.2;stroke-linecap:round;stroke-linejoin:round;stroke-miterlimit:10;}
	.st20{fill:none;stroke:#221E1F;stroke-width:0.25;stroke-linecap:round;stroke-linejoin:round;stroke-miterlimit:10;}
</style>
<g>
	<g>
		<path class="st0" d="M11.04,7.5l-0.97-0.97L9.81,1.25H9H8.19L7.93,6.53L6.96,7.5C6.63,7.83,6.44,8.28,6.44,8.75v7.99
			c0,0.38,0.31,0.69,0.69,0.69H9h1.87c0.38,0,0.69-0.31,0.69-0.69V8.75C11.56,8.28,11.37,7.83,11.04,7.5z"/>
		<g>
			<g>
				<path class="st1" d="M7.28,17.55c0.14,0.01,0.27,0.02,0.41,0.02c0.24-0.01,0.48-0.01,0.71,0c0.29,0.01,0.57-0.08,0.86-0.04
					c0.2,0.02,0.41,0.03,0.61,0.03c0.27,0.01,0.54-0.03,0.81-0.01c0.19,0.03,0.56,0.01,0.74-0.19c0.11-0.1,0.2-0.22,0.25-0.37
					c0.06-0.17,0.05-0.32,0.02-0.45c-0.05-0.29-0.04-0.58-0.05-0.87c-0.01-0.28-0.02-0.55,0.02-0.83c0.02-0.15,0.01-0.3,0.01-0.45
					l0.01-0.59c0-0.14,0-0.28-0.01-0.42c-0.01-0.11-0.02-0.23,0-0.34c0.01-0.11,0.03-0.22,0.02-0.33c-0.01-0.28-0.03-0.54-0.04-0.84
					c-0.02-0.23,0.02-0.45,0.02-0.67c0-0.12-0.01-0.24,0-0.36c0.01-0.14-0.01-0.29-0.01-0.43c0-0.06,0.01-0.14,0.01-0.21
					c0-0.07-0.02-0.14-0.02-0.21c0.02-0.28,0.03-0.56,0.04-0.83c0-0.22-0.01-0.45-0.05-0.7c-0.05-0.32-0.24-0.59-0.42-0.83
					c-0.02-0.04-0.14-0.17-0.21-0.11c-0.04,0.04,0,0.1,0.01,0.13c0.03,0.04,0.05,0.08,0.06,0.1c0.21,0.31,0.26,0.58,0.28,0.75
					c0.02,0.13,0.03,0.26,0.04,0.4c0.02,0.27-0.02,0.54-0.02,0.82c0.01,0.4,0.01,0.8,0.01,1.2l0,0.24c0,0.31-0.02,0.62-0.01,0.93
					c0.01,0.23,0.04,0.46,0.03,0.69c-0.01,0.25,0.03,0.51,0,0.77c-0.02,0.16,0,0.33,0.01,0.49c0.01,0.2,0.01,0.39,0,0.59
					c-0.02,0.3-0.05,0.61-0.03,0.91c0.01,0.14-0.01,0.28,0.01,0.41c0.03,0.18,0.05,0.36,0.04,0.53c-0.01,0.18,0.02,0.34-0.04,0.47
					c-0.05,0.14-0.18,0.21-0.29,0.28c-0.08,0.05-0.17,0.06-0.25,0.07c-0.17,0.01-0.35,0.01-0.52,0c-0.2-0.02-0.41,0.02-0.61,0.01
					c-0.34-0.02-0.67,0-1.01,0c-0.29,0-0.57-0.02-0.86,0.02c-0.21,0.03-0.43-0.01-0.64-0.01c-0.29,0.03-0.57-0.11-0.66-0.39
					c-0.05-0.2-0.03-0.51,0.01-0.75c0.02-0.12-0.01-0.24-0.01-0.36c0-0.16,0.03-0.31,0.01-0.47c-0.03-0.28-0.03-0.56-0.03-0.84
					c0-0.3,0-0.6,0-0.9c0-0.08,0-0.17,0-0.25c-0.01-0.08-0.02-0.16-0.02-0.24c0.02-0.28,0.01-0.55,0.05-0.83
					c0.02-0.15-0.02-0.31-0.01-0.47c0-0.17,0-0.31,0-0.48c0.01-0.12-0.01-0.25,0.02-0.38c0.03-0.16,0.02-0.32,0.01-0.48
					c0-0.06-0.01-0.11-0.01-0.18C6.56,9.93,6.52,9.59,6.56,9.25c0.05-0.3-0.07-0.6,0.03-0.86c0.07-0.2,0.14-0.42,0.27-0.59
					C7,7.63,7.12,7.43,7.3,7.27c0.23-0.2,0.45-0.4,0.67-0.61l0.09-0.08C8.07,6.33,8.08,6.07,8.1,5.81c0-0.08,0-0.17-0.01-0.25
					C8.08,5.47,8.12,5.39,8.12,5.31c0-0.07-0.01-0.15,0-0.22c0.01-0.08,0.01-0.16,0.02-0.23C8.15,4.7,8.15,4.54,8.17,4.39
					C8.18,4.23,8.2,4.07,8.19,3.91c0-0.13,0-0.26,0.02-0.38c0.01-0.15,0.02-0.27,0.03-0.42c0.03-0.33,0.04-0.56,0.07-0.89
					C8.33,2.06,8.34,1.9,8.34,1.74c0-0.15,0-0.37-0.01-0.34c0.01,0,0.01-0.01,0.04-0.01C8.74,1.36,9.1,1.41,9.46,1.4l0.05,0
					c0.06,0,0.11-0.01,0.17-0.01l0,0.04l0,0.16c0,0.11,0.01,0.21,0.01,0.32c0.03,0.33,0.06,0.68,0.09,1.01
					c0.01,0.26,0.02,0.5,0.04,0.76c0.02,0.24,0.05,0.46,0.03,0.7C9.82,4.8,9.87,5.23,9.9,5.64c0.01,0.13,0.01,0.27,0.01,0.4
					c0,0.16,0.05,0.28,0.04,0.48l0,0.06c0.27,0.31,0.48,0.46,0.71,0.71c0.04,0.05,0.08,0.09,0.13,0.14c0.03,0.03,0.07,0.05,0.1,0.07
					c0.03,0.01,0.08,0.04,0.12,0.02c0.06-0.03,0.02-0.11,0.01-0.13c-0.04-0.09-0.11-0.16-0.17-0.22l-0.02-0.02
					c-0.22-0.23-0.44-0.44-0.66-0.66l0-0.02c-0.01-0.16-0.03-0.33-0.04-0.49L10.1,4.8c0-0.22-0.01-0.44-0.01-0.66
					c-0.01-0.67-0.04-1.35-0.12-2.02C9.94,1.83,9.95,1.64,9.91,1.26c0-0.04-0.01-0.07-0.01-0.1c-0.23,0.01-0.36,0-0.49-0.01
					c-0.13-0.01-0.26-0.02-0.4-0.02l-0.41,0C8.44,1.13,8.28,1.13,8.09,1.14l0,0.1c0,0.25,0,0.31,0,0.47
					C8.08,1.85,8.07,1.99,8.06,2.12C8.04,2.41,8.04,2.68,8,2.97C7.97,3.2,7.95,3.44,7.94,3.67L7.89,4.61C7.86,5,7.85,5.38,7.84,5.76
					c0,0.16-0.02,0.33-0.03,0.49C7.8,6.32,7.8,6.48,7.8,6.48L7.73,6.55L7.62,6.66c-0.2,0.18-0.39,0.38-0.59,0.57
					c-0.1,0.1-0.2,0.19-0.29,0.31C6.65,7.64,6.57,7.76,6.5,7.88C6.44,8.01,6.42,8.14,6.39,8.27c-0.06,0.19-0.09,0.4-0.09,0.59
					c0,0.12,0.02,0.25,0.03,0.37C6.33,9.35,6.31,9.47,6.3,9.58c-0.02,0.24-0.03,0.42,0,0.66c0.01,0.08,0.03,0.17,0.04,0.24
					c0.02,0.17,0,0.33-0.01,0.51c-0.02,0.27,0.01,0.56-0.02,0.83c-0.02,0.21,0,0.42-0.01,0.63c-0.01,0.2-0.03,0.41-0.04,0.61
					c0.01,0.2,0.02,0.42,0.03,0.62l0,0.5c0.01,0.33,0.02,0.68,0.04,1.01c0,0.14-0.04,0.28-0.02,0.42c0.03,0.2-0.01,0.4,0.01,0.6
					c0.01,0.14-0.01,0.29-0.02,0.44c-0.01,0.12,0,0.29,0.06,0.43C6.51,17.47,6.98,17.59,7.28,17.55z"/>
			</g>
		</g>
	</g>
	<g>
		<rect x="6.44" y="9.95" class="st5" width="5.12" height="5.41"/>
		<g>
			<g>
				<path class="st1" d="M9.5,10.07c0.07,0.01,0.15,0.02,0.22,0.02c0.13-0.01,0.25-0.01,0.38,0c0.15,0.01,0.3-0.08,0.46-0.04
					c0.11,0.02,0.22,0.03,0.33,0.03c0.14,0.01,0.29-0.03,0.43-0.01c0.11,0.01,0.09,0.02,0.11,0.03l-0.01,0.03
					c0-0.01-0.02,0.1-0.02,0.15c-0.01,0.07-0.01,0.14,0.01,0.22c0.05,0.15,0.04,0.31,0.05,0.46c0.01,0.15,0.02,0.29-0.02,0.44
					c-0.02,0.08-0.01,0.16-0.01,0.24l-0.01,0.31c0,0.07,0,0.15,0.01,0.22c0.01,0.06,0.02,0.12,0,0.18
					c-0.01,0.06-0.03,0.12-0.02,0.18c0.02,0.16,0.03,0.27,0.04,0.44c0.02,0.12-0.02,0.24-0.02,0.36c0,0.06,0.01,0.13,0,0.19
					c-0.01,0.08,0.01,0.15,0.01,0.23c0,0.04-0.02,0.07-0.01,0.11c0,0.04,0.02,0.08,0.02,0.11c-0.02,0.15-0.03,0.3-0.04,0.44
					c0,0.12,0.03,0.24,0.02,0.36c-0.01,0.16,0.06,0.31,0.06,0.47c0,0.02-0.01,0.11,0.09,0.12c0.06,0,0.07-0.04,0.08-0.06
					c0.01-0.02,0.02-0.04,0.02-0.07c0.02-0.21,0.03-0.37,0.04-0.47c0-0.08-0.01-0.15-0.02-0.23c-0.02-0.14,0.02-0.29,0.02-0.43
					c-0.01-0.21-0.01-0.42-0.01-0.64l0-0.13c0-0.16,0.02-0.33,0.01-0.49c-0.01-0.12-0.04-0.25-0.03-0.37c0.01-0.14-0.03-0.27,0-0.41
					c0.02-0.08,0-0.17-0.01-0.26c-0.01-0.1-0.01-0.21,0-0.31c0.02-0.16,0.05-0.32,0.03-0.48c-0.01-0.07,0.01-0.15-0.01-0.22
					c-0.03-0.09-0.05-0.19-0.04-0.28c0-0.1,0-0.18,0-0.27c0-0.05,0.02-0.08,0.03-0.15c0.01-0.08,0.02-0.17,0.02-0.26l0-0.05
					c-0.1,0-0.19,0-0.29,0c-0.13,0.01-0.2,0.01-0.3,0c-0.11-0.02-0.22,0.02-0.32,0.01c-0.18-0.02-0.36,0-0.54,0
					c-0.15,0-0.3-0.02-0.46,0.02C9.69,9.85,9.58,9.81,9.47,9.81c-0.18,0-0.35,0.03-0.53,0.04C8.8,9.86,8.66,9.87,8.52,9.82
					C8.46,9.79,8.39,9.83,8.33,9.83c-0.08,0-0.17-0.03-0.25-0.01c-0.15,0.03-0.3,0.03-0.45,0.03l-0.48,0c-0.04,0-0.09,0-0.13,0
					C6.98,9.85,6.94,9.87,6.89,9.86C6.7,9.85,6.61,9.84,6.32,9.82l-0.02,0c-0.01,0.12,0.02,0.33,0.02,0.38c-0.01,0.09,0,0.17,0,0.26
					c-0.01,0.07,0.01,0.14-0.02,0.2c-0.03,0.09-0.02,0.17-0.01,0.25c0,0.03,0.01,0.06,0.01,0.09c0.03,0.18,0.07,0.36,0.02,0.55
					c-0.04,0.16,0.04,0.32,0.01,0.48c-0.03,0.12,0,0.25-0.01,0.37c-0.01,0.12,0.06,0.24,0.04,0.37c-0.02,0.16-0.04,0.32-0.04,0.48
					c0,0.15-0.01,0.29-0.01,0.43c0,0.04,0.01,0.09,0.02,0.13c0.01,0.04-0.02,0.09-0.02,0.13c0,0.04,0.01,0.08,0.01,0.12
					c0,0.05,0,0.08,0,0.12c0,0.08,0,0.16-0.01,0.25c-0.01,0.08-0.01,0.17,0,0.26c0.01,0.07,0.01,0.14,0,0.2
					C6.3,14.97,6.3,15.01,6.3,15.1c-0.01,0.06-0.01,0.26-0.01,0.42c0.11,0,0.29,0,0.37,0.01c0.2,0.03,0.4-0.01,0.6-0.03
					c0.19-0.02,0.39,0.03,0.58,0.01l0.03,0c0.17-0.03,0.33,0.01,0.5,0c0.17-0.01,0.37-0.02,0.54-0.03c0.14-0.01,0.27,0.01,0.41,0
					c0.13-0.01,0.25-0.02,0.37,0c0.23,0.05,0.45,0.03,0.67,0.01c0.07,0,0.14,0,0.21,0.01c0.08,0.01,0.16-0.04,0.24-0.02
					c0.18,0.03,0.35-0.02,0.53,0.01c0.03,0,0.07,0.01,0.1,0.01c0.02,0,0.04-0.01,0.06-0.03c0.02-0.01,0.05-0.03,0.05-0.07
					c0.01-0.06-0.03-0.09-0.05-0.1c-0.05-0.03-0.1-0.03-0.15-0.04l-0.02,0c-0.18-0.01-0.37,0-0.55,0c-0.09,0-0.18,0.01-0.27,0.01
					c-0.21-0.01-0.42-0.01-0.62-0.02c-0.12-0.01-0.24-0.01-0.35-0.02c-0.36-0.02-0.72-0.02-1.07,0.01
					c-0.14,0.02-0.29-0.01-0.43,0.02c-0.15,0.03-0.31-0.02-0.46-0.03c-0.16,0-0.31-0.01-0.47,0.02c-0.14,0.03-0.29,0.02-0.43,0.02
					c-0.06,0-0.11,0-0.16,0c0-0.04,0.01-0.05,0.02-0.11c0.02-0.13,0.02-0.25,0.03-0.38c0-0.17,0-0.33,0-0.5
					c0.01-0.2,0-0.41-0.01-0.61c-0.01-0.09,0-0.17,0.01-0.26c0.01-0.1-0.01-0.2,0-0.31c0.01-0.15,0.01-0.29,0.01-0.44l0-0.22
					c0-0.07,0.01-0.14,0.01-0.21c0-0.07-0.03-0.14-0.03-0.2c0.01-0.08,0.02-0.21,0.03-0.3c0-0.07-0.02-0.13-0.03-0.2
					c-0.01-0.06,0.01-0.12,0.02-0.19c0.02-0.13,0.03-0.22,0-0.35c-0.01-0.04-0.03-0.1-0.04-0.13c-0.02-0.09,0-0.18,0.01-0.27
					c0.02-0.14-0.01-0.3,0.02-0.44c0.02-0.08,0.01-0.04,0.01-0.08c0.01,0,0.02,0,0.02,0c0.02,0.01,0.19,0.03,0.28,0.04
					c0.11,0,0.22-0.03,0.33-0.03l0.27,0c0.17-0.01,0.37-0.03,0.54-0.04c0.07,0,0.15,0.04,0.23,0.02c0.11-0.03,0.21,0.01,0.32-0.01
					c0.08-0.01,0.15,0.01,0.23,0.02C8.87,10.1,8.93,10.1,9,10.11C9.17,10.12,9.33,10.06,9.5,10.07z"/>
			</g>
		</g>
	</g>
	<g>
		<path class="st6" d="M9.87,1.93H8.12c-0.1,0-0.18-0.08-0.18-0.18v-1c0-0.1,0.08-0.18,0.18-0.18h1.75c0.1,0,0.18,0.08,0.18,0.18v1
			C10.05,1.85,9.97,1.93,9.87,1.93z"/>
		<g>
			<g>
				<path class="st1" d="M9.08,0.7C9.11,0.7,9.13,0.72,9.15,0.71c0.04-0.01,0.08-0.01,0.12,0c0.05,0.01,0.1-0.08,0.14-0.04
					c0.03,0.02,0.07,0.03,0.1,0.03C9.57,0.7,9.61,0.67,9.66,0.68C9.69,0.7,9.73,0.72,9.77,0.72c0.02,0,0.04,0.02,0.06,0.02
					c0.03,0.01,0.05,0.01,0.04-0.01C9.9,0.68,9.92,0.7,9.94,0.71c0.02,0.02,0.04,0.02-0.01,0.07C9.91,0.81,9.92,0.83,9.92,0.86
					l-0.01,0.1c0,0.02,0,0.05,0.01,0.07c0.01,0.02,0.02,0.04,0,0.06C9.92,1.1,9.9,1.12,9.91,1.14c0.02,0.05,0.02,0.09,0.04,0.14
					c0.02,0.04-0.02,0.08-0.02,0.11c0,0.02,0.01,0.04,0,0.06C9.92,1.48,9.94,1.5,9.94,1.53c0,0.01-0.01,0.02-0.01,0.03
					c0,0.01,0.02,0.02,0.02,0.04C9.92,1.64,9.91,1.69,9.9,1.74c0,0.03,0.03,0.03,0.01,0.04c-0.01,0,0.02,0.07-0.02,0.08
					c0,0-0.02-0.01-0.02,0.09c0,0.06,0.02,0.07,0.03,0.07c0.01,0.01,0.02,0.01,0.04,0.01c0.11,0,0.19-0.06,0.22-0.11
					c0.03-0.04,0.03-0.08,0.03-0.13c-0.02-0.08,0.03-0.1,0.02-0.15c-0.01-0.07-0.01-0.13-0.01-0.2c0-0.01,0-0.03,0-0.04
					c0-0.05,0.02-0.1,0.01-0.16c-0.01-0.04-0.04-0.08-0.03-0.12c0.01-0.04-0.03-0.09,0-0.13c0.02-0.03,0-0.05-0.01-0.08
					c-0.01-0.03-0.01-0.07,0-0.1c0.01-0.03,0.06-0.13,0-0.22c-0.03-0.04-0.04-0.08-0.08-0.1c-0.06-0.02-0.11-0.02-0.16-0.03
					c-0.05-0.02-0.08,0-0.11-0.01c-0.03,0-0.06-0.05-0.09-0.04c-0.02,0.01-0.04,0-0.06,0c-0.03,0.01-0.06,0.01-0.09,0
					C9.56,0.4,9.53,0.44,9.49,0.42c-0.06-0.02-0.11,0-0.17,0c-0.05,0-0.1-0.02-0.14,0.02C9.15,0.47,9.11,0.43,9.07,0.43
					c-0.06,0-0.11,0.03-0.17,0.04C8.86,0.48,8.82,0.49,8.78,0.44C8.76,0.41,8.74,0.45,8.72,0.45c-0.03,0-0.05-0.03-0.08-0.01
					C8.59,0.47,8.54,0.46,8.5,0.46c-0.05,0-0.1,0-0.15,0c-0.01,0-0.03,0-0.04,0C8.29,0.47,8.28,0.49,8.26,0.48
					C8.22,0.47,8.17,0.47,8.12,0.44C8.08,0.42,8.04,0.46,8,0.48C7.95,0.49,7.92,0.53,7.89,0.55C7.86,0.58,7.86,0.62,7.82,0.64
					C7.77,0.67,7.78,0.75,7.79,0.77c0,0.01,0,0.02,0.01,0.03c0.03,0.06,0.07,0.11,0.02,0.17c-0.04,0.05,0.04,0.1,0.01,0.15
					c-0.03,0.04,0,0.08-0.01,0.12C7.81,1.28,7.88,1.31,7.86,1.35C7.84,1.4,7.83,1.45,7.82,1.5C7.81,1.55,7.81,1.59,7.81,1.64
					c0,0.01,0.01,0.03,0.02,0.04c0.01,0.01-0.02,0.03-0.02,0.04c0,0.01,0.01,0.02,0.01,0.04c0,0.02,0,0.04,0.01,0.07
					c0.01,0.04,0.03,0.08,0.06,0.12C7.9,1.99,7.94,2.03,7.99,2.04c0.04,0,0.07,0.02,0.11,0.03c0.04,0.01,0.05,0,0.08,0.01
					c0.05,0.02,0.1,0,0.15,0.02c0.06,0.03,0.13-0.01,0.19-0.03C8.58,2.04,8.64,2.09,8.7,2.08l0.01,0c0.05-0.03,0.1,0.01,0.16,0
					c0.05-0.01,0.13-0.03,0.17-0.03c0.04-0.01,0.09,0.01,0.13,0c0.04-0.01,0.08-0.02,0.12,0C9.35,2.1,9.43,2.07,9.49,2.06
					c0.02,0,0.05,0,0.07,0.01c0.03,0.01,0.05-0.04,0.08-0.02c0.06,0.03,0.11-0.02,0.17,0.01c0.01,0,0.02,0.01,0.03,0.01
					c0.01,0,0.01-0.01,0.02-0.03c0-0.01,0.01-0.03,0.02-0.07c0-0.06-0.01-0.09-0.01-0.1C9.84,1.84,9.83,1.83,9.81,1.83l0,0
					c-0.06-0.01-0.12,0-0.17,0c-0.03,0-0.06,0.01-0.08,0.01c-0.07,0-0.13-0.02-0.2-0.02C9.31,1.81,9.28,1.81,9.24,1.8
					C9.13,1.78,9.02,1.78,8.91,1.82C8.86,1.83,8.82,1.81,8.77,1.83C8.72,1.86,8.67,1.81,8.63,1.8c-0.05,0-0.1-0.01-0.15,0.02
					C8.44,1.86,8.39,1.85,8.34,1.84C8.29,1.84,8.25,1.85,8.2,1.82C8.16,1.8,8.11,1.8,8.11,1.8C8.1,1.79,8.09,1.79,8.08,1.77
					C8.08,1.73,8.07,1.7,8.07,1.64c-0.01-0.03,0-0.05,0.01-0.08c0.01-0.03-0.01-0.06,0-0.1c0.01-0.05,0.01-0.09,0.01-0.14
					c0-0.02,0-0.04,0-0.07c0-0.02,0.01-0.04,0.01-0.07c0-0.02-0.03-0.04-0.03-0.06c0-0.03,0.03-0.06,0.03-0.1
					c0-0.02-0.02-0.04-0.03-0.06C8.05,0.95,8.07,0.93,8.08,0.91c0.02-0.04,0.03-0.07,0-0.11C8.07,0.79,8.05,0.77,8.04,0.76
					c-0.02-0.03,0-0.03,0.02-0.04C8.08,0.72,8.07,0.68,8.1,0.71c0.02,0.02,0.01,0,0.06,0.01c0.03,0.01,0.07,0.03,0.1,0.04
					c0.03,0,0.07-0.03,0.1-0.03c0.03,0,0.06,0.01,0.08,0c0.06-0.01,0.11-0.03,0.17-0.04c0.02,0,0.05,0.04,0.07,0.02
					c0.03-0.03,0.07,0.01,0.1-0.01C8.81,0.68,8.84,0.7,8.86,0.71C8.89,0.72,8.9,0.72,8.93,0.73C8.98,0.74,9.03,0.68,9.08,0.7z"/>
			</g>
		</g>
	</g>
	<g>
		<circle class="st7" cx="8.42" cy="12.33" r="0.2"/>
		<circle class="st7" cx="9.58" cy="12.33" r="0.2"/>
	</g>
	<line class="st8" x1="8.61" y1="13.17" x2="9.39" y2="13.17"/>
	<g>
		<circle class="st4" cx="7.58" cy="13.11" r="0.6"/>
		<circle class="st4" cx="10.42" cy="13.11" r="0.6"/>
	</g>
</g>
</svg>
