<svg id="레이어_1" data-name="레이어 1" xmlns="http://www.w3.org/2000/svg" viewBox="0 0 18 18"><defs><style>.cls-1{fill:#00c55b;}.cls-2{fill:#312e2e;}.cls-3{fill:#fff;}.cls-4{fill:#ff0005;}.cls-5{fill:#ff8b00;}.cls-6{fill:#ff0;}.cls-7{fill:lime;}.cls-8{fill:#00bdff;}.cls-9{fill:#b0f;}.cls-10,.cls-13{fill:none;}.cls-10,.cls-11,.cls-13{stroke:#221e1f;stroke-linecap:round;stroke-linejoin:round;}.cls-10{stroke-width:0.4px;}.cls-11{fill:#221e1f;stroke-width:0.15808px;}.cls-12{fill:#ff94a1;}.cls-13{stroke-width:0.55478px;}</style></defs><path class="cls-1" d="M11.83729,7.49876,10.492,6.53084l-.373-5.27828H7.881L7.508,6.53084l-1.34525.96792A1.56374,1.56374,0,0,0,5.444,8.74727V16.7338c0,.383.43156.69355.96391.69355h5.18428c.53235,0,.96389-.31051.96389-.69355V8.74727A1.56374,1.56374,0,0,0,11.83729,7.49876Z"/><path class="cls-2" d="M7.16017,17.572c.149.0065.29816.02451.44715.01807.25749-.0109.51608-.01755.77235-.00568.31253.01444.61874-.09021.93436-.05286.21533.02549.44494.032.66459.0391.29285.00952.58454-.03107.87711-.01322.24119.01444.50828.03867.75145.04038a1.64005,1.64005,0,0,0,.45567-.04865.78988.78988,0,0,0,.44086-.279.87467.87467,0,0,0,.187-.55112l-.01078-.4728a4.32938,4.32938,0,0,1,.02346-.89853,3.14133,3.14133,0,0,0,.00962-.4928l.00879-.63971a3.35819,3.35819,0,0,0-.01274-.45178,1.51558,1.51558,0,0,1-.00525-.36951,1.8636,1.8636,0,0,0,.02237-.3602l-.05169-.90613c-.02142-.2449.0266-.48666.02852-.72906.001-.12775-.01036-.26288-.00117-.389.01144-.15689-.01142-.31366-.01145-.47055l.01685-.22577c-.00089-.07767-.02423-.15457-.01871-.23239.02135-.30011.03931-.602.04587-.90247a3.78,3.78,0,0,0-.06479-.76535,1.68119,1.68119,0,0,0-.58932-.8309c-.03-.03311-.18222-.16128-.25154-.07123-.04409.05677.01638.11484.03384.13861a.96019.96019,0,0,0,.0831.10193,1.45384,1.45384,0,0,1,.40416.74256,2.92217,2.92217,0,0,1,.0495.42184c.0253.29364-.0278.59079-.021.88464.01.43445.01723.86356.00673,1.298l-.00247.25525c.00349.33218-.02945.671-.01523,1.00314.01071.25073.04509.50235.03676.751-.00926.27624.03392.55194-.00266.82983a3.11443,3.11443,0,0,0,.0084.53006,6.34491,6.34491,0,0,1-.00483.63831,9.04084,9.04084,0,0,0-.04077.98513c.00771.15006-.01162.3.00655.44935.0361.21142.06386.33367-.05242.46105a.82437.82437,0,0,1-.39653.2446,2.40244,2.40244,0,0,1-.50647-.00256l-.37046.00092a4.12322,4.12322,0,0,1-.56984-.00379c-.21779-.02212-.44144.02533-.66168.00812-.36434-.0285-.729-.00284-1.0926-.0011a6.01509,6.01509,0,0,0-.93121.02679,4.4165,4.4165,0,0,1-.69215-.01647,5.379,5.379,0,0,1-1.03412-.00251c-.23659-.0571-.48906-.25076-.45575-.47058a2.41659,2.41659,0,0,0-.017-.36944,3.75481,3.75481,0,0,0,.01311-.50681,6.45881,6.45881,0,0,1-.02974-.91418l.00052-.97129c.00038-.08917.00262-.179-.00486-.268a1.77359,1.77359,0,0,1-.01988-.2605c.01924-.30066.015-.60166.05536-.90225.0224-.16678-.02386-.33667-.01694-.50482l.00518-.5214a2.66968,2.66968,0,0,1,.0178-.41183,2.25324,2.25324,0,0,0,.0172-.51844l-.01094-.19207a4.87317,4.87317,0,0,1-.02805-1.11057c.05794-.32174-.08384-.65909.04194-.92248A1.78114,1.78114,0,0,1,5.99565,7.829a3.45,3.45,0,0,1,.54009-.48187q.41892-.25311.82293-.52826l.29679-.20572.05049-.647a2.03749,2.03749,0,0,0-.00388-.27514,1.82882,1.82882,0,0,1,.04-.26685c.00636-.081-.0045-.16153.00484-.24252l.02238-.25333c.01172-.16684.02022-.33395.042-.5a3.34089,3.34089,0,0,0,.037-.52118,2.49562,2.49562,0,0,1,.0285-.41272l.04706-.45745c.04782-.328.04786-.63315.09494-.96119.01925-.13424.03084-.269.03778-.40411l.00732-.20282c-.00154-.024-.00624-.01456-.00957-.03024.009-.00455-.00556-.00955.03614-.01456l.20932-.01459c.39514-.026.78967.034,1.18289.01358l.05272-.00384a2.18942,2.18942,0,0,1,.43159-.00327.30272.30272,0,0,0-.00315.06351l.01477.21445.11816,1.09546.05605.82629a4.75781,4.75781,0,0,1,.04943.75531,8.51037,8.51037,0,0,0,.08364,1.37067c.01585.14468.01585.29184.01739.43725.003.14612.032.18564.0564.42594a1.5827,1.5827,0,0,1,.15976.11761c.26742.24185.59363.40259.86848.63586a1.90172,1.90172,0,0,0,.15876.12616.34247.34247,0,0,0,.12454.0499c.0341.007.09395.0285.13865-.00427.06256-.04587.01059-.12448-.00685-.15091a.86981.86981,0,0,0-.22108-.21051L11.55678,7.15c-.29415-.22851-.60337-.43667-.90447-.65585l-.04251-.029-.0399-.37433-.06679-1.26828-.02722-.71277c-.02875-.72912-.07472-1.4573-.171-2.18176-.01509-.11359-.02289-.22791-.02989-.34226l-.03366-.46441-.3116.01272a7.63447,7.63447,0,0,1-.93408-.03289,7.00984,7.00984,0,0,0-.96729.02679l-.24887.01569L7.757,1.60691,7.72559,1.965c-.02878.31509-.0353.60522-.08811.91787-.04262.25232-.06518.50577-.086.75956L7.47664,4.66252c-.03629.415-.0555.83081-.07065,1.24722-.006.17007-.02573.36575-.04361.51834l-.00316.01978-.15736.121c-.07172.05511-.14417.10943-.22049.15848-.24884.15988-.48587.33691-.72739.50741-.118.08524-.2455.17032-.36911.2789a1.84036,1.84036,0,0,0-.31546.33707,1.88045,1.88045,0,0,0-.18046.41867,1.864,1.864,0,0,0-.122.65127,3.40488,3.40488,0,0,0,.03694.39887,2.09383,2.09383,0,0,1-.02385.379,2.55133,2.55133,0,0,0,.00539.7167l.0456.2638a2.69415,2.69415,0,0,1-.01263.54953c-.022.29306.00955.60635-.027.89938-.02846.22812-.00327.45862-.01131.68793-.00763.21759-.03961.44119-.04167.6614-.00208.22278.03265.445.03119.668l-.00289.54666L5.3102,15.791a3.29947,3.29947,0,0,0-.01882.45835c.05148.23453-.048.39361.0455.69375a1.03845,1.03845,0,0,0,.34356.44773,1.258,1.258,0,0,0,.42387.18927A7.10579,7.10579,0,0,0,7.16017,17.572Z"/><rect class="cls-3" x="5.43859" y="9.22297" width="7.12281" height="6.63866"/><rect class="cls-4" x="7.60839" y="0.5727" width="0.47612" height="1.2805" rx="0.09082"/><rect class="cls-5" x="8.08451" y="0.5727" width="0.47612" height="1.2805" rx="0.09082"/><rect class="cls-6" x="8.56063" y="0.5727" width="0.47612" height="1.2805" rx="0.09082"/><rect class="cls-7" x="9.03676" y="0.5727" width="0.47612" height="1.2805" rx="0.09082"/><rect class="cls-8" x="9.51288" y="0.5727" width="0.47612" height="1.2805" rx="0.09082"/><rect class="cls-9" x="9.989" y="0.5727" width="0.47612" height="1.2805" rx="0.09082"/><path class="cls-2" d="M8.93515.69535a.23608.23608,0,0,0,.08574.01532A.38367.38367,0,0,1,9.169.70585c.05992.01227.11863-.07651.17917-.04483a.381.381,0,0,0,.12744.03314c.05615.00809.11209-.02633.16818-.0112a.7399.7399,0,0,0,.14378.03467.45363.45363,0,0,1,.077.02286.081.081,0,0,0,.08412-.011c.06006-.05417.1207-.04223.1811-.05176.04834-.00836.13771-.02581.14364.02231.005.02548.01923.01352.02916.023A.074.074,0,0,1,10.321.7621c.00153.01556-.001.00534.01434.04208A.07061.07061,0,0,1,10.33978.875a.09261.09261,0,0,0-.019.06906c.01794.05771.0216.1163.04383.17377.01818.047-.02255.09332-.0242.1398a.26832.26832,0,0,1,.001.07458c-.0097.0301.00968.06016.00971.09025,0,.01446-.015.0289-.01429.0433.00075.01489.02056.02963.01587.04456a.85906.85906,0,0,0-.03892.17306c-.00391.06036.02565.04944.01141.07535-.0108.0105.00559.08752-.04234.09564-.00589.00107-.02573-.00427-.02913.09058-.00171.06091.02182.06878.03087.07455a.07185.07185,0,0,0,.04118.01267.32041.32041,0,0,0,.24744-.144.21094.21094,0,0,0,.02392-.1466c-.01973-.072.02407-.11765.01871-.17749a1.19034,1.19034,0,0,1-.00571-.2489.272.272,0,0,0,.00209-.04895,1.36929,1.36929,0,0,0,.01293-.19236.463.463,0,0,1-.03119-.144c.00745-.05661-.02785-.09775.00134-.16724a.17728.17728,0,0,0-.05481-.15213.63261.63261,0,0,0-.13978-.13229.35511.35511,0,0,0-.146-.06232A.19788.19788,0,0,0,10.15948.41c-.02876.00653-.05752-.00985-.08616.00556a.16423.16423,0,0,1-.11089.04406C9.92714.454,9.89185.46318,9.85654.45878,9.82135.45439,9.78625.40733,9.75113.41673a.67364.67364,0,0,1-.071.00076A.18294.18294,0,0,1,9.5708.41429c-.04175-.0188-.08464.02148-.12688.00686A.57482.57482,0,0,0,9.23441.42024c-.05927.00125-.11893-.01947-.17856.0227C9.0121.47392,8.96739.42881,8.92311.429c-.06879.00024-.13753.03372-.20622.041A.17569.17569,0,0,1,8.554.43727c-.02463-.02311-.05023.01141-.07538.011C8.4462.44789,8.41356.41822,8.38142.4372a.29463.29463,0,0,1-.17529.02524L8.01988.462a.13413.13413,0,0,0-.0514.00412C7.95181.4723,7.93526.48771,7.91853.483a.62381.62381,0,0,1-.173-.047c-.04937-.01974-.10168.0301-.14558.04581a.37238.37238,0,0,0-.12558.09461c-.03146.02957-.0363.07412-.072.10745a.15523.15523,0,0,0-.02916.13876.1223.1223,0,0,0,.00928.03684c.02795.07095.06773.14227.02378.21295-.03848.06192.0422.12378.00779.18555-.02681.04818.00312.09732-.0054.14581-.00841.04791.05757.09512.04052.143a.72716.72716,0,0,0-.04307.1948.313.313,0,0,0,.10661.2381.13931.13931,0,0,0,.07964.03073c.02789.00235.04177.03735.07046.04477.02506.00647.05084-.00492.07475-.00138a.25947.25947,0,0,0,.05.00391.36424.36424,0,0,1,.0962.00565.149.149,0,0,0,.10019.00009.11156.11156,0,0,1,.07933-.00055c.02936.00915.05879.00277.08814.01245.06338.02084.12176.00265.18515.02286A.40676.40676,0,0,0,8.5724,2.0655c.07578-.02206.15143.02884.22682.01151l.01012-.00327c.06476-.02725.12975.01172.19444.004l.21114-.03449c.05293-.005.1059.00986.15881.002a.21253.21253,0,0,1,.14515.00332.381.381,0,0,0,.26332.0112.20041.20041,0,0,1,.08386.01142c.03213.00854.06363-.03626.09559-.02042.06871.03406.1375-.01687.2064.00757a.08847.08847,0,0,0,.03884.00821c.00847-.001.01683-.0112.025-.02734A.144.144,0,0,0,10.253,1.9676a.15907.15907,0,0,0-.018-.10052.062.062,0,0,0-.058-.0354l-.006-.00034a1.54938,1.54938,0,0,0-.21424-.00351c-.03467-.00082-.06927.0134-.104.01245L9.60934,1.821l-.1367-.01959a1.03521,1.03521,0,0,0-.41965.01425c-.056.01529-.11232-.01-.16818.01636-.05974.02817-.11941-.02377-.179-.02792a.302.302,0,0,0-.18229.02273.27911.27911,0,0,1-.16984.01682A.52241.52241,0,0,1,8.177,1.824a.40842.40842,0,0,0-.14645-.02734l-.19614-.00235c-.10139-.00662-.11706.00787-.14949-.00534a.03613.03613,0,0,1-.01971-.03613c.00116-.01947-.02-.01535-.01009-.0672a.88828.88828,0,0,0,.011-.17l.001-.0856c.00142-.02643.009-.05429.00789-.0813-.00111-.02649-.0314-.05291-.02876-.07931.00394-.03934.02759-.07846.03352-.11777.00385-.0256-.02183-.051-.03132-.07651-.00908-.02438.00976-.04834.02021-.07266A.12091.12091,0,0,0,7.664.865L7.62535.81437C7.60487.77168,7.62471.76261,7.64278.74766c.02314-.01489.02916-.05643.06627-.03918.02291.01681.02111-.00364.07931.0032A1.232,1.232,0,0,0,7.91519.747c.04273.00177.08531-.02768.12808-.02646A.99968.99968,0,0,0,8.1481.723c.07027-.00531.14055-.02887.21077-.03689.0291-.00333.05872.03735.08789.016.04163-.03049.08312.01111.12493-.0084C8.601.68,8.63194.70491,8.66216.7122l.0773.01648C8.8058.74449,8.86955.68269,8.93515.69535Z"/><rect class="cls-4" x="7.60839" y="0.5727" width="0.47612" height="1.2805" rx="0.09082"/><rect class="cls-5" x="8.08451" y="0.5727" width="0.47612" height="1.2805" rx="0.09082"/><rect class="cls-6" x="8.56063" y="0.5727" width="0.47612" height="1.2805" rx="0.09082"/><rect class="cls-7" x="9.03676" y="0.5727" width="0.47612" height="1.2805" rx="0.09082"/><rect class="cls-8" x="9.51288" y="0.5727" width="0.47612" height="1.2805" rx="0.09082"/><rect class="cls-9" x="9.989" y="0.5727" width="0.47612" height="1.2805" rx="0.09082"/><path class="cls-2" d="M8.93515.69535a.23608.23608,0,0,0,.08574.01532A.38367.38367,0,0,1,9.169.70585c.05992.01227.11863-.07651.17917-.04483a.381.381,0,0,0,.12744.03314c.05615.00809.11209-.02633.16818-.0112a.7399.7399,0,0,0,.14378.03467.45363.45363,0,0,1,.077.02286.081.081,0,0,0,.08412-.011c.06006-.05417.1207-.04223.1811-.05176.04834-.00836.13771-.02581.14364.02231.005.02548.01923.01352.02916.023A.074.074,0,0,1,10.321.7621c.00153.01556-.001.00534.01434.04208A.07061.07061,0,0,1,10.33978.875a.09261.09261,0,0,0-.019.06906c.01794.05771.0216.1163.04383.17377.01818.047-.02255.09332-.0242.1398a.26832.26832,0,0,1,.001.07458c-.0097.0301.00968.06016.00971.09025,0,.01446-.015.0289-.01429.0433.00075.01489.02056.02963.01587.04456a.85906.85906,0,0,0-.03892.17306c-.00391.06036.02565.04944.01141.07535-.0108.0105.00559.08752-.04234.09564-.00589.00107-.02573-.00427-.02913.09058-.00171.06091.02182.06878.03087.07455a.07185.07185,0,0,0,.04118.01267.32041.32041,0,0,0,.24744-.144.21094.21094,0,0,0,.02392-.1466c-.01973-.072.02407-.11765.01871-.17749a1.19034,1.19034,0,0,1-.00571-.2489.272.272,0,0,0,.00209-.04895,1.36929,1.36929,0,0,0,.01293-.19236.463.463,0,0,1-.03119-.144c.00745-.05661-.02785-.09775.00134-.16724a.17728.17728,0,0,0-.05481-.15213.63261.63261,0,0,0-.13978-.13229.35511.35511,0,0,0-.146-.06232A.19788.19788,0,0,0,10.15948.41c-.02876.00653-.05752-.00985-.08616.00556a.16423.16423,0,0,1-.11089.04406C9.92714.454,9.89185.46318,9.85654.45878,9.82135.45439,9.78625.40733,9.75113.41673a.67364.67364,0,0,1-.071.00076A.18294.18294,0,0,1,9.5708.41429c-.04175-.0188-.08464.02148-.12688.00686A.57482.57482,0,0,0,9.23441.42024c-.05927.00125-.11893-.01947-.17856.0227C9.0121.47392,8.96739.42881,8.92311.429c-.06879.00024-.13753.03372-.20622.041A.17569.17569,0,0,1,8.554.43727c-.02463-.02311-.05023.01141-.07538.011C8.4462.44789,8.41356.41822,8.38142.4372a.29463.29463,0,0,1-.17529.02524L8.01988.462a.13413.13413,0,0,0-.0514.00412C7.95181.4723,7.93526.48771,7.91853.483a.62381.62381,0,0,1-.173-.047c-.04937-.01974-.10168.0301-.14558.04581a.37238.37238,0,0,0-.12558.09461c-.03146.02957-.0363.07412-.072.10745a.15523.15523,0,0,0-.02916.13876.1223.1223,0,0,0,.00928.03684c.02795.07095.06773.14227.02378.21295-.03848.06192.0422.12378.00779.18555-.02681.04818.00312.09732-.0054.14581-.00841.04791.05757.09512.04052.143a.72716.72716,0,0,0-.04307.1948.313.313,0,0,0,.10661.2381.13931.13931,0,0,0,.07964.03073c.02789.00235.04177.03735.07046.04477.02506.00647.05084-.00492.07475-.00138a.25947.25947,0,0,0,.05.00391.36424.36424,0,0,1,.0962.00565.149.149,0,0,0,.10019.00009.11156.11156,0,0,1,.07933-.00055c.02936.00915.05879.00277.08814.01245.06338.02084.12176.00265.18515.02286A.40676.40676,0,0,0,8.5724,2.0655c.07578-.02206.15143.02884.22682.01151l.01012-.00327c.06476-.02725.12975.01172.19444.004l.21114-.03449c.05293-.005.1059.00986.15881.002a.21253.21253,0,0,1,.14515.00332.381.381,0,0,0,.26332.0112.20041.20041,0,0,1,.08386.01142c.03213.00854.06363-.03626.09559-.02042.06871.03406.1375-.01687.2064.00757a.08847.08847,0,0,0,.03884.00821c.00847-.001.01683-.0112.025-.02734A.144.144,0,0,0,10.253,1.9676a.15907.15907,0,0,0-.018-.10052.062.062,0,0,0-.058-.0354l-.006-.00034a1.54938,1.54938,0,0,0-.21424-.00351c-.03467-.00082-.06927.0134-.104.01245L9.60934,1.821l-.1367-.01959a1.03521,1.03521,0,0,0-.41965.01425c-.056.01529-.11232-.01-.16818.01636-.05974.02817-.11941-.02377-.179-.02792a.302.302,0,0,0-.18229.02273.27911.27911,0,0,1-.16984.01682A.52241.52241,0,0,1,8.177,1.824a.40842.40842,0,0,0-.14645-.02734l-.19614-.00235c-.10139-.00662-.11706.00787-.14949-.00534a.03613.03613,0,0,1-.01971-.03613c.00116-.01947-.02-.01535-.01009-.0672a.88828.88828,0,0,0,.011-.17l.001-.0856c.00142-.02643.009-.05429.00789-.0813-.00111-.02649-.0314-.05291-.02876-.07931.00394-.03934.02759-.07846.03352-.11777.00385-.0256-.02183-.051-.03132-.07651-.00908-.02438.00976-.04834.02021-.07266A.12091.12091,0,0,0,7.664.865L7.62535.81437C7.60487.77168,7.62471.76261,7.64278.74766c.02314-.01489.02916-.05643.06627-.03918.02291.01681.02111-.00364.07931.0032A1.232,1.232,0,0,0,7.91519.747c.04273.00177.08531-.02768.12808-.02646A.99968.99968,0,0,0,8.1481.723c.07027-.00531.14055-.02887.21077-.03689.0291-.00333.05872.03735.08789.016.04163-.03049.08312.01111.12493-.0084C8.601.68,8.63194.70491,8.66216.7122l.0773.01648C8.8058.74449,8.86955.68269,8.93515.69535Z"/><path class="cls-10" d="M7.4654,11.25616s.67767.12422.94615-.31746"/><path class="cls-10" d="M10.5346,11.25616s-.67767.12422-.94615-.31746"/><circle class="cls-11" cx="8.01127" cy="11.99587" r="0.33125"/><circle class="cls-11" cx="9.98873" cy="11.99587" r="0.33125"/><circle class="cls-12" cx="6.73807" cy="13.20664" r="0.95697"/><circle class="cls-12" cx="11.26193" cy="13.20664" r="0.95697"/><rect class="cls-4" x="8.19684" y="13.22288" width="0.26772" height="2.63875" rx="0.09776"/><rect class="cls-5" x="8.46456" y="13.22288" width="0.26772" height="2.63875" rx="0.09776"/><rect class="cls-6" x="8.73228" y="13.22288" width="0.26772" height="2.63875" rx="0.09776"/><rect class="cls-7" x="9" y="13.22288" width="0.26772" height="2.63875" rx="0.09776"/><rect class="cls-8" x="9.26772" y="13.22288" width="0.26772" height="2.63875" rx="0.09776"/><rect class="cls-9" x="9.53544" y="13.22288" width="0.26772" height="2.63875" rx="0.09776"/><line class="cls-13" x1="8.31385" y1="13.22288" x2="9.68615" y2="13.22288"/><path class="cls-2" d="M9.43361,9.36769a2.13924,2.13924,0,0,0,.28682.01806,3.59987,3.59987,0,0,1,.49545-.00567c.20047.01443.39691-.09024.59935-.05289a3.303,3.303,0,0,0,.42633.03909c.18785.00952.375-.03106.56264-.01321.15424.01468.32712.03821.48094.04089.12567.00156.06278.01972.07762.02695l-.00085.00155c-.00733.03592-.01363-.05258.01451.06308a2.36355,2.36355,0,0,1,.06106.60575,1.79,1.79,0,0,1-.02346.57638,1.29524,1.29524,0,0,0-.00962.31614l-.0088.41033a1.38672,1.38672,0,0,0,.01276.28983.62723.62723,0,0,1,.00523.237.77537.77537,0,0,0-.02237.231l.0517.58124a3.12711,3.12711,0,0,1-.02854.46768c-.001.08194.01038.16864.00119.24954a2.65574,2.65574,0,0,0,.01145.30185c0,.0484-.01772.09668-.01685.14484a1.178,1.178,0,0,1,.01871.149c-.02135.19254-.03932.38617-.0459.57892-.00532.15634.03087.31342.02452.46991-.00833.20557.07132.40961.06564.61478-.00076.0274-.00907.14847.103.15173a.0858.0858,0,0,0,.08978-.07306.31519.31519,0,0,0,.02295-.088l.04856-.60883a1.69613,1.69613,0,0,0-.01931-.29809c-.02529-.18839.02782-.379.02105-.56748-.01-.27868-.01725-.554-.00673-.83261l.00245-.16372c-.00349-.21308.02947-.43042.01525-.6435a4.11926,4.11926,0,0,1-.03678-.48175,3.46326,3.46326,0,0,1,.00267-.53232,1.2864,1.2864,0,0,0-.0084-.34,2.612,2.612,0,0,1,.00482-.40943,3.73792,3.73792,0,0,0,.04079-.63195,2.6491,2.6491,0,0,0-.00655-.28824,1.2568,1.2568,0,0,1-.052-.37091L12.69441,9.09l-.074-.00129a2.37174,2.37174,0,0,1-.28093-.03091.56836.56836,0,0,0-.17626-.01871c-.07919.00745-.15844-.00357-.23765.00092A1.69964,1.69964,0,0,1,11.56,9.0362c-.13971-.02215-.28317.02533-.42445.00812a5.42048,5.42048,0,0,0-.70087-.0011,2.48418,2.48418,0,0,0-.59733.0268,1.82346,1.82346,0,0,1-.444-.01648c-.23012.0003-.46007.03976-.68985.04837a1.50551,1.50551,0,0,1-.5449-.03858c-.08239-.02725-.168.01343-.25219.013a1.54974,1.54974,0,0,0-.3251-.01313,2.66782,2.66782,0,0,1-.58641.02976l-.623-.00052a1.25341,1.25341,0,0,0-.172.00485.74122.74122,0,0,1-.1671.0199L5.305,9.06184l-.03035-.00278c-.01532.1716.02632.40939.01971.47226-.00718.11173.00518.22369-.00517.33447a1.10439,1.10439,0,0,1-.01782.26419.93349.93349,0,0,0-.0172.33252,1.066,1.066,0,0,0,.01094.12323,2.01639,2.01639,0,0,1,.02806.71241c-.04539.20706.04976.41406.00917.62069a3.67962,3.67962,0,0,0-.00636.4878c-.00993.16027.06789.31817.04779.47845q-.03923.31293-.05185.6264l-.01111.556a.85276.85276,0,0,0,.02327.17588c.01256.05871-.02034.11407-.02107.17254-.00066.0521.01588.10315.01227.1554l-.00446.16312c.00006.10729.00336.21459-.00665.32183a1.37706,1.37706,0,0,0-.00011.33515,1.03474,1.03474,0,0,1,.00066.266l-.0085.36658.15747.00619.4045.01376a2.91248,2.91248,0,0,1,.30967.01319A3.69309,3.69309,0,0,0,6.937,16.0185c.25346-.026.50655.034.75878.01358l.03382-.00384A6.10634,6.10634,0,0,1,8.38,16.033l.70632-.04065c.177-.006.35425.01163.53125.00232a1.96075,1.96075,0,0,1,.48553.00394,3.51,3.51,0,0,0,.88083.01318,1.8363,1.8363,0,0,1,.28057.01349c.10748.01.21286-.04276.31977-.02408.22986.04013.45995-.01993.69043.00891a.78913.78913,0,0,0,.13.00971.16011.16011,0,0,0,.08354-.03226.12963.12963,0,0,0,.07059-.08447.10693.10693,0,0,0-.06011-.11857.37631.37631,0,0,0-.194-.04174l-.02-.0004c-.23877-.0137-.47777-.00208-.71666-.00412l-.34773.01468-.81456-.0228-.45732-.0231a9.71464,9.71464,0,0,0-1.40378.01682c-.18738.018-.37574-.01181-.56261.01928a3.15144,3.15144,0,0,1-.59865-.03293,2.75153,2.75153,0,0,0-.60977.02683,2.56094,2.56094,0,0,1-.56813.01981,4.31676,4.31676,0,0,1-.57256-.0232l-.04664-.01968a.5641.5641,0,0,0,.01254-.16663l.00276-.65613c.00695-.26718-.00322-.53411-.01745-.80127a2.97262,2.97262,0,0,1,.007-.34124c.00827-.13266-.0154-.2659-.00442-.39939.01556-.18945.01028-.37921.013-.56881l.00114-.28638.00931-.27194c-.00131-.08859-.037-.17707-.03392-.26538l.03954-.394a1.42949,1.42949,0,0,0-.037-.25585.87087.87087,0,0,1,.02387-.24308,1.05739,1.05739,0,0,0-.00539-.45974l-.04562-.16922a1.1134,1.1134,0,0,1,.01263-.35251c.022-.188-.00955-.389.027-.57694.01823-.13141.01443-.07532.01147-.11834a.07616.07616,0,0,1,.03208-.00019c.06483.00766.26228.03964.38687.04169.1429.0021.28541-.03265.42846-.03119l.35068.0029.70505-.04352c.09735-.00394.19641.044.294.0188.13926-.036.278.01312.41789-.00989a1.26251,1.26251,0,0,1,.30266.02182L8.779,9.407C9.0009,9.42561,9.21416,9.35276,9.43361,9.36769Z"/></svg>